<svg version="1.1" viewBox="0.0 0.0 960.0 540.0" fill="none" stroke="none" stroke-linecap="square" stroke-miterlimit="10" xmlns:xlink="http://www.w3.org/1999/xlink" xmlns="http://www.w3.org/2000/svg"><clipPath id="p.0"><path d="m0 0l960.0 0l0 540.0l-960.0 0l0 -540.0z" clip-rule="nonzero"/></clipPath><g clip-path="url(#p.0)"><path fill="#ffffff" d="m0 0l960.0 0l0 540.0l-960.0 0z" fill-rule="evenodd"/><path fill="#ffffff" d="m312.9895 270.0l0 0c0 -93.95799 77.10574 -170.12598 172.22046 -170.12598l0 0c45.67572 0 89.48065 17.923935 121.77826 49.828743c32.297607 31.904816 50.4422 75.17702 50.4422 120.29724l0 0c0 93.95798 -77.10571 170.12598 -172.22046 170.12598l0 0c-95.114716 0 -172.22046 -76.168 -172.22046 -170.12598z" fill-rule="evenodd"/><path stroke="#000000" stroke-width="4.0" stroke-linejoin="round" stroke-linecap="butt" d="m312.9895 270.0l0 0c0 -93.95799 77.10574 -170.12598 172.22046 -170.12598l0 0c45.67572 0 89.48065 17.923935 121.77826 49.828743c32.297607 31.904816 50.4422 75.17702 50.4422 120.29724l0 0c0 93.95798 -77.10571 170.12598 -172.22046 170.12598l0 0c-95.114716 0 -172.22046 -76.168 -172.22046 -170.12598z" fill-rule="evenodd"/><path fill="#000000" fill-opacity="0.0" d="m363.4314 391.2383l-362.61417 147.93698" fill-rule="evenodd"/><path stroke="#000000" stroke-width="4.0" stroke-linejoin="round" stroke-linecap="butt" d="m363.4314 391.2383l-362.61417 147.93698" fill-rule="evenodd"/><path fill="#000000" fill-opacity="0.0" d="m363.4314 150.06532l-363.43307 -150.86613" fill-rule="evenodd"/><path stroke="#000000" stroke-width="4.0" stroke-linejoin="round" stroke-linecap="butt" d="m363.4314 150.06532l-363.43307 -150.86613" fill-rule="evenodd"/><path fill="#000000" fill-opacity="0.0" d="m959.9974 0.6676013l-353.00787 149.38582" fill-rule="evenodd"/><path stroke="#000000" stroke-width="4.0" stroke-linejoin="round" stroke-linecap="butt" d="m959.9974 0.6676013l-353.00787 149.38582" fill-rule="evenodd"/><path fill="#000000" fill-opacity="0.0" d="m958.0761 537.57355l-351.0866 -146.33069" fill-rule="evenodd"/><path stroke="#000000" stroke-width="4.0" stroke-linejoin="round" stroke-linecap="butt" d="m958.0761 537.57355l-351.0866 -146.33069" fill-rule="evenodd"/><path fill="#000000" fill-opacity="0.0" d="m31.131233 32.0l52.755905 0l0 67.874016l-52.755905 0z" fill-rule="evenodd"/><path fill="#000000" d="m56.30311 76.837494q-1.953125 1.65625 -3.765625 2.34375q-1.796875 0.6875 -3.875 0.6875q-3.40625 0 -5.25 -1.671875q-1.828125 -1.671875 -1.828125 -4.265625q0 -1.53125 0.6875 -2.78125q0.6875 -1.265625 1.8125 -2.015625q1.125 -0.765625 2.53125 -1.15625q1.03125 -0.28125 3.125 -0.53125q4.265625 -0.515625 6.265625 -1.21875q0.03125 -0.71875 0.03125 -0.90625q0 -2.1562462 -1.0 -3.0312462q-1.34375 -1.1875 -4.0 -1.1875q-2.484375 0 -3.671875 0.875q-1.171875 0.859375 -1.75 3.0624962l-3.4375 -0.46875q0.46875 -2.2031212 1.546875 -3.5624962q1.078125 -1.359375 3.109375 -2.09375q2.03125 -0.734375 4.703125 -0.734375q2.65625 0 4.3125 0.625q1.671875 0.625 2.453125 1.578125q0.78125 0.953125 1.09375 2.390625q0.171875 0.90625 0.171875 3.2499962l0 4.6875q0 4.890625 0.21875 6.203125q0.234375 1.296875 0.890625 2.484375l-3.671875 0q-0.546875 -1.09375 -0.703125 -2.5625zm-0.296875 -7.84375q-1.90625 0.78125 -5.734375 1.328125q-2.171875 0.3125 -3.078125 0.703125q-0.890625 0.390625 -1.375 1.140625q-0.484375 0.75 -0.484375 1.671875q0 1.40625 1.0625 2.34375q1.0625 0.9375 3.109375 0.9375q2.03125 0 3.609375 -0.890625q1.59375 -0.890625 2.328125 -2.4375q0.5625 -1.1875 0.5625 -3.515625l0 -1.28125z" fill-rule="nonzero"/><path fill="#000000" fill-opacity="0.0" d="m30.721785 440.12598l39.433067 0l0 67.87402l-39.433067 0z" fill-rule="evenodd"/><path fill="#000000" d="m45.596786 487.52597l-3.25 0l0 -28.640625l3.515625 0l0 10.21875q2.21875 -2.796875 5.671875 -2.796875q1.921875 0 3.625 0.78125q1.71875 0.765625 2.8125 2.171875q1.109375 1.390625 1.734375 3.359375q0.625 1.96875 0.625 4.21875q0 5.328125 -2.640625 8.25q-2.640625 2.90625 -6.328125 2.90625q-3.671875 0 -5.765625 -3.0625l0 2.59375zm-0.03125 -10.53125q0 3.734375 1.015625 5.390625q1.65625 2.71875 4.484375 2.71875q2.3125 0 3.984375 -2.0q1.6875 -2.0 1.6875 -5.96875q0 -4.0625 -1.609375 -6.0q-1.609375 -1.9375 -3.90625 -1.9375q-2.296875 0 -3.984375 2.015625q-1.671875 2.0 -1.671875 5.78125z" fill-rule="nonzero"/><path fill="#000000" fill-opacity="0.0" d="m871.3228 40.695538l52.75592 0l0 67.87402l-52.75592 0z" fill-rule="evenodd"/><path fill="#000000" d="m896.4947 80.501785l3.453125 0.4375q-0.5625 3.578125 -2.90625 5.609375q-2.328125 2.015625 -5.71875 2.015625q-4.265625 0 -6.859375 -2.78125q-2.578125 -2.78125 -2.578125 -7.984375q0 -3.359375 1.109375 -5.875q1.125 -2.515625 3.390625 -3.78125q2.28125 -1.265625 4.953125 -1.265625q3.375 0 5.515625 1.71875q2.15625 1.703125 2.765625 4.84375l-3.421875 0.53125q-0.484375 -2.09375 -1.734375 -3.140625q-1.234375 -1.0625 -2.984375 -1.0625q-2.65625 0 -4.328125 1.90625q-1.65625 1.90625 -1.65625 6.03125q0 4.171875 1.59375 6.078125q1.609375 1.890625 4.1875 1.890625q2.078125 0 3.453125 -1.265625q1.390625 -1.28125 1.765625 -3.90625z" fill-rule="nonzero"/><path fill="#000000" fill-opacity="0.0" d="m866.3543 440.12598l52.75592 0l0 67.87402l-52.75592 0z" fill-rule="evenodd"/><path fill="#000000" d="m891.44806 487.52597l0 -2.625q-1.96875 3.09375 -5.796875 3.09375q-2.484375 0 -4.5625 -1.359375q-2.078125 -1.375 -3.21875 -3.828125q-1.140625 -2.453125 -1.140625 -5.640625q0 -3.09375 1.03125 -5.625q1.03125 -2.53125 3.09375 -3.875q2.078125 -1.359375 4.640625 -1.359375q1.875 0 3.328125 0.796875q1.46875 0.796875 2.390625 2.0625l0 -10.28125l3.5 0l0 28.640625l-3.265625 0zm-11.109375 -10.359375q0 3.984375 1.671875 5.96875q1.6875 1.96875 3.96875 1.96875q2.3125 0 3.921875 -1.875q1.609375 -1.890625 1.609375 -5.765625q0 -4.25 -1.640625 -6.234375q-1.640625 -2.0 -4.046875 -2.0q-2.34375 0 -3.921875 1.921875q-1.5625 1.90625 -1.5625 6.015625z" fill-rule="nonzero"/><path fill="#000000" fill-opacity="0.0" d="m504.937 28.341208l166.83466 0l0 67.874016l-166.83466 0z" fill-rule="evenodd"/><path fill="#000000" d="m516.57764 75.7412l0 -20.75l3.140625 0l0 2.921875q0.984375 -1.53125 2.59375 -2.453125q1.625 -0.9375 3.703125 -0.9375q2.296875 0 3.765625 0.96875q1.484375 0.953125 2.09375 2.671875q2.453125 -3.640625 6.40625 -3.640625q3.078125 0 4.734375 1.71875q1.671875 1.703125 1.671875 5.265625l0 14.234375l-3.5 0l0 -13.0625q0 -2.109375 -0.34375 -3.03125q-0.34375 -0.9375 -1.25 -1.5q-0.890625 -0.578125 -2.09375 -0.578125q-2.1875 0 -3.640625 1.46875q-1.4375 1.453125 -1.4375 4.65625l0 12.046875l-3.515625 0l0 -13.484375q0 -2.34375 -0.859375 -3.515625q-0.859375 -1.171875 -2.8125 -1.171875q-1.484375 0 -2.75 0.78125q-1.265625 0.78125 -1.828125 2.296875q-0.5625 1.5 -0.5625 4.328125l0 10.765625l-3.515625 0z" fill-rule="nonzero"/><path fill="#000000" d="m548.3667 81.33495q0 -3.390625 0.6875 -5.453125q0.703125 -2.0625 2.078125 -3.171875q1.375 -1.125 3.453125 -1.125q1.53125 0 2.6875 0.625q1.171875 0.609375 1.921875 1.78125q0.75 1.15625 1.171875 2.828125q0.4375 1.671875 0.4375 4.515625q0 3.359375 -0.6875 5.421875q-0.6875 2.0625 -2.0625 3.1875q-1.375 1.125 -3.46875 1.125q-2.765625 0 -4.328125 -1.984375q-1.890625 -2.375 -1.890625 -7.75zm2.40625 0q0 4.6875 1.09375 6.25q1.109375 1.5625 2.71875 1.5625q1.609375 0 2.703125 -1.5625q1.109375 -1.5625 1.109375 -6.25q0 -4.71875 -1.109375 -6.265625q-1.09375 -1.546875 -2.734375 -1.546875q-1.609375 0 -2.578125 1.359375q-1.203125 1.75 -1.203125 6.453125z" fill-rule="nonzero"/><path fill="#000000" d="m565.6448 75.7412l0 -4.0l4.0 0l0 4.0q0 2.203125 -0.78125 3.5625q-0.78125 1.359375 -2.484375 2.109375l-0.96875 -1.515625q1.109375 -0.484375 1.625 -1.4375q0.53125 -0.9375 0.59375 -2.71875l-1.984375 0zm21.804688 -28.640625l18.515625 0l0 3.390625l-14.71875 0l0 25.25l-3.796875 0l0 -28.640625z" fill-rule="nonzero"/><path fill="#000000" d="m607.07837 81.33495q0 -3.390625 0.6875 -5.453125q0.703125 -2.0625 2.078125 -3.171875q1.375 -1.125 3.453125 -1.125q1.53125 0 2.6875 0.625q1.171875 0.609375 1.921875 1.78125q0.75 1.15625 1.171875 2.828125q0.4375 1.671875 0.4375 4.515625q0 3.359375 -0.6875 5.421875q-0.6875 2.0625 -2.0625 3.1875q-1.375 1.125 -3.46875 1.125q-2.765625 0 -4.328125 -1.984375q-1.890625 -2.375 -1.890625 -7.75zm2.40625 0q0 4.6875 1.09375 6.25q1.109375 1.5625 2.71875 1.5625q1.609375 0 2.703125 -1.5625q1.109375 -1.5625 1.109375 -6.25q0 -4.71875 -1.109375 -6.265625q-1.09375 -1.546875 -2.734375 -1.546875q-1.609375 0 -2.578125 1.359375q-1.203125 1.75 -1.203125 6.453125z" fill-rule="nonzero"/></g></svg>