<svg version="1.1" viewBox="0.0 0.0 960.0 540.0" fill="none" stroke="none" stroke-linecap="square" stroke-miterlimit="10" xmlns:xlink="http://www.w3.org/1999/xlink" xmlns="http://www.w3.org/2000/svg"><clipPath id="p.0"><path d="m0 0l960.0 0l0 540.0l-960.0 0l0 -540.0z" clip-rule="nonzero"/></clipPath><g clip-path="url(#p.0)"><path fill="#ffffff" d="m0 0l960.0 0l0 540.0l-960.0 0z" fill-rule="evenodd"/><path fill="#ffffff" d="m155.10422 234.98488l0 0c0 -43.868973 38.46805 -79.43182 85.92079 -79.43182l0 0c47.452744 0 85.92079 35.56285 85.92079 79.43182l0 0c0 43.869003 -38.46805 79.43184 -85.92079 79.43184l0 0c-47.452744 0 -85.92079 -35.562836 -85.92079 -79.43184z" fill-rule="evenodd"/><path stroke="#000000" stroke-width="4.0" stroke-linejoin="round" stroke-linecap="butt" d="m155.10422 234.98488l0 0c0 -43.868973 38.46805 -79.43182 85.92079 -79.43182l0 0c47.452744 0 85.92079 35.56285 85.92079 79.43182l0 0c0 43.869003 -38.46805 79.43184 -85.92079 79.43184l0 0c-47.452744 0 -85.92079 -35.562836 -85.92079 -79.43184z" fill-rule="evenodd"/><path fill="#000000" fill-opacity="0.0" d="m477.89642 109.23359l-176.1156 69.74824" fill-rule="evenodd"/><path stroke="#000000" stroke-width="4.0" stroke-linejoin="round" stroke-linecap="butt" d="m477.89642 109.23359l-176.1156 69.74824" fill-rule="evenodd"/><path fill="#000000" fill-opacity="0.0" d="m476.93793 359.91498l-175.15714 -68.32181" fill-rule="evenodd"/><path stroke="#000000" stroke-width="4.0" stroke-linejoin="round" stroke-linecap="butt" d="m476.93793 359.91498l-175.15714 -68.32181" fill-rule="evenodd"/><path fill="#000000" fill-opacity="0.0" d="m396.87384 127.92388l63.10495 0l0 67.865944l-63.10495 0z" fill-rule="evenodd"/><path fill="#000000" d="m422.04572 167.73013l3.453125 0.4375q-0.5625 3.578125 -2.90625 5.609375q-2.328125 2.015625 -5.71875 2.015625q-4.265625 0 -6.859375 -2.78125q-2.578125 -2.78125 -2.578125 -7.984375q0 -3.359375 1.109375 -5.875q1.125 -2.515625 3.390625 -3.78125q2.28125 -1.265625 4.953125 -1.265625q3.375 0 5.515625 1.71875q2.15625 1.703125 2.765625 4.84375l-3.421875 0.53125q-0.484375 -2.09375 -1.734375 -3.140625q-1.234375 -1.0625 -2.984375 -1.0625q-2.65625 0 -4.328125 1.90625q-1.65625 1.90625 -1.65625 6.03125q0 4.171875 1.59375 6.078125q1.609375 1.890625 4.1875 1.890625q2.078125 0 3.453125 -1.265625q1.390625 -1.28125 1.765625 -3.90625z" fill-rule="nonzero"/><path fill="#000000" d="m435.81134 190.32388l-2.34375 0l0 -14.921875q-0.859375 0.796875 -2.234375 1.609375q-1.359375 0.796875 -2.453125 1.203125l0 -2.265625q1.96875 -0.921875 3.4375 -2.234375q1.46875 -1.3125 2.078125 -2.546875l1.515625 0l0 19.15625z" fill-rule="nonzero"/><path fill="#000000" fill-opacity="0.0" d="m396.87415 263.71127l68.46323 0l0 67.86594l-68.46323 0z" fill-rule="evenodd"/><path fill="#000000" d="m421.9679 311.1113l0 -2.625q-1.96875 3.09375 -5.796875 3.09375q-2.484375 0 -4.5625 -1.359375q-2.078125 -1.375 -3.21875 -3.828125q-1.140625 -2.453125 -1.140625 -5.640625q0 -3.09375 1.03125 -5.625q1.03125 -2.53125 3.09375 -3.875q2.078125 -1.359375 4.640625 -1.359375q1.875 0 3.328125 0.796875q1.46875 0.796875 2.390625 2.0625l0 -10.28125l3.5 0l0 28.640625l-3.265625 0zm-11.109375 -10.359375q0 3.984375 1.671875 5.96875q1.6875 1.96875 3.96875 1.96875q2.3125 0 3.921875 -1.875q1.609375 -1.890625 1.609375 -5.765625q0 -4.25 -1.640625 -6.234375q-1.640625 -2.0 -4.046875 -2.0q-2.34375 0 -3.921875 1.921875q-1.5625 1.90625 -1.5625 6.015625z" fill-rule="nonzero"/><path fill="#000000" d="m438.05774 326.1113l-2.34375 0l0 -14.921875q-0.859375 0.796875 -2.234375 1.609375q-1.359375 0.796875 -2.453125 1.203125l0 -2.265625q1.96875 -0.921875 3.4375 -2.234375q1.46875 -1.3125 2.078125 -2.546875l1.515625 0l0 19.15625z" fill-rule="nonzero"/><path fill="#000000" fill-opacity="0.0" d="m200.5324 80.29265l133.42238 0l0 67.86594l-133.42238 0z" fill-rule="evenodd"/><path fill="#000000" d="m212.17302 127.69265l0 -20.75l3.140625 0l0 2.921875q0.984375 -1.53125 2.59375 -2.453125q1.625 -0.9375 3.703125 -0.9375q2.296875 0 3.765625 0.96875q1.484375 0.953125 2.09375 2.671875q2.453125 -3.640625 6.40625 -3.640625q3.078125 0 4.734375 1.71875q1.671875 1.703125 1.671875 5.265625l0 14.234375l-3.5 0l0 -13.0625q0 -2.109375 -0.34375 -3.03125q-0.34375 -0.9375 -1.25 -1.5q-0.890625 -0.578125 -2.09375 -0.578125q-2.1875 0 -3.640625 1.46875q-1.4375 1.453125 -1.4375 4.65625l0 12.046875l-3.515625 0l0 -13.484375q0 -2.34375 -0.859375 -3.515625q-0.859375 -1.171875 -2.8125 -1.171875q-1.484375 0 -2.75 0.78125q-1.265625 0.78125 -1.828125 2.296875q-0.5625 1.5 -0.5625 4.328125l0 10.765625l-3.515625 0z" fill-rule="nonzero"/><path fill="#000000" d="m252.7902 142.69264l-2.34375 0l0 -14.921867q-0.859375 0.7968674 -2.234375 1.6093674q-1.359375 0.796875 -2.453125 1.203125l0 -2.265625q1.96875 -0.9218674 3.4375 -2.2343674q1.46875 -1.3125 2.078125 -2.546875l1.515625 0l0 19.156242z" fill-rule="nonzero"/><path fill="#000000" d="m261.24014 127.69265l0 -4.0l4.0 0l0 4.0q0 2.2031174 -0.78125 3.5624924q-0.78125 1.359375 -2.484375 2.109375l-0.96875 -1.515625q1.109375 -0.484375 1.625 -1.4375q0.53125 -0.9375 0.59375 -2.7187424l-1.984375 0zm21.804688 -28.640625l18.515625 0l0 3.390625l-14.71875 0l0 25.25l-3.796875 0l0 -28.640625z" fill-rule="nonzero"/><path fill="#000000" d="m311.50186 142.69264l-2.34375 0l0 -14.921867q-0.859375 0.7968674 -2.234375 1.6093674q-1.359375 0.796875 -2.453125 1.203125l0 -2.265625q1.96875 -0.9218674 3.4375 -2.2343674q1.46875 -1.3125 2.078125 -2.546875l1.515625 0l0 19.156242z" fill-rule="nonzero"/><path fill="#000000" fill-opacity="0.0" d="m-2.6246719E-6 232.53764c3.0029085 -1.7136078 12.185931 -10.159058 18.01745 -10.281601c5.83152 -0.122558594 11.401379 9.587173 16.971672 9.546326c5.5702934 -0.04084778 11.053658 -9.750778 16.450092 -9.791428c5.396435 -0.040634155 10.706154 9.465866 15.928509 9.547562c5.2223587 0.08169556 10.444496 -8.9756775 15.405624 -9.057373c4.961128 -0.08169556 9.617668 8.771225 14.361145 8.567184c4.743477 -0.20404053 9.747742 -9.913757 14.099709 -9.791412c4.351959 0.12232971 7.3119507 10.68866 12.01207 10.525467c4.700119 -0.16319275 10.879356 -11.423126 16.188637 -11.504608c5.3092957 -0.08149719 13.055893 9.179703 15.6670685 11.01564" fill-rule="evenodd"/><path stroke="#000000" stroke-width="4.0" stroke-linejoin="round" stroke-linecap="butt" d="m-2.6246719E-6 232.53764c3.0029085 -1.7136078 12.185931 -10.159058 18.01745 -10.281601c5.83152 -0.122558594 11.401379 9.587173 16.971672 9.546326c5.5702934 -0.04084778 11.053658 -9.750778 16.450092 -9.791428c5.396435 -0.040634155 10.706154 9.465866 15.928509 9.547562c5.2223587 0.08169556 10.444496 -8.9756775 15.405624 -9.057373c4.961128 -0.08169556 9.617668 8.771225 14.361145 8.567184c4.743477 -0.20404053 9.747742 -9.913757 14.099709 -9.791412c4.351959 0.12232971 7.3119507 10.68866 12.01207 10.525467c4.700119 -0.16319275 10.879356 -11.423126 16.188637 -11.504608c5.3092957 -0.08149719 13.055893 9.179703 15.6670685 11.01564" fill-rule="evenodd"/><path fill="#ffffff" d="m635.1042 252.55707l0 0c0 -43.868988 38.46808 -79.43182 85.92084 -79.43182l0 0c47.452698 0 85.92078 35.562836 85.92078 79.43182l0 0c0 43.868988 -38.46808 79.43182 -85.92078 79.43182l0 0c-47.45276 0 -85.92084 -35.562836 -85.92084 -79.43182z" fill-rule="evenodd"/><path stroke="#000000" stroke-width="4.0" stroke-linejoin="round" stroke-linecap="butt" d="m635.1042 252.55707l0 0c0 -43.868988 38.46808 -79.43182 85.92084 -79.43182l0 0c47.452698 0 85.92078 35.562836 85.92078 79.43182l0 0c0 43.868988 -38.46808 79.43182 -85.92078 79.43182l0 0c-47.45276 0 -85.92084 -35.562836 -85.92084 -79.43182z" fill-rule="evenodd"/><path fill="#000000" fill-opacity="0.0" d="m957.8964 126.80576l-176.1156 69.74824" fill-rule="evenodd"/><path stroke="#000000" stroke-width="4.0" stroke-linejoin="round" stroke-linecap="butt" d="m957.8964 126.80576l-176.1156 69.74824" fill-rule="evenodd"/><path fill="#000000" fill-opacity="0.0" d="m956.9379 377.48715l-175.1571 -68.32181" fill-rule="evenodd"/><path stroke="#000000" stroke-width="4.0" stroke-linejoin="round" stroke-linecap="butt" d="m956.9379 377.48715l-175.1571 -68.32181" fill-rule="evenodd"/><path fill="#000000" fill-opacity="0.0" d="m876.87384 145.49606l63.10492 0l0 67.86594l-63.10492 0z" fill-rule="evenodd"/><path fill="#000000" d="m902.0457 185.3023l3.453125 0.4375q-0.5625 3.578125 -2.90625 5.609375q-2.328125 2.015625 -5.71875 2.015625q-4.265625 0 -6.859375 -2.78125q-2.578125 -2.78125 -2.578125 -7.984375q0 -3.359375 1.109375 -5.875q1.125 -2.515625 3.390625 -3.78125q2.28125 -1.265625 4.953125 -1.265625q3.375 0 5.515625 1.71875q2.15625 1.703125 2.765625 4.84375l-3.421875 0.53125q-0.484375 -2.09375 -1.734375 -3.140625q-1.234375 -1.0625 -2.984375 -1.0625q-2.65625 0 -4.328125 1.90625q-1.65625 1.90625 -1.65625 6.03125q0 4.171875 1.59375 6.078125q1.609375 1.890625 4.1875 1.890625q2.078125 0 3.453125 -1.265625q1.390625 -1.28125 1.765625 -3.90625z" fill-rule="nonzero"/><path fill="#000000" d="m915.81134 207.89606l-2.34375 0l0 -14.921875q-0.859375 0.796875 -2.234375 1.609375q-1.359375 0.796875 -2.453125 1.203125l0 -2.265625q1.96875 -0.921875 3.4375 -2.234375q1.46875 -1.3125 2.078125 -2.546875l1.515625 0l0 19.15625z" fill-rule="nonzero"/><path fill="#000000" fill-opacity="0.0" d="m876.87415 281.28348l68.46326 0l0 67.86594l-68.46326 0z" fill-rule="evenodd"/><path fill="#000000" d="m901.9679 328.68347l0 -2.625q-1.96875 3.09375 -5.796875 3.09375q-2.484375 0 -4.5625 -1.359375q-2.078125 -1.375 -3.21875 -3.828125q-1.140625 -2.453125 -1.140625 -5.640625q0 -3.09375 1.03125 -5.625q1.03125 -2.53125 3.09375 -3.875q2.078125 -1.359375 4.640625 -1.359375q1.875 0 3.328125 0.796875q1.46875 0.796875 2.390625 2.0625l0 -10.28125l3.5 0l0 28.640625l-3.265625 0zm-11.109375 -10.359375q0 3.984375 1.671875 5.96875q1.6875 1.96875 3.96875 1.96875q2.3125 0 3.921875 -1.875q1.609375 -1.890625 1.609375 -5.765625q0 -4.25 -1.640625 -6.234375q-1.640625 -2.0 -4.046875 -2.0q-2.34375 0 -3.921875 1.921875q-1.5625 1.90625 -1.5625 6.015625z" fill-rule="nonzero"/><path fill="#000000" d="m918.05774 343.68347l-2.34375 0l0 -14.921875q-0.859375 0.796875 -2.234375 1.609375q-1.359375 0.796875 -2.453125 1.203125l0 -2.265625q1.96875 -0.921875 3.4375 -2.234375q1.46875 -1.3125 2.078125 -2.546875l1.515625 0l0 19.15625z" fill-rule="nonzero"/><path fill="#000000" fill-opacity="0.0" d="m680.5324 97.86483l133.42236 0l0 67.865944l-133.42236 0z" fill-rule="evenodd"/><path fill="#000000" d="m692.17303 145.26483l0 -20.750008l3.140625 0l0 2.921875q0.984375 -1.53125 2.59375 -2.453125q1.625 -0.9375 3.703125 -0.9375q2.296875 0 3.765625 0.96875q1.484375 0.953125 2.09375 2.671875q2.453125 -3.640625 6.40625 -3.640625q3.078125 0 4.734375 1.71875q1.671875 1.703125 1.671875 5.2656326l0 14.234375l-3.5 0l0 -13.0625q0 -2.109375 -0.34375 -3.03125q-0.34375 -0.9375 -1.25 -1.5000076q-0.890625 -0.578125 -2.09375 -0.578125q-2.1875 0 -3.640625 1.4687576q-1.4375 1.453125 -1.4375 4.65625l0 12.046875l-3.515625 0l0 -13.484375q0 -2.34375 -0.859375 -3.515625q-0.859375 -1.1718826 -2.8125 -1.1718826q-1.484375 0 -2.75 0.78125q-1.265625 0.7812576 -1.828125 2.2968826q-0.5625 1.5 -0.5625 4.328125l0 10.765625l-3.515625 0z" fill-rule="nonzero"/><path fill="#000000" d="m736.2746 158.01483l0 2.25l-12.609375 0q-0.03125 -0.84375 0.265625 -1.625q0.484375 -1.296875 1.546875 -2.546875q1.0625 -1.25 3.0625 -2.875q3.109375 -2.5625 4.203125 -4.046875q1.09375 -1.5 1.09375 -2.8125q0 -1.40625 -1.0 -2.359375q-0.984375 -0.953125 -2.59375 -0.953125q-1.6875 0 -2.703125 1.015625q-1.015625 1.015625 -1.03125 2.8125l-2.40625 -0.25q0.25 -2.6875 1.859375 -4.09375q1.609375 -1.421875 4.328125 -1.421875q2.75 0 4.34375 1.53125q1.609375 1.515625 1.609375 3.765625q0 1.140625 -0.46875 2.25q-0.46875 1.109375 -1.5625 2.328125q-1.078125 1.21875 -3.609375 3.359375q-2.09375 1.765625 -2.703125 2.40625q-0.59375 0.625 -0.984375 1.265625l9.359375 0z" fill-rule="nonzero"/><path fill="#000000" d="m741.2402 145.26483l0 -4.0l4.0 0l0 4.0q0 2.203125 -0.78125 3.5625q-0.78125 1.359375 -2.484375 2.109375l-0.96875 -1.515625q1.109375 -0.484375 1.625 -1.4375q0.53125 -0.9375 0.59375 -2.71875l-1.984375 0zm21.804688 -28.640633l18.515625 0l0 3.390625l-14.71875 0l0 25.250008l-3.796875 0l0 -28.640633z" fill-rule="nonzero"/><path fill="#000000" d="m794.98627 158.01483l0 2.25l-12.609375 0q-0.03125 -0.84375 0.265625 -1.625q0.484375 -1.296875 1.546875 -2.546875q1.0625 -1.25 3.0625 -2.875q3.109375 -2.5625 4.203125 -4.046875q1.09375 -1.5 1.09375 -2.8125q0 -1.40625 -1.0 -2.359375q-0.984375 -0.953125 -2.59375 -0.953125q-1.6875 0 -2.703125 1.015625q-1.015625 1.015625 -1.03125 2.8125l-2.40625 -0.25q0.25 -2.6875 1.859375 -4.09375q1.609375 -1.421875 4.328125 -1.421875q2.75 0 4.34375 1.53125q1.609375 1.515625 1.609375 3.765625q0 1.140625 -0.46875 2.25q-0.46875 1.109375 -1.5625 2.328125q-1.078125 1.21875 -3.609375 3.359375q-2.09375 1.765625 -2.703125 2.40625q-0.59375 0.625 -0.984375 1.265625l9.359375 0z" fill-rule="nonzero"/><path fill="#000000" fill-opacity="0.0" d="m480.0 250.10982c3.0028992 -1.7135925 12.185913 -10.159058 18.017456 -10.281601c5.8315125 -0.122543335 11.401367 9.587173 16.97168 9.546326c5.5702515 -0.04084778 11.05365 -9.750778 16.450073 -9.791412c5.3964233 -0.040649414 10.706177 9.465851 15.928528 9.547546c5.222351 0.08169556 10.444458 -8.9756775 15.405579 -9.057373c4.9611816 -0.08169556 9.617676 8.771225 14.361206 8.567184c4.743469 -0.20404053 9.747742 -9.913757 14.09967 -9.791412c4.3519897 0.12234497 7.3119507 10.68866 12.012085 10.525467c4.7001343 -0.16319275 10.8793335 -11.423111 16.18866 -11.504608c5.309265 -0.08149719 13.055847 9.179703 15.667053 11.0156555" fill-rule="evenodd"/><path stroke="#000000" stroke-width="4.0" stroke-linejoin="round" stroke-linecap="butt" d="m480.0 250.10982c3.0028992 -1.7135925 12.185913 -10.159058 18.017456 -10.281601c5.8315125 -0.122543335 11.401367 9.587173 16.97168 9.546326c5.5702515 -0.04084778 11.05365 -9.750778 16.450073 -9.791412c5.3964233 -0.040649414 10.706177 9.465851 15.928528 9.547546c5.222351 0.08169556 10.444458 -8.9756775 15.405579 -9.057373c4.9611816 -0.08169556 9.617676 8.771225 14.361206 8.567184c4.743469 -0.20404053 9.747742 -9.913757 14.09967 -9.791412c4.3519897 0.12234497 7.3119507 10.68866 12.012085 10.525467c4.7001343 -0.16319275 10.8793335 -11.423111 16.18866 -11.504608c5.309265 -0.08149719 13.055847 9.179703 15.667053 11.0156555" fill-rule="evenodd"/></g></svg>