<svg width="2e3" height="540" fill="none" stroke-linecap="square" stroke-miterlimit="10" version="1.1" viewBox="0 0 2e3 540" xmlns="http://www.w3.org/2000/svg"><clipPath id="a"><path d="m0 0h960v540h-960z"/></clipPath><g transform="translate(520)" clip-path="url(#a)"><g fill-rule="evenodd"><path d="m312.99 270c0-93.958 77.106-170.13 172.22-170.13 45.676 0 89.481 17.924 121.78 49.829 32.298 31.905 50.442 75.177 50.442 120.3 0 93.958-77.106 170.13-172.22 170.13-95.115 0-172.22-76.168-172.22-170.13z" fill="#fff"/><path d="m312.99 270c0-93.958 77.106-170.13 172.22-170.13 45.676 0 89.481 17.924 121.78 49.829 32.298 31.905 50.442 75.177 50.442 120.3 0 93.958-77.106 170.13-172.22 170.13-95.115 0-172.22-76.168-172.22-170.13z" stroke="#000" stroke-linecap="butt" stroke-linejoin="round" stroke-width="4"/><path d="M 363.43,391.24 0.82,539.18" fill="#000" fill-opacity="0"/><path d="M 363.43,391.24 0.82,539.18" stroke="#000" stroke-linecap="butt" stroke-linejoin="round" stroke-width="4"/><path d="M 363.43,150.07 0,-0.8" fill="#000" fill-opacity="0"/><path d="M 363.43,150.07 0,-0.8" stroke="#000" stroke-linecap="butt" stroke-linejoin="round" stroke-width="4"/><path d="m960 0.6676-353.01 149.39" fill="#000" fill-opacity="0"/><path d="m960 0.6676-353.01 149.39" stroke="#000" stroke-linecap="butt" stroke-linejoin="round" stroke-width="4"/><path d="m958.08 537.57-351.09-146.33" fill="#000" fill-opacity="0"/><path d="m958.08 537.57-351.09-146.33" stroke="#000" stroke-linecap="butt" stroke-linejoin="round" stroke-width="4"/></g><g fill="#000"><path d="m31.131 32h52.756v67.874h-52.756z" fill-opacity="0" fill-rule="evenodd"/><path d="m58.889 72.743q-2.9296 2.4843-5.6484 3.5157-2.6954 1.0312-5.8125 1.0312-5.1093 0-7.875-2.5078-2.7422-2.5078-2.7422-6.3984 0-2.2968 1.0312-4.1718 1.0312-1.8984 2.7188-3.0234 1.6875-1.1484 3.7968-1.7343 1.5468-0.42188 4.6875-0.79688 6.3984-0.77343 9.3984-1.8282 0.04687-1.0781 0.04687-1.3594 0-3.2343-1.5-4.5468-2.0157-1.7812-6-1.7812-3.7266 0-5.5078 1.3125-1.7578 1.2891-2.625 4.5938l-5.1562-0.70312q0.70312-3.3046 2.3204-5.3438t4.6641-3.1407 7.0546-1.1016q3.9843 0 6.4688 0.9375 2.5078 0.9375 3.6796 2.3672t1.6407 3.5859q0.25782 1.3594 0.25782 4.875v7.0312q0 7.3359 0.32812 9.3046 0.35157 1.9454 1.3359 3.7266h-5.5078q-0.82032-1.6407-1.0547-3.8438zm-0.44532-11.766q-2.8593 1.1719-8.6016 1.9922-3.2578 0.46875-4.6172 1.0547-1.3359 0.58593-2.0625 1.7109t-0.72657 2.5078q0 2.1093 1.5938 3.5157t4.6641 1.4062q3.0468 0 5.4141-1.3359 2.3907-1.3359 3.4922-3.6562 0.84375-1.7812 0.84375-5.2734z" stroke-width="1.5"/><path d="m30.722 440.13h39.433v67.874h-39.433z" fill-opacity="0" fill-rule="evenodd"/><path d="m42.726 486.57h-4.875v-42.962h5.2734v15.328q3.3282-4.1954 8.5078-4.1954 2.8828 0 5.4375 1.1719 2.5782 1.1484 4.2188 3.2578 1.6641 2.0859 2.6016 5.0391t0.9375 6.3282q0 7.9922-3.9609 12.375-3.9609 4.3593-9.4922 4.3593-5.5078 0-8.6484-4.5938zm-0.04687-15.796q0 5.6016 1.5234 8.0859 2.4843 4.0782 6.7266 4.0782 3.4688 0 5.9766-3 2.5312-3 2.5312-8.9532 0-6.0938-2.4141-9t-5.8593-2.9062-5.9766 3.0234q-2.5078 3-2.5078 8.6718z" stroke-width="1.5"/><path d="m871.32 32.696h52.756v67.874h-52.756z" fill-opacity="0" fill-rule="evenodd"/><path d="m899.28 73.893 5.1796 0.65625q-0.84375 5.3672-4.3593 8.4141-3.4922 3.0234-8.5782 3.0234-6.3984 0-10.289-4.1718-3.8671-4.1718-3.8671-11.977 0-5.0391 1.6641-8.8125 1.6875-3.7734 5.0859-5.6718 3.4218-1.8984 7.4296-1.8984 5.0625 0 8.2734 2.5782 3.2343 2.5546 4.1484 7.2657l-5.1329 0.79688q-0.72655-3.1407-2.6016-4.7109-1.8516-1.5938-4.4766-1.5938-3.9843 0-6.4922 2.8593-2.4843 2.8593-2.4843 9.0468 0 6.2578 2.3907 9.1172 2.4141 2.8359 6.2812 2.8359 3.1172 0 5.1796-1.8984 2.0859-1.9218 2.6484-5.8593z" stroke-width="1.5"/><path d="m866.35 432.13h52.756v67.874h-52.756z" fill-opacity="0" fill-rule="evenodd"/><path d="m894.31 486.57v-3.9375q-2.9532 4.6407-8.6954 4.6407-3.7266 0-6.8438-2.0391-3.1172-2.0625-4.8282-5.7422-1.7109-3.6796-1.7109-8.4609 0-4.6407 1.5468-8.4375 1.5468-3.7968 4.6407-5.8125 3.1172-2.0391 6.9609-2.0391 2.8125 0 4.9922 1.1953 2.2032 1.1953 3.5859 3.0938v-15.422h5.25v42.962zm-16.664-15.538q0 5.9766 2.5078 8.9532 2.5312 2.9532 5.9532 2.9532 3.4688 0 5.8828-2.8125 2.4141-2.8359 2.4141-8.6484 0-6.375-2.4609-9.3516-2.4609-3-6.0704-3-3.5157 0-5.8828 2.8828-2.3438 2.8593-2.3438 9.0234z" stroke-width="1.5"/><path d="m504.94 28.341h166.83v67.874h-166.83z" fill-opacity="0" fill-rule="evenodd"/><g transform="matrix(1.5 0 0 1.5 -284.02 -40.542)"><path d="m516.58 75.741v-20.75h3.1406v2.9219q0.98438-1.5312 2.5938-2.4531 1.625-0.9375 3.7031-0.9375 2.2969 0 3.7656 0.96875 1.4844 0.95312 2.0938 2.6719 2.4531-3.6406 6.4062-3.6406 3.0781 0 4.7344 1.7188 1.6719 1.7031 1.6719 5.2656v14.234h-3.5v-13.062q0-2.1094-0.34375-3.0312-0.34375-0.9375-1.25-1.5-0.89062-0.57812-2.0938-0.57812-2.1875 0-3.6406 1.4688-1.4375 1.4531-1.4375 4.6562v12.047h-3.5156v-13.484q0-2.3438-0.85937-3.5156-0.85938-1.1719-2.8125-1.1719-1.4844 0-2.75 0.78125t-1.8281 2.2969q-0.5625 1.5-0.5625 4.3281v10.766z"/><path d="m548.37 81.335q0-3.3906 0.6875-5.4531 0.70313-2.0625 2.0781-3.1719 1.375-1.125 3.4531-1.125 1.5312 0 2.6875 0.625 1.1719 0.60938 1.9219 1.7812 0.75 1.1562 1.1719 2.8281 0.4375 1.6719 0.4375 4.5156 0 3.3594-0.6875 5.4219t-2.0625 3.1875-3.4688 1.125q-2.7656 0-4.3281-1.9844-1.8906-2.375-1.8906-7.75zm2.4062 0q0 4.6875 1.0938 6.25 1.1094 1.5625 2.7188 1.5625t2.7031-1.5625q1.1094-1.5625 1.1094-6.25 0-4.7188-1.1094-6.2656-1.0938-1.5469-2.7344-1.5469-1.6094 0-2.5781 1.3594-1.2031 1.75-1.2031 6.4531z"/><path d="m565.64 75.741v-4h4v4q0 2.2031-0.78125 3.5625t-2.4844 2.1094l-0.96875-1.5156q1.1094-0.48438 1.625-1.4375 0.53125-0.9375 0.59375-2.7188zm21.805-28.641h18.516v3.3906h-14.719v25.25h-3.7969z"/><path d="m607.08 81.335q0-3.3906 0.6875-5.4531 0.70312-2.0625 2.0781-3.1719 1.375-1.125 3.4531-1.125 1.5312 0 2.6875 0.625 1.1719 0.60938 1.9219 1.7812 0.75 1.1562 1.1719 2.8281 0.4375 1.6719 0.4375 4.5156 0 3.3594-0.6875 5.4219t-2.0625 3.1875-3.4688 1.125q-2.7656 0-4.3281-1.9844-1.8906-2.375-1.8906-7.75zm2.4062 0q0 4.6875 1.0938 6.25 1.1094 1.5625 2.7188 1.5625t2.7031-1.5625q1.1094-1.5625 1.1094-6.25 0-4.7188-1.1094-6.2656-1.0938-1.5469-2.7344-1.5469-1.6094 0-2.5781 1.3594-1.2031 1.75-1.2031 6.4531z"/></g></g></g></svg>
