<svg width="960" height="540" fill="none" stroke-linecap="square" stroke-miterlimit="10" version="1.1" viewBox="0 0 960 540" xmlns="http://www.w3.org/2000/svg"><clipPath id="a"><path d="m0 0h960v540h-960z"/></clipPath><g clip-path="url(#a)"><g fill-rule="evenodd"><path d="m312.99 270c0-93.958 77.106-170.13 172.22-170.13 45.676 0 89.481 17.924 121.78 49.829 32.298 31.905 50.442 75.177 50.442 120.3 0 93.958-77.106 170.13-172.22 170.13-95.115 0-172.22-76.168-172.22-170.13z" fill="#fff"/><path d="m312.99 270c0-93.958 77.106-170.13 172.22-170.13 45.676 0 89.481 17.924 121.78 49.829 32.298 31.905 50.442 75.177 50.442 120.3 0 93.958-77.106 170.13-172.22 170.13-95.115 0-172.22-76.168-172.22-170.13z" stroke="#000" stroke-linecap="butt" stroke-linejoin="round" stroke-width="4"/><path d="m363.43 391.24-362.61 147.94" fill="#000" fill-opacity="0"/><path d="m363.43 391.24-362.61 147.94" stroke="#000" stroke-linecap="butt" stroke-linejoin="round" stroke-width="4"/><path d="m363.43 150.07-363.43-150.87" fill="#000" fill-opacity="0"/><path d="m363.43 150.07-363.43-150.87" stroke="#000" stroke-linecap="butt" stroke-linejoin="round" stroke-width="4"/><path d="m960 0.6676-353.01 149.39" fill="#000" fill-opacity="0"/><path d="m960 0.6676-353.01 149.39" stroke="#000" stroke-linecap="butt" stroke-linejoin="round" stroke-width="4"/><path d="m958.08 537.57-351.09-146.33" fill="#000" fill-opacity="0"/><path d="m958.08 537.57-351.09-146.33" stroke="#000" stroke-linecap="butt" stroke-linejoin="round" stroke-width="4"/></g><g fill="#000"><path d="m31.131 32h52.756v67.874h-52.756z" fill-opacity="0" fill-rule="evenodd"/><path d="m56.303 76.837q-1.9531 1.6562-3.7656 2.3438-1.7969 0.6875-3.875 0.6875-3.4062 0-5.25-1.6719-1.8281-1.6719-1.8281-4.2656 0-1.5312 0.6875-2.7812 0.6875-1.2656 1.8125-2.0156 1.125-0.76562 2.5312-1.1562 1.0312-0.28125 3.125-0.53125 4.2656-0.51562 6.2656-1.2188 0.03125-0.71875 0.03125-0.90625 0-2.1562-1-3.0312-1.3438-1.1875-4-1.1875-2.4844 0-3.6719 0.875-1.1719 0.85938-1.75 3.0625l-3.4375-0.46875q0.46875-2.2031 1.5469-3.5625t3.1094-2.0938 4.7031-0.73438q2.6562 0 4.3125 0.625 1.6719 0.625 2.4531 1.5781t1.0938 2.3906q0.17188 0.90625 0.17188 3.25v4.6875q0 4.8906 0.21875 6.2031 0.23438 1.2969 0.89062 2.4844h-3.6719q-0.54688-1.0938-0.70312-2.5625zm-0.29688-7.8438q-1.9062 0.78125-5.7344 1.3281-2.1719 0.3125-3.0781 0.70312-0.89062 0.39062-1.375 1.1406t-0.48438 1.6719q0 1.4062 1.0625 2.3438t3.1094 0.9375q2.0312 0 3.6094-0.89062 1.5938-0.89062 2.3281-2.4375 0.5625-1.1875 0.5625-3.5156z"/><path d="m30.722 440.13h39.433v67.874h-39.433z" fill-opacity="0" fill-rule="evenodd"/><path d="m45.597 487.53h-3.25v-28.641h3.5156v10.219q2.2188-2.7969 5.6719-2.7969 1.9219 0 3.625 0.78125 1.7188 0.76562 2.8125 2.1719 1.1094 1.3906 1.7344 3.3594t0.625 4.2188q0 5.3281-2.6406 8.25-2.6406 2.9062-6.3281 2.9062-3.6719 0-5.7656-3.0625zm-0.03125-10.531q0 3.7344 1.0156 5.3906 1.6562 2.7188 4.4844 2.7188 2.3125 0 3.9844-2 1.6875-2 1.6875-5.9688 0-4.0625-1.6094-6t-3.9062-1.9375-3.9844 2.0156q-1.6719 2-1.6719 5.7812z"/><path d="m871.32 40.696h52.756v67.874h-52.756z" fill-opacity="0" fill-rule="evenodd"/><path d="m896.49 80.502 3.4531 0.4375q-0.5625 3.5781-2.9062 5.6094-2.3281 2.0156-5.7188 2.0156-4.2656 0-6.8594-2.7812-2.5781-2.7812-2.5781-7.9844 0-3.3594 1.1094-5.875 1.125-2.5156 3.3906-3.7812 2.2812-1.2656 4.9531-1.2656 3.375 0 5.5156 1.7188 2.1562 1.7031 2.7656 4.8438l-3.4219 0.53125q-0.48437-2.0938-1.7344-3.1406-1.2344-1.0625-2.9844-1.0625-2.6562 0-4.3281 1.9062-1.6562 1.9062-1.6562 6.0312 0 4.1719 1.5938 6.0781 1.6094 1.8906 4.1875 1.8906 2.0781 0 3.4531-1.2656 1.3906-1.2812 1.7656-3.9062z"/><path d="m866.35 440.13h52.756v67.874h-52.756z" fill-opacity="0" fill-rule="evenodd"/><path d="m891.45 487.53v-2.625q-1.9688 3.0938-5.7969 3.0938-2.4844 0-4.5625-1.3594-2.0781-1.375-3.2188-3.8281-1.1406-2.4531-1.1406-5.6406 0-3.0938 1.0312-5.625t3.0938-3.875q2.0781-1.3594 4.6406-1.3594 1.875 0 3.3281 0.79687 1.4688 0.79688 2.3906 2.0625v-10.281h3.5v28.641zm-11.109-10.359q0 3.9844 1.6719 5.9688 1.6875 1.9688 3.9688 1.9688 2.3125 0 3.9219-1.875 1.6094-1.8906 1.6094-5.7656 0-4.25-1.6406-6.2344-1.6406-2-4.0469-2-2.3438 0-3.9219 1.9219-1.5625 1.9062-1.5625 6.0156z"/><path d="m504.94 28.341h166.83v67.874h-166.83z" fill-opacity="0" fill-rule="evenodd"/><g><path d="m516.58 75.741v-20.75h3.1406v2.9219q0.98438-1.5312 2.5938-2.4531 1.625-0.9375 3.7031-0.9375 2.2969 0 3.7656 0.96875 1.4844 0.95312 2.0938 2.6719 2.4531-3.6406 6.4062-3.6406 3.0781 0 4.7344 1.7188 1.6719 1.7031 1.6719 5.2656v14.234h-3.5v-13.062q0-2.1094-0.34375-3.0312-0.34375-0.9375-1.25-1.5-0.89062-0.57812-2.0938-0.57812-2.1875 0-3.6406 1.4688-1.4375 1.4531-1.4375 4.6562v12.047h-3.5156v-13.484q0-2.3438-0.85937-3.5156-0.85938-1.1719-2.8125-1.1719-1.4844 0-2.75 0.78125-1.2656 0.78125-1.8281 2.2969-0.5625 1.5-0.5625 4.3281v10.766z"/><path d="m548.37 81.335q0-3.3906 0.6875-5.4531 0.70313-2.0625 2.0781-3.1719 1.375-1.125 3.4531-1.125 1.5312 0 2.6875 0.625 1.1719 0.60938 1.9219 1.7812 0.75 1.1562 1.1719 2.8281 0.4375 1.6719 0.4375 4.5156 0 3.3594-0.6875 5.4219t-2.0625 3.1875-3.4688 1.125q-2.7656 0-4.3281-1.9844-1.8906-2.375-1.8906-7.75zm2.4062 0q0 4.6875 1.0938 6.25 1.1094 1.5625 2.7188 1.5625 1.6094 0 2.7031-1.5625 1.1094-1.5625 1.1094-6.25 0-4.7188-1.1094-6.2656-1.0938-1.5469-2.7344-1.5469-1.6094 0-2.5781 1.3594-1.2031 1.75-1.2031 6.4531z"/><path d="m565.64 75.741v-4h4v4q0 2.2031-0.78125 3.5625t-2.4844 2.1094l-0.96875-1.5156q1.1094-0.48438 1.625-1.4375 0.53125-0.9375 0.59375-2.7188zm21.805-28.641h18.516v3.3906h-14.719v25.25h-3.7969z"/><path d="m607.08 81.335q0-3.3906 0.6875-5.4531 0.70312-2.0625 2.0781-3.1719 1.375-1.125 3.4531-1.125 1.5312 0 2.6875 0.625 1.1719 0.60938 1.9219 1.7812 0.75 1.1562 1.1719 2.8281 0.4375 1.6719 0.4375 4.5156 0 3.3594-0.6875 5.4219t-2.0625 3.1875-3.4688 1.125q-2.7656 0-4.3281-1.9844-1.8906-2.375-1.8906-7.75zm2.4062 0q0 4.6875 1.0938 6.25 1.1094 1.5625 2.7188 1.5625 1.6094 0 2.7031-1.5625 1.1094-1.5625 1.1094-6.25 0-4.7188-1.1094-6.2656-1.0938-1.5469-2.7344-1.5469-1.6094 0-2.5781 1.3594-1.2031 1.75-1.2031 6.4531z"/></g></g></g></svg>
