<svg width="980" height="320" fill="none" stroke-linecap="square" stroke-miterlimit="10" version="1.1" viewBox="0 0 980 320" xmlns="http://www.w3.org/2000/svg"><clipPath id="a"><path d="m0 0h960v540h-960z"/></clipPath><g transform="translate(0 -80.293)" clip-path="url(#a)"><g transform="translate(11.179)"><g transform="translate(0 19.257)"><g fill-rule="evenodd"><path d="m155.1 234.98c0-43.869 38.468-79.432 85.921-79.432s85.921 35.563 85.921 79.432-38.468 79.432-85.921 79.432-85.921-35.563-85.921-79.432z" fill="#fff"/><path d="m155.1 234.98c0-43.869 38.468-79.432 85.921-79.432s85.921 35.563 85.921 79.432-38.468 79.432-85.921 79.432-85.921-35.563-85.921-79.432z" stroke="#000" stroke-linecap="butt" stroke-linejoin="round" stroke-width="4"/><path d="m477.9 109.23-176.12 69.748" fill="#000" fill-opacity="0"/><path d="m477.9 109.23-176.12 69.748" stroke="#000" stroke-linecap="butt" stroke-linejoin="round" stroke-width="4"/><path d="m476.94 359.91-175.16-68.322" fill="#000" fill-opacity="0"/><path d="m476.94 359.91-175.16-68.322" stroke="#000" stroke-linecap="butt" stroke-linejoin="round" stroke-width="4"/></g><g fill="#000"><path d="m396.87 127.92h63.105v67.866h-63.105z" fill-opacity="0" fill-rule="evenodd"/><path d="m422.05 167.73 3.4531 0.4375q-0.5625 3.5781-2.9062 5.6094-2.3281 2.0156-5.7188 2.0156-4.2656 0-6.8594-2.7812-2.5781-2.7812-2.5781-7.9844 0-3.3594 1.1094-5.875 1.125-2.5156 3.3906-3.7812 2.2812-1.2656 4.9531-1.2656 3.375 0 5.5156 1.7188 2.1562 1.7031 2.7656 4.8438l-3.4219 0.53125q-0.48438-2.0938-1.7344-3.1406-1.2344-1.0625-2.9844-1.0625-2.6562 0-4.3281 1.9062-1.6562 1.9062-1.6562 6.0312 0 4.1719 1.5938 6.0781 1.6094 1.8906 4.1875 1.8906 2.0781 0 3.4531-1.2656 1.3906-1.2812 1.7656-3.9062z"/><path d="m435.81 190.32h-2.3438v-14.922q-0.85938 0.79688-2.2344 1.6094-1.3594 0.79687-2.4531 1.2031v-2.2656q1.9688-0.92188 3.4375-2.2344t2.0781-2.5469h1.5156z"/><path d="m396.87 263.71h68.463v67.866h-68.463z" fill-opacity="0" fill-rule="evenodd"/><path d="m421.97 311.11v-2.625q-1.9688 3.0938-5.7969 3.0938-2.4844 0-4.5625-1.3594-2.0781-1.375-3.2188-3.8281-1.1406-2.4531-1.1406-5.6406 0-3.0938 1.0312-5.625t3.0938-3.875q2.0781-1.3594 4.6406-1.3594 1.875 0 3.3281 0.79688 1.4688 0.79687 2.3906 2.0625v-10.281h3.5v28.641zm-11.109-10.359q0 3.9844 1.6719 5.9688 1.6875 1.9688 3.9688 1.9688 2.3125 0 3.9219-1.875 1.6094-1.8906 1.6094-5.7656 0-4.25-1.6406-6.2344-1.6406-2-4.0469-2-2.3438 0-3.9219 1.9219-1.5625 1.9062-1.5625 6.0156z"/><path d="m438.06 326.11h-2.3438v-14.922q-0.85937 0.79687-2.2344 1.6094-1.3594 0.79688-2.4531 1.2031v-2.2656q1.9688-0.92187 3.4375-2.2344t2.0781-2.5469h1.5156z"/><path d="m200.53 80.293h133.42v67.866h-133.42z" fill-opacity="0" fill-rule="evenodd"/><path d="m212.17 127.69v-20.75h3.1406v2.9219q0.98438-1.5312 2.5938-2.4531 1.625-0.9375 3.7031-0.9375 2.2969 0 3.7656 0.96875 1.4844 0.95313 2.0938 2.6719 2.4531-3.6406 6.4062-3.6406 3.0781 0 4.7344 1.7188 1.6719 1.7031 1.6719 5.2656v14.234h-3.5v-13.062q0-2.1094-0.34375-3.0312-0.34375-0.9375-1.25-1.5-0.89062-0.57812-2.0938-0.57812-2.1875 0-3.6406 1.4688-1.4375 1.4531-1.4375 4.6562v12.047h-3.5156v-13.484q0-2.3438-0.85937-3.5156-0.85938-1.1719-2.8125-1.1719-1.4844 0-2.75 0.78125t-1.8281 2.2969q-0.5625 1.5-0.5625 4.3281v10.766z"/><path d="m252.79 142.69h-2.3438v-14.922q-0.85938 0.79687-2.2344 1.6094-1.3594 0.79688-2.4531 1.2031v-2.2656q1.9688-0.92187 3.4375-2.2344t2.0781-2.5469h1.5156z"/><path d="m261.24 127.69v-4h4v4q0 2.2031-0.78125 3.5625t-2.4844 2.1094l-0.96875-1.5156q1.1094-0.48437 1.625-1.4375 0.53125-0.9375 0.59375-2.7187zm21.805-28.641h18.516v3.3906h-14.719v25.25h-3.7969z"/><path d="m311.5 142.69h-2.3438v-14.922q-0.85937 0.79687-2.2344 1.6094-1.3594 0.79688-2.4531 1.2031v-2.2656q1.9688-0.92187 3.4375-2.2344t2.0781-2.5469h1.5156z"/><path d="m-2.6247e-6 232.54c3.0029-1.7136 12.186-10.159 18.017-10.282 5.8315-0.12256 11.401 9.5872 16.972 9.5463 5.5703-0.0408 11.054-9.7508 16.45-9.7914 5.3964-0.0406 10.706 9.4659 15.929 9.5476 5.2224 0.0817 10.444-8.9757 15.406-9.0574 4.9611-0.0817 9.6177 8.7712 14.361 8.5672 4.7435-0.20404 9.7477-9.9138 14.1-9.7914 4.352 0.12233 7.312 10.689 12.012 10.525 4.7001-0.16319 10.879-11.423 16.189-11.505 5.3093-0.0815 13.056 9.1797 15.667 11.016" fill-opacity="0" fill-rule="evenodd"/></g><path d="m-2.6247e-6 232.54c3.0029-1.7136 12.186-10.159 18.017-10.282 5.8315-0.12256 11.401 9.5872 16.972 9.5463 5.5703-0.0408 11.054-9.7508 16.45-9.7914 5.3964-0.0406 10.706 9.4659 15.929 9.5476 5.2224 0.0817 10.444-8.9757 15.406-9.0574 4.9611-0.0817 9.6177 8.7712 14.361 8.5672 4.7435-0.20404 9.7477-9.9138 14.1-9.7914 4.352 0.12233 7.312 10.689 12.012 10.525 4.7001-0.16319 10.879-11.423 16.189-11.505 5.3093-0.0815 13.056 9.1797 15.667 11.016" fill-rule="evenodd" stroke="#000" stroke-linecap="butt" stroke-linejoin="round" stroke-width="4"/></g><g transform="translate(0 1.685)"><g fill-rule="evenodd"><path d="m635.1 252.56c0-43.869 38.468-79.432 85.921-79.432s85.921 35.563 85.921 79.432-38.468 79.432-85.921 79.432-85.921-35.563-85.921-79.432z" fill="#fff"/><path d="m635.1 252.56c0-43.869 38.468-79.432 85.921-79.432s85.921 35.563 85.921 79.432-38.468 79.432-85.921 79.432-85.921-35.563-85.921-79.432z" stroke="#000" stroke-linecap="butt" stroke-linejoin="round" stroke-width="4"/><path d="m957.9 126.81-176.12 69.748" fill="#000" fill-opacity="0"/><path d="m957.9 126.81-176.12 69.748" stroke="#000" stroke-linecap="butt" stroke-linejoin="round" stroke-width="4"/><path d="m956.94 377.49-175.16-68.322" fill="#000" fill-opacity="0"/><path d="m956.94 377.49-175.16-68.322" stroke="#000" stroke-linecap="butt" stroke-linejoin="round" stroke-width="4"/></g><g fill="#000"><path d="m876.87 145.5h63.105v67.866h-63.105z" fill-opacity="0" fill-rule="evenodd"/><path d="m902.05 185.3 3.4531 0.4375q-0.5625 3.5781-2.9062 5.6094-2.3281 2.0156-5.7188 2.0156-4.2656 0-6.8594-2.7812-2.5781-2.7812-2.5781-7.9844 0-3.3594 1.1094-5.875 1.125-2.5156 3.3906-3.7812 2.2812-1.2656 4.9531-1.2656 3.375 0 5.5156 1.7188 2.1562 1.7031 2.7656 4.8438l-3.4219 0.53125q-0.48437-2.0938-1.7344-3.1406-1.2344-1.0625-2.9844-1.0625-2.6562 0-4.3281 1.9062-1.6562 1.9062-1.6562 6.0312 0 4.1719 1.5938 6.0781 1.6094 1.8906 4.1875 1.8906 2.0781 0 3.4531-1.2656 1.3906-1.2812 1.7656-3.9062z"/><path d="m915.81 207.9h-2.3438v-14.922q-0.85938 0.79688-2.2344 1.6094-1.3594 0.79687-2.4531 1.2031v-2.2656q1.9688-0.92188 3.4375-2.2344t2.0781-2.5469h1.5156z"/><path d="m876.87 281.28h68.463v67.866h-68.463z" fill-opacity="0" fill-rule="evenodd"/><path d="m901.97 328.68v-2.625q-1.9688 3.0938-5.7969 3.0938-2.4844 0-4.5625-1.3594-2.0781-1.375-3.2188-3.8281-1.1406-2.4531-1.1406-5.6406 0-3.0938 1.0312-5.625t3.0938-3.875q2.0781-1.3594 4.6406-1.3594 1.875 0 3.3281 0.79687 1.4688 0.79688 2.3906 2.0625v-10.281h3.5v28.641zm-11.109-10.359q0 3.9844 1.6719 5.9688 1.6875 1.9688 3.9688 1.9688 2.3125 0 3.9219-1.875 1.6094-1.8906 1.6094-5.7656 0-4.25-1.6406-6.2344-1.6406-2-4.0469-2-2.3438 0-3.9219 1.9219-1.5625 1.9062-1.5625 6.0156z"/><path d="m918.06 343.68h-2.3438v-14.922q-0.85938 0.79688-2.2344 1.6094-1.3594 0.79687-2.4531 1.2031v-2.2656q1.9688-0.92188 3.4375-2.2344t2.0781-2.5469h1.5156z"/><path d="m680.53 97.865h133.42v67.866h-133.42z" fill-opacity="0" fill-rule="evenodd"/><path d="m692.17 145.26v-20.75h3.1406v2.9219q0.98437-1.5312 2.5938-2.4531 1.625-0.9375 3.7031-0.9375 2.2969 0 3.7656 0.96875 1.4844 0.95313 2.0938 2.6719 2.4531-3.6406 6.4062-3.6406 3.0781 0 4.7344 1.7188 1.6719 1.7031 1.6719 5.2656v14.234h-3.5v-13.062q0-2.1094-0.34375-3.0312-0.34375-0.9375-1.25-1.5-0.89063-0.57812-2.0938-0.57812-2.1875 0-3.6406 1.4688-1.4375 1.4531-1.4375 4.6562v12.047h-3.5156v-13.484q0-2.3438-0.85938-3.5156-0.85937-1.1719-2.8125-1.1719-1.4844 0-2.75 0.78125t-1.8281 2.2969q-0.5625 1.5-0.5625 4.3281v10.766z"/><path d="m736.27 158.01v2.25h-12.609q-0.0312-0.84375 0.26563-1.625 0.48437-1.2969 1.5469-2.5469t3.0625-2.875q3.1094-2.5625 4.2031-4.0469 1.0938-1.5 1.0938-2.8125 0-1.4062-1-2.3594-0.98438-0.95312-2.5938-0.95312-1.6875 0-2.7031 1.0156t-1.0312 2.8125l-2.4062-0.25q0.25-2.6875 1.8594-4.0938 1.6094-1.4219 4.3281-1.4219 2.75 0 4.3438 1.5312 1.6094 1.5156 1.6094 3.7656 0 1.1406-0.46875 2.25t-1.5625 2.3281q-1.0781 1.2188-3.6094 3.3594-2.0938 1.7656-2.7031 2.4062-0.59375 0.625-0.98438 1.2656z"/><path d="m741.24 145.26v-4h4v4q0 2.2031-0.78125 3.5625t-2.4844 2.1094l-0.96875-1.5156q1.1094-0.48438 1.625-1.4375 0.53125-0.9375 0.59375-2.7188zm21.805-28.641h18.516v3.3906h-14.719v25.25h-3.7969z"/><path d="m794.99 158.01v2.25h-12.609q-0.0312-0.84375 0.26563-1.625 0.48437-1.2969 1.5469-2.5469t3.0625-2.875q3.1094-2.5625 4.2031-4.0469 1.0938-1.5 1.0938-2.8125 0-1.4062-1-2.3594-0.98438-0.95312-2.5938-0.95312-1.6875 0-2.7031 1.0156t-1.0312 2.8125l-2.4062-0.25q0.25-2.6875 1.8594-4.0938 1.6094-1.4219 4.3281-1.4219 2.75 0 4.3438 1.5312 1.6094 1.5156 1.6094 3.7656 0 1.1406-0.46875 2.25t-1.5625 2.3281q-1.0781 1.2188-3.6094 3.3594-2.0938 1.7656-2.7031 2.4062-0.59375 0.625-0.98438 1.2656z"/><path d="m480 250.11c3.0029-1.7136 12.186-10.159 18.017-10.282 5.8315-0.12254 11.401 9.5872 16.972 9.5463 5.5702-0.0408 11.054-9.7508 16.45-9.7914 5.3964-0.0406 10.706 9.4658 15.929 9.5476s10.444-8.9757 15.406-9.0574c4.9612-0.0817 9.6177 8.7712 14.361 8.5672 4.7435-0.20404 9.7477-9.9138 14.1-9.7914 4.352 0.12234 7.312 10.689 12.012 10.525 4.7001-0.16319 10.879-11.423 16.189-11.505 5.3093-0.0815 13.056 9.1797 15.667 11.016" fill-opacity="0" fill-rule="evenodd"/></g><path d="m480 250.11c3.0029-1.7136 12.186-10.159 18.017-10.282 5.8315-0.12254 11.401 9.5872 16.972 9.5463 5.5702-0.0408 11.054-9.7508 16.45-9.7914 5.3964-0.0406 10.706 9.4658 15.929 9.5476s10.444-8.9757 15.406-9.0574c4.9612-0.0817 9.6177 8.7712 14.361 8.5672 4.7435-0.20404 9.7477-9.9138 14.1-9.7914 4.352 0.12234 7.312 10.689 12.012 10.525 4.7001-0.16319 10.879-11.423 16.189-11.505 5.3093-0.0815 13.056 9.1797 15.667 11.016" fill-rule="evenodd" stroke="#000" stroke-linecap="butt" stroke-linejoin="round" stroke-width="4"/></g></g></g></svg>
