<svg width="1541" height="448" version="1.1" viewBox="0 0 1541 448" xmlns="http://www.w3.org/2000/svg"><g transform="translate(-2.8574 8.7201)"><g stroke-linecap="square" stroke-linejoin="bevel"><path d="m1179.3 319.07c-5.3804-2.3625-8.0355-12.861-9.7223-23.621-2.6143-16.676-8.6014-178.29-8.9877-230.47-0.063-8.5663 0.024-14.183 0.3023-15.726 1.2017-6.6654 4.1401-16.047 11.187-17.991 10.396-2.867 177.73-16.278 236.05-17.83 42.126-1.1208 53.921 6.3942 58.177 13.208 1.185 1.8976 2.7903 10.562 3.5672 19.255 2.037 22.79 5.0647 141.63 5.2801 198.27 0.1642 43.201-1.3841 53.431-3.9365 58.098-1.5748 2.8792-3.5953 5.6873-4.4901 6.2404-3.2614 2.0157-27.633 6.0904-103.24 10.074-91.571 4.8246-179.09 2.7379-184.18 0.49986z" fill="#b6a1c4" stroke-width="3.7254" style="paint-order:markers fill stroke"/><path d="m1323.3 224.97-9.0154-8.2009 24.155-0.081c13.285-0.0445 24.155 1.0767 24.155 2.4918 0 4.4787-15.744 13.991-23.158 13.991-4.0341 0-11.031-3.5556-16.137-8.2009z" fill="#f5b39a" stroke-width="6.2603" style="paint-order:markers fill stroke"/><path d="m824.03 318.44c-5.3804-2.3625-8.0355-12.861-9.7223-23.621-2.6142-16.676-8.6014-178.29-8.9877-230.47-0.0634-8.5663 0.0241-14.183 0.30227-15.726 1.2017-6.6654 4.1401-16.047 11.187-17.991 10.396-2.867 177.73-16.278 236.05-17.83 42.126-1.1208 53.921 6.3942 58.177 13.208 1.185 1.8976 2.7903 10.562 3.5672 19.255 2.037 22.79 5.0647 141.63 5.2801 198.27 0.1642 43.201-1.3841 53.431-3.9365 58.098-1.5748 2.8792-3.5953 5.6873-4.4901 6.2404-3.2614 2.0157-27.633 6.0904-103.24 10.074-91.571 4.8246-179.09 2.7379-184.18 0.49986z" fill="#a1b7c4" stroke-width="3.7254" style="paint-order:markers fill stroke"/><path d="m964.94 224.97-9.0154-8.2009 24.155-0.081c13.285-0.0445 24.155 1.0767 24.155 2.4918 0 4.4787-15.744 13.991-23.158 13.991-4.0341 0-11.031-3.5556-16.137-8.2009z" fill="#f5b39a" stroke-width="6.2603" style="paint-order:markers fill stroke"/><path d="m84.019 319.14c-5.3804-2.3625-8.0355-12.861-9.7223-23.621-3.0434-19.413-10.658-235.26-8.6854-246.2 1.2017-6.6654 4.1401-16.047 11.187-17.991 10.396-2.867 196.59-16.278 254.91-17.83 42.126-1.1208 53.921 6.3942 58.177 13.208 1.185 1.8976 2.7903 10.562 3.5672 19.255 2.037 22.79 5.0647 141.63 5.2801 198.27 0.16423 43.201-1.3841 53.431-3.9364 58.098-1.5748 2.8792-3.5953 5.6873-4.4901 6.2404-3.2614 2.0157-46.495 6.0904-122.1 10.074-91.571 4.8246-179.09 2.7379-184.18 0.49986z" fill="#deaa87" stroke-width="3.7254" style="paint-order:markers fill stroke"/><path d="m240.65 228.11-9.0154-8.2009 24.155-0.081c13.285-0.0445 24.155 1.0767 24.155 2.4918 0 4.4787-15.744 13.991-23.158 13.991-4.0341 0-11.031-3.5556-16.137-8.2009z" fill="#f5b39a" stroke-width="6.2603" style="paint-order:markers fill stroke"/><path d="m463.14 319.7c-5.3804-2.3625-8.0355-12.861-9.7223-23.621-2.6142-16.676-8.6014-178.29-8.9877-230.47-0.0634-8.5663 0.0241-14.183 0.30227-15.726 1.2017-6.6654 4.1401-16.047 11.187-17.991 10.396-2.867 177.73-16.278 236.05-17.83 42.126-1.1208 53.921 6.3942 58.177 13.208 1.185 1.8976 2.7903 10.562 3.5672 19.255 2.037 22.79 5.0647 141.63 5.2801 198.27 0.16423 43.201-1.3841 53.431-3.9364 58.098-1.5748 2.8792-3.5953 5.6873-4.4901 6.2404-3.2614 2.0157-27.633 6.0904-103.24 10.074-91.571 4.8246-179.09 2.7379-184.18 0.49986z" fill="#a1c4aa" stroke-width="3.7254" style="paint-order:markers fill stroke"/></g><path d="m170 421.36c-13.519-2.2054-28.871-11.605-33.58-20.561-3.2063-6.0982-2.175-8.4548 7.9828-18.241 15.507-14.94 21.613-26.94 21.582-42.414-8e-3 -4.2046-0.34592-8.0952-0.75-8.646-0.46198-0.62962-12.613-1.0275-32.735-1.0719-26.637-0.0588-33.341-0.36509-40-1.8279-14.736-3.2368-20.35-8.4-22.942-21.099-1.1252-5.5127-3.872-40.266-5.7499-72.75-0.11923-2.0625-0.46231-3.749-0.7624-3.7477-0.83222 4e-3 -5.8144 10.766-8.0431 17.374-1.09 3.232-2.4947 9.532-3.1215 14-1.1397 8.1236-1.1397 8.1236 2.4393 16.171 1.9685 4.4262 4.1196 10.069 4.7803 12.539 1.5904 5.9464 0.50448 11.747-2.4058 12.852-2.7454 1.0418-4.0252 0.358-7.0806-3.7834-2.426-3.2882-2.426-3.2882-3.0698-0.35662-0.80641 3.6716-4.0162 7.2019-6.5481 7.2019-2.5587 0-3.9962-2.9214-3.9962-8.1214 0-4.2528 0-4.2528-2.75-1.7123-3.6442 3.3665-5.6742 3.9752-7.8797 2.3625-1.6569-1.2115-1.7139-1.8592-0.62195-7.065 0.66118-3.1522 3.2062-10.059 5.6556-15.348 3.1349-6.7693 4.7932-11.985 5.601-17.616 2.8032-19.542 11.097-38.432 21.844-49.752 3.5622-3.7524 3.5622-3.7524 1.2095-76-2.4802-76.162-2.4314-89.683 0.34693-96.234 3.4307-8.0894 10.535-12.945 21.139-14.449 9.4123-1.3344 70.442-5.0376 165.96-10.07 68.804-3.6251 77.533-3.9587 104.07-3.977 29.724-0.0205 33.861 0.6649 40.564 6.7203 8.573 7.7452 9.5718 12.578 10.854 52.522 2.2954 71.5 3.0139 95.869 3.0139 102.21 0 3.6836 0.39487 6.5474 0.87748 6.364 2.0158-0.76575 10.305-11.606 13.317-17.416 3.2481-6.2648 3.2481-6.2648 1.0267-13.162-2.6015-8.0773-2.8105-13.216-0.70322-17.291 3.3126-6.4059 10.848-3.7795 12.129 4.2272 0.33491 2.0944 0.8373 3.8079 1.1164 3.8079 0.27913 0 1.4591-1.0137 2.6222-2.2526s3.3149-3.1868 4.7818-4.3287c2.6671-2.0761 2.6671-2.0761 1.7936-22.497-1.6964-39.659-1.5809-60.771 0.36755-67.213 2.3081-7.6311 7.2206-13.022 14.27-15.659 6.1816-2.3128 22.542-3.627 93.902-7.5429 4.95-0.27163 16.425-0.93943 25.5-1.484 15.676-0.94064 58.708-3.4442 77-4.4798 28.399-1.6077 62.422-2.7022 74.5-2.3967 12.964 0.32798 14.426 0.56336 19.758 3.1818 13.446 6.6028 15.23 13.731 16.187 64.672 0.31505 16.775 0.81087 37.475 1.1018 46 1.3555 39.716 2.3656 158.99 1.4171 167.33-1.1287 9.9287-3.3895 15.309-8.8047 20.954-6.4099 6.6817-12.838 7.7272-69.41 11.29-5.3625 0.33775-9.75 0.71542-9.75 0.83926 0 0.12385 0.64824 2.4444 1.4405 5.1567 4.6134 15.793 4.0693 26.567-2.5139 49.773-2.1596 7.6131-3.9266 13.987-3.9266 14.164s5.166 0.47326 11.48 0.65809c10.792 0.31592 11.634 0.49076 14.06 2.9192 1.9547 1.9567 2.595 3.6404 2.6406 6.9432 0.11419 8.2744-5.7747 10.416-28.681 10.432-12.858 9e-3 -16.736-0.31971-19.748-1.6716-6.5704-2.9493-6.7115-4.6526-1.9562-23.609 7.3482-29.293 7.6061-42.09 1.092-54.172-5.6393-10.459-1.5018-9.549-37.135-8.1705-17.189 0.66497-35.303 1.4793-40.253 1.8097-9 0.60066-9 0.60066-9.1141 9.7282-0.20324 16.262-7.287 29.786-25.703 49.071-3.6467 3.8187-6.5298 7.0245-6.4068 7.1239 0.12296 0.0995 4.0367 1.8218 8.6972 3.8275 10.676 4.5944 15.026 8.5693 15.026 13.729 0 9.6613-14.779 11.56-30.035 3.8588-6.4031-3.2323-16.329-11.852-18.515-16.078-3.1529-6.0971-2.1791-8.4454 7.5273-18.152 15.266-15.266 21.025-26.478 20.931-40.752-0.0798-12.172 2.4284-11.144-26.945-11.038-34.586 0.1255-43.484-1.2536-52.104-8.0755-3.9774-3.1477-5.9929-7.3095-7.8148-16.137-0.93498-4.5302-1.584-5.75-3.0591-5.75-1.0298 0-2.5429-0.95732-3.3625-2.1274-1.4681-2.096-1.5124-2.0738-3.0057 1.5-2.6293 6.2929-7.3932 4.0439-9.1413-4.3155-0.71997-3.4428-0.71997-3.4428-2.6928-0.7345-8.2384 11.31-11.912-0.25494-5.4359-17.11 2.7258-7.0939 3.465-10.675 3.9792-19.279 0.94136-15.748 6.3218-32.749 13.808-43.63 3.2494-4.7228 3.2692-4.8247 3.0744-15.778-0.44864-25.227-1.454-40.525-2.6634-40.525-1.8165 0-4.5475 3.434-12.379 15.565-4.5917 7.1126-9.9861 13.831-15.103 18.811-7.9599 7.7461-7.9599 7.7461-8.2896 56.435-0.35493 52.409-0.26954 51.535-5.8355 59.727-2.9104 4.2836-9.7292 8.5682-16.439 10.33-6.9925 1.8357-69.793 6.6873-71.657 5.5357-1.7468-1.0796-1.8434 2.2103-0.27223 9.2724 2.692 12.1 1.572 29.263-2.9759 45.604-1.9562 7.0289-3.9968 13.602-4.5346 14.607-0.90788 1.6964-0.28139 1.8655 8.7575 2.3636 15.041 0.8288 19.65 3.6226 18.99 11.51-0.63508 7.5826-9.0052 9.898-32.671 9.0378-19.818-0.7204-23.133-3.2789-19.802-15.283 6.993-25.203 8.9801-46.162 5.4548-57.535-1.9817-6.3929-7.0711-14.526-10.107-16.15-1.9725-1.0557-34.918-0.21469-69.432 1.7724-10.25 0.5901-10.25 0.5901-10.265 7.2439-0.0406 18.267-8.3355 35.839-24.446 51.787-8.2161 8.133-8.2161 8.133-2.6276 10.391 11.893 4.8061 17.088 9.2654 17.088 14.667 0 3.7728-3.6464 8.2989-6.7046 8.3222-0.9875 8e-3 -2.6954 0.18044-3.7954 0.38428s-3.125 0.1871-4.5-0.0372zm348-14.686c0-0.17912-1.2375-1.4166-2.75-2.75-2.75-2.4243-2.75-2.4243-0.32569 0.32569 2.2659 2.5703 3.0757 3.2086 3.0757 2.4243zm-334-90.211c8.525-0.28514 19.325-0.72758 24-0.98321s17.95-0.92649 29.5-1.4908c20.39-0.9962 39.242-1.9709 77.5-4.0068 36.741-1.9552 65.399-4.1648 68.895-5.312 4.6492-1.5255 7.7364-7.0591 9.0645-16.248 1.2718-8.7995 1.3122-46.201 0.0922-85.435-0.52141-16.768-1.2031-41.512-1.5148-54.987-0.9779-42.272-2.5674-86.991-3.5698-100.43-1.1754-15.76-3.0436-20.527-9.3228-23.788-3.8659-2.008-5.4897-2.1445-24.145-2.0305-27.686 0.16916-76.374 2.519-141 6.8053-4.4 0.29183-13.4 0.96267-20 1.4908s-26.175 1.8637-43.5 2.968-33.875 2.2814-36.778 2.6157c-5.7463 0.66182-10.361 3.2729-13.63 7.7112-2.0012 2.7176-2.0815 3.8671-1.8521 26.5 0.55377 54.622 5.8059 194.48 8.3429 222.16 1.4979 16.343 5.1217 22.808 14.04 25.049 3.197 0.80334 29.577 0.56138 63.877-0.58587zm-50.912-33.87c-1.6716-1.7793-2.3649-3.9291-2.6609-8.25-0.68575-10.013-2.5876-50.928-2.6404-56.804-0.061-6.7938 1.9092-9.5396 6.8452-9.5396 5.1385 0 6.3205 2.7443 7.0507 16.37 0.3428 6.3966 0.92236 11.63 1.2879 11.63s4.4126-5.2063 8.9935-11.57c10.371-14.406 13.328-17.43 17.04-17.43 3.8064 0 7.2118 4.2116 6.364 7.8706-0.33508 1.4462-4.4288 7.7086-9.097 13.917-8.4878 11.287-8.4878 11.287-5.9172 15 3.3142 4.7869 9.7693 13.06 16.396 21.015 6.0611 7.2755 6.8555 11.341 2.9356 15.024-5.0381 4.7331-7.5559 2.9596-22.602-15.92-12.839-16.11-13.686-15.912-13.242 3.0975 0.29655 12.696 0.254 12.991-2.2245 15.47-3.1666 3.1666-5.6353 3.2014-8.5297 0.12044zm169.77-7.5033c-2.3608-1.9097-2.3608-1.9097-3.26-36.065-0.97931-37.196-1.1065-36.157 4.5989-37.555 4.2908-1.0515 7.7983 3.0971 7.8074 9.2345 0.0103 6.9594 1.1819 18.3 1.8875 18.27 0.33297-0.014 3.8585-4.6266 7.8346-10.25 10.785-15.253 14.263-18.974 17.736-18.974 3.3557 0 6.535 3.2756 6.535 6.7329 0 1.2437-2.8125 6.1395-6.25 10.879-10.417 14.363-10.751 14.878-10.732 16.536 0.01 0.88117 4.7875 7.6771 10.618 15.102 5.83 7.425 11.219 14.941 11.976 16.702 1.6145 3.7574 0.57799 7.5912-2.4973 9.237-5.0342 2.6942-6.803 1.2186-23.022-19.207-11.957-15.059-12.558-14.88-11.545 3.438 0.60844 11.002 0.47646 13.145-0.94287 15.311-2.0476 3.125-7.2674 3.4209-10.743 0.60907zm-52.019-29.065c-7.608-2.2983-17.282-11.781-21.96-21.525-3.4248-7.1344-3.7382-12.644-0.88181-15.5 2.4251-2.4251 3.1619-2.4502 10.068-0.34247 7.8231 2.3874 23.54 2.12 33.334-0.56718 4.1907-1.1497 8.729-2.0904 10.085-2.0904 6.5824 0 7.3285 11.936 1.437 22.989-6.88 12.908-20.974 20.392-32.084 17.036zm16.912-16.679c3.4499-3.6596 6.0728-6.8536 5.8287-7.0977-0.24406-0.24407-2.747 0.0502-5.562 0.65391-5.9408 1.2741-14.399 1.3315-21.52 0.14603-2.75-0.45782-5.1761-0.66742-5.3913-0.46578-0.75695 0.70926 7.2424 9.6604 10.299 11.524 1.7009 1.0372 4.6632 1.8875 6.5828 1.8895 3.0109 3e-3 4.3517-0.91012 9.7628-6.6502zm-64.335-37.315c-7.9791-3.2279-10.946-17.612-5.7121-27.697 2.0696-3.9881 7.2616-7.3341 11.38-7.3341 3.6437 0 9.067 3.8746 11.226 8.0199 2.5206 4.8403 1.8898 16.299-1.1699 21.25-3.3864 5.4793-10.226 7.9856-15.724 5.7615zm94.268-4.0724c-3.9441-1.1494-5.7249-2.8473-7.8226-7.4588-2.2954-5.0462-2.424-15.059-0.26258-20.461 1.859-4.6461 6.6356-8.0394 11.317-8.0394 8.2371 0 13.082 6.6392 13.082 17.926 0 13.151-6.8989 20.776-16.314 18.033zm-171.1-54.281c-2.75-2.75-3.1789-7.3976-4.1948-45.457-0.59864-22.427-0.51205-24.43 1.135-26.25 2.3843-2.6346 6.0454-2.4888 8.8881 0.35387 2.0911 2.0911 2.3974 3.5949 3.0552 15 0.40211 6.9717 1.0233 12.66 1.3804 12.64 0.35712-0.01949 5.1493-6.1364 10.649-13.593 13.212-17.912 15.925-19.947 20.5-15.371 3.9578 3.9578 1.8454 9.3449-9.1202 23.258-7.0128 8.8975-7.201 8.4135 11.9 30.585 5.8224 6.7583 6.3018 7.6696 6.0229 11.451-0.25435 3.4487-0.83512 4.4177-3.6188 6.0378-4.79 2.7879-6.526 1.6039-17.083-11.65-10.174-12.773-15.76-17.83-17.195-15.565-0.48194 0.76098-0.88316 7.3206-0.89158 14.577-0.0145 12.491-0.13358 13.276-2.2378 14.75-3.1528 2.2083-6.4952 1.9299-9.1907-0.7656zm170.28-5.5842c-2.2343-1.8092-2.3885-2.715-3.0224-17.75-1.0601-25.147-0.96352-53.253 0.19042-55.409 1.5271-2.8534 7.4546-2.6426 9.4053 0.33461 1.2548 1.915 3.3767 19.025 2.912 23.481-0.27951 2.6808 1.5012 0.87238 8.8619-9 13.579-18.212 16.913-20.623 21.786-15.75 3.7015 3.7015 2.6098 6.661-7.5623 20.5-2.8299 3.85-5.4685 8.0193-5.8637 9.2652-0.90388 2.8499 0.69052 5.4678 12.959 21.278 7.4756 9.6333 9.4668 12.878 9.4668 15.423 0 3.9738-2.6258 6.5339-6.7014 6.5339-3.4466 0-5.2838-1.8102-19.565-19.278-4.8216-5.8973-9.2091-10.722-9.75-10.722-0.59876 0-0.98339 5.6032-0.98339 14.326 0 13.682-0.10407 14.423-2.3144 16.5-2.8547 2.6819-6.7074 2.787-9.8184 0.2678zm-199.19 186.5c-1.9796-5.1587-5.2402-51.527-6.2302-88.598-0.27173-10.175-0.92788-26.15-1.4581-35.5-0.53024-9.35-1.421-31.4-1.9796-49-0.55852-17.6-1.4693-45.275-2.0239-61.5-1.0157-29.715-0.77951-33.571 2.5348-41.388 0.74349-1.7534 0.45253-1.8353-4.0962-1.1532-7.3567 1.1032-10.322 3.0581-12.662 8.3479-2.013 4.5507-2.0463 5.6348-1.3587 44.179 0.51854 29.065 2.9521 100.82 3.5544 104.8 0.02372 0.15685 0.96012-0.20557 2.0809-0.8054 2.7399-1.4664 5.358-0.48659 8.4183 3.1504 4.2905 5.099 2.8276 11.352-4.521 19.324-4.2174 4.5753-4.2174 4.5753-3.5518 19.31 1.3143 29.098 3.6305 62.831 4.6603 67.872 1.2425 6.0827 3.1557 8.0482 10.204 10.483 6.4046 2.2126 7.1143 2.2653 6.4284 0.47799zm505.32-1.0731c35.224-1.6189 76.959-3.8232 105.5-5.5721 35.654-2.1848 38.195-2.86 42.375-11.259 2.1905-4.4017 2.4147-6.3049 2.8843-24.483 0.28005-10.841-8.6e-4 -43.561-0.62425-72.711s-1.3818-65.375-1.6853-80.5c-0.83139-41.431-2.407-79.073-3.4742-83-1.4401-5.2993-4.5179-9.7013-8.1814-11.701-2.8509-1.5565-5.5149-1.7675-19.794-1.568-9.075 0.12682-26.85 0.70785-39.5 1.2912-22.492 1.0372-37.042 1.916-98 5.919-16.5 1.0835-41.65 2.699-55.89 3.5899-14.239 0.89089-28.315 2.0145-31.279 2.4968-8.1772 1.3309-12.28 4.8202-14.413 12.258-2.2822 7.9576 5.4048 249.17 8.1726 256.45 1.6116 4.2388 4.6809 7.8951 8.1273 9.6816 2.9654 1.5372 6.6087 1.6503 37.782 1.1727 18.975-0.29068 49.575-1.2214 68-2.0682zm17.381-78.419c-15.915-4.0758-29.607-21.881-22.383-29.105 2.7059-2.7059 6.9604-2.5161 11.419 0.50939 13.606 9.2334 22.247 8.8083 37.971-1.8684 4.676-3.175 4.663-3.1741 7.9756-0.5684 3.272 2.5737 3.4389 6.431 0.52545 12.142-2.8237 5.5349-11.339 13.879-16.891 16.55-5.0527 2.4312-13.914 3.5455-18.617 2.341zm-47.869-44.273c-8.296-6.5256-7.1365-26.326 1.8728-31.982 6.1248-3.8455 14.358-0.82786 17.675 6.4782 3.5841 7.894 2.0977 18.24-3.4686 24.142-2.9474 3.1251-3.9028 3.5302-8.3265 3.5302-3.6119 0-5.761-0.60094-7.7531-2.1679zm93.502-3.2261c-1.8304-0.60828-4.2194-2.3084-5.3088-3.778-4.2198-5.6926-4.0581-20.717 0.28866-26.821 3.7395-5.2516 13.143-5.8267 17.45-1.0672 6.1784 6.8271 5.7293 24.541-0.75834 29.91-2.6075 2.1577-8.0158 2.9719-11.671 1.757zm-143.62-46.942c-2.7156-2.3359-2.7156-2.3359-4.0384-34.75-1.2751-31.245-1.2553-32.504 0.5497-34.914 1.3887-1.8541 2.7085-2.4584 5.108-2.3389 5.4218 0.26994 6.2463 1.9991 7.1133 14.92 0.43049 6.415 0.9875 11.868 1.2378 12.119 0.25032 0.25031 4.6331-5.0922 9.7396-11.872s10.594-13.565 12.195-15.077c4.931-4.659 11.702-3.1912 11.695 2.5352-4e-3 3.7876-1.6635 6.6757-10.451 18.193-3.5998 4.718-6.5451 9.2015-6.5451 9.9634 0 1.4391 7.7784 12.101 17.419 23.875 4.2535 5.1953 5.5813 7.5968 5.5813 10.095 0 3.6181-2.11 6.0854-6.0433 7.0666-3.5406 0.88321-6.5397-1.7252-15.93-13.854-10.118-13.07-13.783-16.625-15.059-14.607-0.51554 0.81534-0.94425 7.2199-0.95267 14.232-0.0137 11.405-0.22632 12.961-2.0153 14.75-2.6548 2.6548-6.2743 2.5283-9.6041-0.33586zm-44.52 167.59c-0.90921-6.5979-3.1893-51.967-5.3146-105.75-1.6482-41.71-2.5561-82.414-2.855-128-0.17886-27.281-3e-3 -31.39 1.4701-34.25 1.6734-3.25 1.6734-3.25-2-3.228-2.0204 0.0121-5.6028 0.89766-7.961 1.968-7.7494 3.5172-7.5774 1.9203-6.7581 62.741 0.39437 29.277 0.86907 54.027 1.0549 55 0.18582 0.97318 0.37229 9.6477 0.41437 19.277 0.0765 17.507 0.0765 17.507 4.596 17.148 6.4944-0.51652 9.4805 1.6675 9.4805 6.9338 0 4.9672-1.0835 7.12-6.5591 13.032-3.1831 3.437-4.4488 5.7489-4.9398 9.0231-1.055 7.0353 2.7144 74.695 4.5639 81.921 1.4486 5.6595 6.8191 9.5725 13.518 9.8489 1.9659 0.0811 2.0382-0.23625 1.2903-5.664zm-29.018-39.25c-0.51136-7.975-1.2567-18.55-1.6564-23.5-0.72661-9-0.72661-9-2.9501 0.5-1.2229 5.225-2.5149 12.078-2.871 15.228-0.60247 5.3292-0.35546 6.3284 3.5488 14.355 2.308 4.7451 4.3453 8.4676 4.5274 8.2721 0.18206-0.19547-0.0874-6.8804-0.59872-14.855zm438.62 149.53c-11.211-3.5447-24.555-12.911-28.065-19.7-2.8684-5.5469-2.01-7.477 7.7206-17.36 16.428-16.686 21.867-27.131 21.867-41.994 0-4.0221-0.22937-7.9122-0.50971-8.6447-0.40622-1.0614-4.4944-1.2687-20.134-1.0211-31.735 0.50247-47.319-1.9865-53.619-8.5636-3.5189-3.6738-5.734-9.2436-5.7527-14.465-0.0182-5.0785-1.0548-7.0762-3.2373-6.2387-0.93242 0.3578-2.4539-0.25002-3.67-1.4661-2.4004-2.4004-4.0773-2.6834-4.0773-0.6881 0 0.76406-0.81543 2.3962-1.8121 3.627-3.4255 4.2304-8.1879-0.27289-8.1879-7.7424 0-2.4277 0-2.4277-3.0769 0.64923-1.6923 1.6923-3.6622 3.0769-4.3776 3.0769-4.9888 0-4.5717-10.944 0.84635-22.208 2.6103-5.427 3.6135-8.8553 3.6276-12.397 0.0597-15.026 5.5634-37.217 11.564-46.626 6.2704-9.8315 6.3127-10.019 5.3796-23.769-0.99617-14.68-2.674-68.805-3.5804-115.5-0.45064-23.216-0.30674-34.214 0.48535-37.096 1.7702-6.4398 6.3048-11.852 12.448-14.858 5.0386-2.4651 7.1924-2.784 27.823-4.1195 30.122-1.9499 66.706-4.1222 99.361-5.9 14.85-0.80846 30.6-1.6997 35-1.9806 42.872-2.7367 89.129-4.6428 105.5-4.3473 17.75 0.32036 19.961 0.55815 24.632 2.6491 10.464 4.6834 14.204 11.722 15.451 29.081 0.8367 11.651 2.8817 96.339 2.9579 122.5 0.041 14.072 0.041 14.072 4.0307 9.6584 2.1944-2.4273 5.4867-7.5643 7.3164-11.416 3.5642-7.5026 3.5564-6.5619 0.1529-18.639-2.2293-7.9104-1.9937-11.67 0.9135-14.578 1.35-1.35 3.2909-2.4546 4.313-2.4546 2.4272 0 6.9058 4.7556 7.7696 8.25 0.7927 3.2069 2.4839 3.5472 4.1747 0.83993 0.656-1.0505 2.4978-2.1967 4.0929-2.547 2.2897-0.50291 2.8267-1.1006 2.5519-2.8399-0.1914-1.2116-0.7819-19.147-1.3122-39.857-1.2093-47.224-0.5397-52.236 8.1081-60.691 5.2434-5.1264 12.994-6.8424 38.848-8.6006 128.29-8.7249 241.22-13.532 251.52-10.706 2.2084 0.60615 6.0925 2.4194 8.6313 4.0295 5.5144 3.4971 9.1743 10.348 10.779 20.176 1.3334 8.1675 2.9193 51.131 3.7512 101.63 0.6455 39.181 0.6455 39.181 6.1402 32.5 6.0496-7.3552 11.706-18.275 10.857-20.961-0.2986-0.94563-1.2277-3.5193-2.0647-5.7193-3.1792-8.3564-1.0891-20.228 3.8984-22.141 3.4738-1.333 6.2732 0.5511 7.8963 5.3146 0.8776 2.5757 1.5957 5.5553 1.5957 6.6213 0 1.6381 0.6197 1.3783 4.0029-1.6781 2.2016-1.989 4.8318-3.6164 5.845-3.6164 2.4822 0 5.1521 3.1189 5.1521 6.0186 0 1.2986 0.5309 4.9312 1.1797 8.0725 1.4543 7.041 0.1243 9.6231-7.0073 13.605-3.8874 2.1704-5.643 4.1724-9.6286 10.98-5.9582 10.177-18.139 25.158-22.511 27.686-3.2199 1.8619-3.2199 1.8619-2.8762 52.5 0.3884 57.224 0.4382 56.773-7.2427 65.499-6.9198 7.8614-14.803 9.6271-52.21 11.695-11.112 0.61425-20.696 1.2623-21.299 1.44-0.7452 0.21977-0.4799 2.6721 0.8289 7.6637 3.7191 14.184 2.7229 29.26-3.3364 50.49-1.5932 5.5821-2.8967 10.381-2.8967 10.664s5.166 0.66595 11.48 0.85078c10.983 0.3215 11.599 0.4551 14.227 3.086 2.0616 2.0636 2.7473 3.7285 2.7473 6.6701 0 8.4674-5.8812 10.58-29.454 10.58-13.331 0-17.213-0.32342-20.214-1.6841-5.3139-2.4093-5.5666-4.8116-1.9569-18.605 8.2457-31.508 8.2632-46.409 0.072-60.844-1.6021-2.823-3.5943-5.6984-4.4272-6.3896-1.2176-1.0105-8.2217-0.93345-35.744 0.39317-18.826 0.90747-37.267 1.6453-40.979 1.6396-6.7505-0.0103-6.7505-0.0103-6.7505 6.4404 0 9.6247-1.6361 15.965-6.986 27.072-4.7279 9.8158-15.429 23.725-22.581 29.351-1.5062 1.1848-2.5574 2.3045-2.336 2.4882 0.2215 0.18367 3.7777 1.8462 7.9027 3.6945 11.748 5.2641 14.765 7.4319 15.86 11.399 1.383 5.0089 0.4129 7.3651-3.9486 9.5902-6.6952 3.4156-15.254 2.3088-27.075-3.5012-11.453-5.6292-19.837-14.359-19.837-20.654 0-3.3664 0.894-4.6121 9.37-13.056 9.4993-9.4629 14.946-16.918 17.931-24.538 2.3002-5.874 3.622-15.901 2.8503-21.623-0.651-4.8266-0.651-4.8266-23.151-4.7335-22.572 0.0934-37.924-0.86605-47.793-2.9868-10.693-2.2978-17.57-10.57-18.834-22.655-0.6332-6.0576-0.6814-6.1394-2.3807-4.0408-1.6814 2.0764-1.8165 2.0882-4.4173 0.38401-1.4757-0.96686-3.0803-2.7442-3.5658-3.9496-0.8588-2.132-0.8846-2.1228-0.9462 0.33579-0.076 3.0365-2.6433 6.9725-4.5475 6.9725-2.1999 0-5.5159-5.0029-5.5159-8.322 0-3.0522 0-3.0522-2.8047-0.36514-3.3108 3.1719-5.7294 3.4262-7.1601 0.75283-2.0189-3.7722-1.1041-10.004 2.8426-19.367 3.2948-7.8159 4.048-11.003 5.0096-21.199 1.7711-18.78 6.0215-32.498 13.613-43.935 3.9283-5.9181 3.9283-5.9181 3.7035-17.992-0.1236-6.6404-0.5043-17.838-0.8461-24.884-0.6213-12.811-0.6213-12.811-3.5707-10-1.6222 1.546-4.5181 5.608-6.4353 9.0267-4.7991 8.5577-13.949 20.277-19.352 24.786-4.5 3.7556-4.5 3.7556-5 55.377-0.4812 49.68-0.5785 51.791-2.5881 56.132-4.5949 9.9266-12.668 14.34-29.254 15.991-11.15 1.1101-36.774 2.8612-45.908 3.1372-6.0416 0.18254-7.5221 1.1275-5.3435 3.4106 1.2788 1.3402 3.0935 14.117 3.0935 21.781 0 7.3331-2.8294 22.154-6.6184 34.669-1.4154 4.675-2.6429 8.8881-2.7276 9.3624-0.085 0.47429 3.769 0.78432 8.5638 0.68894 13.927-0.27702 20.284 3.5012 19.59 11.642-0.5985 7.0159-7.618 9.2918-28.916 9.3754-13.727 0.0539-19.873-1.05-22.944-4.1212-2.4301-2.43-2.4311-4.2016-0.01-13.781 4.6713-18.465 6.3053-30.215 5.876-42.255-0.3785-10.616-0.6977-12.23-3.5725-18.07-5.7266-11.632-2.807-10.94-39.243-9.3116-17.325 0.77413-36.97 1.4214-43.655 1.4385-12.155 0.031-12.155 0.031-11.644 3.8421 0.90229 6.7271-1.4838 18.135-5.5826 26.689-4.3278 9.0324-9.8825 16.643-19.945 27.327-6.4443 6.842-6.7578 7.381-4.7392 8.1484 18.246 6.9372 24.894 13.388 21.376 20.739-2.3111 4.8283-12.414 6.6358-21.332 3.8162zm62.862-104.02c103.33-4.3482 146.85-7.2896 152.05-10.274 5.2964-3.0453 6.9439-7.9955 7.5661-22.734 1.0383-24.594-2.211-215.72-4.0202-236.47-1.2508-14.345-3.4728-18.925-10.481-21.601-4.0743-1.556-7.1179-1.6723-28.258-1.0798-24.146 0.67677-61.175 2.7541-128.19 7.1918-66.973 4.4348-87.198 6.0781-92.231 7.4939-4.0445 1.1379-7.7734 5.3138-9.5853 10.734-0.77817 2.328-0.81946 11.821-0.14354 33 0.52188 16.352 1.6347 52.232 2.473 79.732 2.0381 66.863 5.3341 140.18 6.4963 144.5 1.2407 4.6152 3.5246 7.745 7.3572 10.082 2.77 1.689 5.1626 1.9102 20.633 1.9072 9.625-2e-3 43.978-1.1176 76.34-2.4795zm-79.257-32.427c-2.3097-2.3097-2.8042-6.4929-3.5561-30.082-0.30679-9.625-0.84055-22.498-1.1861-28.606-0.59193-10.463-0.50413-11.23 1.5158-13.25 2.9012-2.9012 7.6471-2.8325 9.594 0.13887 0.82275 1.2557 1.7539 5.6432 2.0693 9.75 0.93972 12.238 1.5586 16.037 2.5161 15.445 0.49874-0.30824 4.6106-5.7532 9.1374-12.1 11.757-16.483 14.739-18.596 20.193-14.306 4.9417 3.8871 3.5753 7.4437-9.5378 24.827-2.655 3.5195-4.8273 6.8037-4.8273 7.2982 0 1.0508 13.623 19.297 19.183 25.693 4.6761 5.3794 5.1262 9.8907 1.3622 13.655-1.35 1.35-3.2143 2.4546-4.1428 2.4546-2.3103 0-9.3876-7.4891-18.715-19.804-11.74-15.5-13.009-15.088-12.044 3.9117 0.60934 11.997 0.53658 12.712-1.5017 14.75-2.6768 2.6768-7.4998 2.7843-10.06 0.22428zm151.54-6.3322c-1.0813-1.7104-1.6873-9.6851-2.5265-33.25-1.3825-38.821-1.4584-35.735 0.9418-38.311 2.6737-2.87 6.0619-2.7745 8.904 0.25082 2.0199 2.1501 2.3539 3.7511 2.816 13.5 0.2883 6.0833 0.8142 11.061 1.1687 11.061s4.2283-4.8288 8.6084-10.731c11.778-15.869 13.145-17.272 16.818-17.254 3.7062 0.018 4.9425 0.7163 6.4968 3.6692 1.6517 3.1378 0.3687 5.7725-8.318 17.081-4.6868 6.1016-7.5322 10.737-7.5319 12.27 4e-4 1.6182 3.7686 7.2692 10.978 16.464 6.0379 7.7 11.376 15.127 11.862 16.505 1.1339 3.2129-0.08 6.4502-3.1814 8.4822-4.4915 2.943-6.9416 1.2185-17.542-12.346-10.986-14.059-14.456-17.668-16.044-16.687-0.6813 0.42109-1.074 5.7043-1.074 14.45 0 12.086-0.2256 13.99-1.8287 15.441-2.7686 2.5055-8.8027 2.1651-10.548-0.59501zm-48.624-34.476c-8.9722-3.1267-24-21.622-24-29.538 0-3.171 3.1354-6.7356 5.9244-6.7356 1.0584 0 5.4459 1.4526 9.75 3.228 6.7199 2.772 9.0265 3.2276 16.326 3.2251 7.4822-3e-3 9.3248-0.38911 15.388-3.228 10.814-5.0633 13.612-4.2244 13.612 4.0819 0 10.144-9.1839 23.542-19.397 28.297-5.8548 2.7262-11.127 2.9268-17.603 0.66975zm16.671-13.791c2.3807-2.4847 4.3286-4.9118 4.3286-5.3937 0-0.48555-1.8947-0.44015-4.25 0.10183-2.3375 0.53789-8.6319 0.81187-13.988 0.60885-9.7376-0.36912-9.7376-0.36912-6.6084 2.8594 3.9684 4.0944 8.4038 6.2894 12.768 6.3184 2.7663 0.0184 4.2502-0.84217 7.75-4.4948zm-62.057-38.571c-4.2233-3.322-5.615-7.0689-5.6133-15.112 2e-3 -8.1917 1.8128-12.922 6.1696-16.115 3.3376-2.4459 9.838-2.564 13.38-0.24313 8.4589 5.5425 8.422 24.715-0.0604 31.387-3.6761 2.8916-10.255 2.931-13.876 0.0831zm88.447-2.739c-5.5039-2.9518-7.2617-7.2548-6.8197-16.695 0.5508-11.765 4.9853-17.678 13.258-17.678 7.8885 0 12.465 5.9741 13.277 17.334 0.3931 5.4939 0.088 7.5138-1.6931 11.192-3.4803 7.1894-10.982 9.623-18.023 5.847zm-150.06-50.173c-1.1276-1.1276-2.0334-3.4177-2.0765-5.25-0.0421-1.7875-0.23039-4.0588-0.41846-5.0473s-0.66839-14.607-1.0674-30.262c-0.67765-26.59-0.60693-28.596 1.0734-30.453 2.0842-2.303 6.281-2.5915 8.9808-0.61731 2.0772 1.5188 3.2816 8.5124 3.4237 19.88 0.0464 3.7125 0.42188 6.728 0.83438 6.7011s4.125-4.8491 8.25-10.716c13-18.49 15.957-20.755 21.777-16.678 3.7101 2.5987 2.8498 6.364-3.4473 15.088-10.028 13.893-11.487 16.291-10.704 17.596 1.0285 1.7151 8.6026 11.598 16.203 21.141 5.3981 6.7783 6.2344 8.3742 5.9742 11.401-0.20952 2.4373-1.1283 4.133-2.9888 5.5161-4.3665 3.2461-7.562 1.1127-18.279-12.204-10.604-13.177-12.966-15.564-14.472-14.633-0.66052 0.40822-1.063 5.4725-1.063 13.375 0 14.826-0.89301 17.163-6.5567 17.163-2.11 0-4.2178-0.77445-5.4433-2zm151.07-5.6349c-1.6204-2.06-2.074-4.0782-2.0788-9.25 0-3.6383-0.4695-18.54-1.0357-33.115-1.0294-26.5-1.0294-26.5 1.562-28.75 3.293-2.8592 4.9861-2.8347 7.9356 0.11482 2.0489 2.0489 2.4698 3.7523 3.1503 12.75 0.4319 5.7118 0.6973 10.723 0.5897 11.135-0.6799 2.6058 2.3441-0.41441 8.01-8 10.504-14.063 15.551-19.25 18.732-19.25 3.3471 0 6.3123 3.0351 6.3123 6.4611 0 1.5299-2.4181 5.7856-6.1271 10.783-3.37 4.5407-7.291 10.163-8.7135 12.495-2.5863 4.2388-2.5863 4.2388-0.5649 7.5 1.1118 1.7936 6.5517 8.8752 12.088 15.737 7.9384 9.8377 10.067 13.135 10.067 15.595 0 4.0324-2.7108 6.4295-7.2711 6.4295-4.0308 0-5.7635-1.734-19.904-19.92-4.0286-5.1811-7.8872-9.6061-8.5747-9.8333-0.9598-0.31726-1.25 2.8052-1.25 13.448 0 16.354-0.7447 18.306-6.9841 18.306-2.9906 0-4.342-0.59916-5.9433-2.6349zm288.93 183.58c44.613-1.8329 75.662-3.313 93-4.4332 4.125-0.26652 16.05-0.96413 26.5-1.5502 32.353-1.8146 35.035-2.5604 38.844-10.8 1.9818-4.2878 2.1844-6.6095 2.5009-28.666 0.1894-13.2-0.145-39.975-0.7432-59.5-0.5981-19.525-1.3331-47.65-1.6333-62.5-0.3001-14.85-0.9841-38.925-1.5199-53.5-2.34-63.647-2.7353-65.844-12.521-69.581-4.0919-1.5627-7.4227-1.6717-33.237-1.0872-15.779 0.35726-35.89 1.0977-44.69 1.6455-8.8 0.54776-23.65 1.466-33 2.0405-18.396 1.1303-43.785 2.8436-88.5 5.9723-15.675 1.0968-32.325 2.2611-37 2.5875-10.122 0.70661-15.545 2.9814-18.89 7.9241-2.3903 3.5314-2.3903 3.5314-0.7268 71.265 3.361 136.86 5.0712 182.22 7.155 189.76 1.5976 5.7841 5.4391 9.9611 11.099 12.069 4.5171 1.6819 18.208 1.4404 93.363-1.6474zm-67.657-34.548c-1.423-2.1718-1.8286-6.5681-2.4678-26.75-0.4208-13.283-1.0019-27.329-1.2915-31.213-0.8722-11.697 1.5326-16.42 7.9161-15.548 4.1954 0.5732 4.9609 2.662 6 16.373 1 13.195 1 13.195 8.9048 2.2161 13.573-18.851 18.468-22.592 23.004-17.579 3.5995 3.9773 2.4491 7.2838-6.834 19.643-4.7999 6.3904-8.5069 12.193-8.2377 12.894 0.2693 0.70157 4.916 6.9886 10.326 13.971 15.025 19.392 15.212 19.807 10.882 24.138-4.3381 4.338-7.6955 3.4012-13.603-3.7954-12.018-14.642-20.257-23.674-21.111-23.146-0.5051 0.3122-0.7848 6.6192-0.6237 14.067 0.2845 13.149 0.2306 13.551-2.0687 15.415-3.5163 2.8514-8.6943 2.523-10.796-0.68459zm155.82-4.2373c-1.5929-1.5929-1.9242-4.2644-2.5-20.16-0.365-10.078-0.6637-25.382-0.6637-34.009 0-13.925 0.2052-15.87 1.8287-17.34 2.1811-1.9738 6.1146-2.1481 8.5351-0.37821 2.3236 1.699 3.5833 7.5597 3.6123 16.807 0.013 4.1708 0.2989 7.8584 0.6351 8.1946 0.7744 0.77441 3.2255-2.1886 12.638-15.278 9.5126-13.228 11.822-15.45 15.183-14.606 3.2923 0.82631 5.9629 4.8967 5.202 7.9284-0.3225 1.2851-4.4221 7.6634-9.1102 14.174s-8.5238 12.183-8.5238 12.605c0 0.42234 5.175 7.7154 11.5 16.207 12.447 16.711 13.323 18.96 9.0455 23.237-4.5219 4.5219-6.7606 3.1528-18.06-11.045-11.835-14.871-14.629-17.756-15.934-16.451-0.6268 0.62741-1.0678 6.4625-1.0912 14.44-0.034 11.629-0.2845 13.658-1.905 15.449-2.3699 2.6187-7.8791 2.7381-10.392 0.22527zm-61.832-33.123c-8.4905-2.0223-19.034-11.251-23.467-20.541-3.1792-6.6621-3.4008-8.2295-1.6934-11.977 1.5966-3.5042 5.2128-4.1973 10.751-2.0607 2.7776 1.0716 8.5092 1.9563 14.577 2.2502 9.0993 0.44074 10.63 0.24263 17-2.1997 16.013-6.1398 14.589-5.836 17.434-3.7206 6.4946 4.8305 1.81 20.601-9.1274 30.727-7.9753 7.3837-16.047 9.767-25.474 7.5216zm14.386-13.952c2.2103-1.6011 4.9289-4.1886 6.0414-5.75 2.0227-2.8389 2.0227-2.8389-13.867-2.8389-8.7391 0-15.89 0.30297-15.891 0.67327 0 1.5601 5.5131 7.0473 8.8692 8.8207 5.3619 2.8333 10.084 2.5454 14.848-0.90509zm-62.317-37.93c-8.4885-5.3303-8.5329-27.096-0.067-32.643 3.2935-2.158 9.9988-2.1832 13.255-0.0499 4.2797 2.8042 6.7362 9.7409 6.1838 17.462-0.765 10.693-4.5382 15.744-12.485 16.714-2.6499 0.32351-4.7192-0.1222-6.8868-1.4834zm87.112-5.3271c-3.7764-2.9705-5.5137-7.644-5.5137-14.832 0-12.884 6.6374-20.556 16.003-18.499 11.138 2.4463 14.604 22.412 5.5556 32.006-2.9104 3.0859-3.8782 3.4937-8.292 3.4937-3.6119 0-5.7611-0.60094-7.7531-2.1679zm-137.29-45.09c-2.0247-2.1551-2.1716-3.7922-3.2372-36.08-1.0034-30.403-0.956-34.067 0.4696-36.242 1.7367-2.6505 4.1023-3.0324 7.943-1.2825 3.0672 1.3975 4.5968 5.5118 4.5968 12.365 0 7.8736 1.178 17.505 2.0734 16.952 0.4367-0.26994 4.4196-5.6014 8.8507-11.848 8.6941-12.256 14.881-18.607 18.124-18.607 2.3695 0 6.9517 4.2168 6.9517 6.3973 0 0.81853-2.4773 5.0015-5.505 9.2955-14.243 20.2-13.412 17.324-7.3644 25.49 2.9532 3.9873 7.7823 10.19 10.731 13.783 2.9492 3.5935 5.7866 7.6412 6.3055 8.9947 1.9285 5.0307-1.2339 10.039-6.3389 10.039-3.6358 0-6.2895-2.5798-16.726-16.26-9.0332-11.841-10.586-13.369-11.744-11.555-0.462 0.72333-1.0704 7.0934-1.3521 14.156-0.4777 11.973-0.6717 12.97-2.8702 14.75-3.2443 2.6271-8.264 2.4668-10.909-0.34822zm156.13-2.5038c-1.18-0.19273-2.9637-1.2544-3.9636-2.3593-1.6403-1.8126-1.9021-5.2411-2.6786-35.081-0.4733-18.189-0.5896-34.151-0.2584-35.471 0.7694-3.0657 5.1091-4.8484 8.2826-3.4024 3.2786 1.4938 4.0735 4.1934 4.8065 16.324 0.3573 5.9125 0.9768 10.75 1.3767 10.75s4.3751-5.1007 8.8336-11.335c12.259-17.141 15.991-19.727 21.497-14.892 3.5865 3.1493 2.7561 4.9915-11.272 25.006-4.4012 6.2797-4.4012 6.2797-2.6568 9.5 0.9593 1.7712 6.2474 8.8453 11.751 15.72 5.5038 6.875 10.264 13.516 10.577 14.757 0.6437 2.5477-1.6366 6.6299-4.5847 8.2077-4.1477 2.2198-5.8344 0.70758-24.955-22.374-4.7005-5.6743-6.6828-7.4169-7.5-6.5932-0.7352 0.74108-1.0061 5.5936-0.801 14.352 0.2753 11.761 0.1085 13.405-1.5 14.789-2.2764 1.9585-4.2227 2.5461-6.9554 2.0998zm-555.73 176.96c-1.468-2.3753-4.9713-78.505-7.5789-164.7-0.56574-18.7-1.5258-48.625-2.1335-66.5-1.0844-31.898-1.066-32.611 0.99263-38.465 1.1536-3.2809 2.0975-6.3184 2.0975-6.75 0-1.617-6.6462-0.66958-10.5 1.4969-6.6482 3.7374-7.4973 6.6512-7.4941 25.718 3e-3 19.238 1.6528 93.687 2.5595 115.52 0.62385 15.023 0.62385 15.023 4.636 15.023 2.999 0 4.4902 0.5904 5.9054 2.3381 3.7984 4.6909 2.0326 11.383-4.6445 17.601-4.4622 4.1554-4.4622 4.1554-4.4622 13.529 0 5.1554 0.4319 15.474 0.95978 22.93s1.4549 21.657 2.06 31.557 1.5373 19.675 2.0715 21.723c1.055 4.0438 5.699 8.2855 9.9088 9.0504 4.2982 0.78102 6.1364 0.75633 5.6223-0.0755zm356.99-1.4479c-2.8915-10.421-6.6597-106.14-9.2614-235.25-0.5521-27.397-0.4342-31.45 1.0139-34.872 2.3505-5.5543 2.1675-5.9622-2.3995-5.3496-7.2477 0.97212-11.558 5.2657-13.063 13.012-0.7686 3.9557 0.5154 92.009 1.5633 107.21 0.2654 3.85 0.4951 13.82 0.5103 22.156 0.028 15.156 0.028 15.156 3.5329 14.081 3.0971-0.95052 3.7859-0.81214 5.9154 1.1884 5.0812 4.7735 4.1397 9.8463-3.2215 17.357-4.6824 4.7772-4.6876 4.7902-5.0466 12.696-0.5253 11.567 3.312 74.141 4.9194 80.221 1.126 4.2593 4.8974 7.3601 10.574 8.6938 5.6126 1.3188 5.6442 1.3115 4.9629-1.1436zm-54.109-17.75c0.9955-1.1 1.585-2 1.31-2s-1.3145 0.9-2.31 2-1.585 2-1.31 2 1.3145-0.9 2.31-2zm23.612-25.217c-1.4386-24.004-2.1676-31.783-2.9786-31.783-0.781 2.4e-4 -5.2389 22.272-5.3542 26.749-0.077 3.0002 8.2386 25.558 9.1046 24.698 0.2111-0.20986-0.1362-9.0588-0.7718-19.664zm-356.05-3.9492c-1.1216-19.613-1.926-28.301-2.5616-27.666-0.75325 0.75325-5.4971 25.961-5.4676 29.054 0.0284 2.9806 1.0963 5.5748 6.4176 15.591 0.96788 1.8218 1.9752 3.0969 2.2385 2.8336s-0.0188-9.1788-0.62686-19.812z"/><g stroke-linecap="square" stroke-linejoin="bevel" stroke-width="2.2677"><path transform="translate(175.93 152.39)" d="m9.8852-9.3279c0-0.85066 0.087999-3.1386 0.176-5.2213 0.088-1.7013 0.14666-3.256 0.14666-3.7546 0-0.61599-1.0853-1.7306-2.2-1.7306-0.58666 0-1.1733 0.38133-1.8186 0.93866-0.55733 0.55733-1.5253 1.3493-2.8453 2.3466-0.85066 0.64533-1.056 1.2027-1.056 1.848 0 0.44 0.264 0.82132 0.64533 1.1733 0.264 0.23466 0.55733 0.44 0.96799 0.44 0.58666 0 1.32-0.38133 2.9626-1.672-0.20533 4.7226-0.32266 8.0666-0.32266 9.9146 0 1.4373 0.058666 1.6426 0.058666 2.3466v0.44c-2.024-0.029333-3.5493-0.058666-3.872-0.058666-0.70399 0-1.1733 0.352-1.3787 0.76266-0.14666 0.32266-0.176 0.61599-0.176 0.82132 0 1.496 1.144 1.6133 1.5253 1.6133 1.4666 0 10.648 0.087999 10.765 0.087999 0.61599 0 1.1733-0.11733 1.4666-0.52799 0.20533-0.264 0.32266-0.64533 0.32266-1.056 0-0.38133-0.11733-0.82132-0.49866-1.1147-0.29333-0.20533-0.70399-0.352-1.2613-0.352-0.264 0-3.4906-0.058666-3.52-0.058666-0.029333-0.82132-0.058666-1.6133-0.058666-2.6106 0-0.029333 0-0.029333-0.029333-2.2293zm16.133 0c0-0.85066 0.088-3.1386 0.176-5.2213 0.088-1.7013 0.14666-3.256 0.14666-3.7546 0-0.61599-1.0853-1.7306-2.2-1.7306-0.58666 0-1.1733 0.38133-1.8186 0.93866-0.55733 0.55733-1.5253 1.3493-2.8453 2.3466-0.85066 0.64533-1.056 1.2027-1.056 1.848 0 0.44 0.264 0.82132 0.64533 1.1733 0.264 0.23466 0.55733 0.44 0.96799 0.44 0.58666 0 1.32-0.38133 2.9626-1.672-0.20533 4.7226-0.32266 8.0666-0.32266 9.9146 0 1.4373 0.05867 1.6426 0.05867 2.3466v0.44c-2.024-0.029333-3.5493-0.058666-3.872-0.058666-0.70399 0-1.1733 0.352-1.3787 0.76266-0.14666 0.32266-0.176 0.61599-0.176 0.82132 0 1.496 1.144 1.6133 1.5253 1.6133 1.4666 0 10.648 0.087999 10.765 0.087999 0.61599 0 1.1733-0.11733 1.4666-0.52799 0.20533-0.264 0.32266-0.64533 0.32266-1.056 0-0.38133-0.11733-0.82132-0.49866-1.1147-0.29333-0.20533-0.70399-0.352-1.2613-0.352-0.264 0-3.4906-0.058666-3.52-0.058666-0.02933-0.82132-0.05867-1.6133-0.05867-2.6106 0-0.029333 0-0.029333-0.02933-2.2293z" style="paint-order:markers fill stroke;white-space:pre" aria-label="11"/><path transform="translate(344.46 142.56)" d="m9.8852-9.3279c0-0.85066 0.087999-3.1386 0.176-5.2213 0.088-1.7013 0.14666-3.256 0.14666-3.7546 0-0.61599-1.0853-1.7306-2.2-1.7306-0.58666 0-1.1733 0.38133-1.8186 0.93866-0.55733 0.55733-1.5253 1.3493-2.8453 2.3466-0.85066 0.64533-1.056 1.2027-1.056 1.848 0 0.44 0.264 0.82132 0.64533 1.1733 0.264 0.23466 0.55733 0.44 0.96799 0.44 0.58666 0 1.32-0.38133 2.9626-1.672-0.20533 4.7226-0.32266 8.0666-0.32266 9.9146 0 1.4373 0.058666 1.6426 0.058666 2.3466v0.44c-2.024-0.029333-3.5493-0.058666-3.872-0.058666-0.70399 0-1.1733 0.352-1.3787 0.76266-0.14666 0.32266-0.176 0.61599-0.176 0.82132 0 1.496 1.144 1.6133 1.5253 1.6133 1.4666 0 10.648 0.087999 10.765 0.087999 0.61599 0 1.1733-0.11733 1.4666-0.52799 0.20533-0.264 0.32266-0.64533 0.32266-1.056 0-0.38133-0.11733-0.82132-0.49866-1.1147-0.29333-0.20533-0.70399-0.352-1.2613-0.352-0.264 0-3.4906-0.058666-3.52-0.058666-0.029333-0.82132-0.058666-1.6133-0.058666-2.6106 0-0.029333 0-0.029333-0.029333-2.2293zm21.12 8.5066c0-0.264-0.02933-0.52799-0.176-0.76266-0.29333-0.49866-0.76266-0.49866-1.2907-0.49866-1.7893 0-3.4906 0.29333-5.6906 0.29333-0.85066 0-1.7893-0.029333-2.8453-0.087999 0.264-2.5226 1.76-3.96 3.3146-4.8106 4.1946-2.2586 6.3066-3.4026 6.3066-7.2453 0-5.7786-5.1039-5.8373-6.4239-5.8373-3.344 0-6.2773 2.5813-6.2773 4.4 0 1.4373 1.7893 1.5253 1.7893 1.5253 0.64533 0 1.0267-0.44 1.3787-0.93866 0.11733-0.176 1.3787-1.9653 3.256-1.9653 2.64 0 2.816 1.4666 2.816 2.3466 0 2.112-0.49866 2.6693-5.1919 5.2799-2.8746 1.6133-4.4879 4.8399-4.4879 7.2159 0 0.85066 0.088 1.5546 0.264 2.0826 0.352 0.99732 0.87999 1.1147 3.344 1.1147 3.344 0 5.8666-0.20533 8.6239-0.20533 1.2613 0 1.2907-1.7306 1.2907-1.9066z" style="paint-order:markers fill stroke;white-space:pre" aria-label="12"/><path d="m365.72 293.32c0-0.26399-0.0293-0.52799-0.176-0.76265-0.29333-0.49866-0.76266-0.49866-1.2906-0.49866-1.7893 0-3.4906 0.29333-5.6906 0.29333-0.85065 0-1.7893-0.0293-2.8453-0.088 0.264-2.5226 1.76-3.96 3.3146-4.8106 4.1946-2.2586 6.3066-3.4026 6.3066-7.2452 0-5.7786-5.1039-5.8373-6.4239-5.8373-3.344 0-6.2773 2.5813-6.2773 4.4 0 1.4373 1.7893 1.5253 1.7893 1.5253 0.64533 0 1.0267-0.43999 1.3786-0.93865 0.11733-0.176 1.3786-1.9653 3.256-1.9653 2.64 0 2.816 1.4666 2.816 2.3466 0 2.112-0.49866 2.6693-5.1919 5.2799-2.8746 1.6133-4.488 4.8399-4.488 7.2159 0 0.85066 0.088 1.5546 0.264 2.0826 0.352 0.99732 0.87999 1.1146 3.344 1.1146 3.344 0 5.8666-0.20533 8.6239-0.20533 1.2613 0 1.2907-1.7306 1.2907-1.9066zm16.133 0c0-0.26399-0.0293-0.52799-0.17599-0.76265-0.29333-0.49866-0.76266-0.49866-1.2907-0.49866-1.7893 0-3.4906 0.29333-5.6906 0.29333-0.85065 0-1.7893-0.0293-2.8453-0.088 0.264-2.5226 1.76-3.96 3.3146-4.8106 4.1946-2.2586 6.3066-3.4026 6.3066-7.2452 0-5.7786-5.104-5.8373-6.4239-5.8373-3.344 0-6.2773 2.5813-6.2773 4.4 0 1.4373 1.7893 1.5253 1.7893 1.5253 0.64533 0 1.0266-0.43999 1.3786-0.93865 0.11733-0.176 1.3786-1.9653 3.256-1.9653 2.64 0 2.816 1.4666 2.816 2.3466 0 2.112-0.49866 2.6693-5.1919 5.2799-2.8746 1.6133-4.488 4.8399-4.488 7.2159 0 0.85066 0.088 1.5546 0.264 2.0826 0.35199 0.99732 0.87999 1.1146 3.344 1.1146 3.344 0 5.8666-0.20533 8.6239-0.20533 1.2613 0 1.2906-1.7306 1.2906-1.9066z" style="paint-order:markers fill stroke" aria-label="22"/><path d="m196.6 295.33c0-0.26399-0.0293-0.52799-0.176-0.76266-0.29333-0.49866-0.76266-0.49866-1.2906-0.49866-1.7893 0-3.4906 0.29333-5.6906 0.29333-0.85066 0-1.7893-0.0293-2.8453-0.088 0.26399-2.5226 1.76-3.96 3.3146-4.8106 4.1946-2.2586 6.3066-3.4026 6.3066-7.2452 0-5.7786-5.1039-5.8373-6.4239-5.8373-3.344 0-6.2773 2.5813-6.2773 4.4 0 1.4373 1.7893 1.5253 1.7893 1.5253 0.64533 0 1.0267-0.43999 1.3787-0.93866 0.11733-0.17599 1.3786-1.9653 3.256-1.9653 2.64 0 2.816 1.4666 2.816 2.3466 0 2.112-0.49866 2.6693-5.1919 5.2799-2.8746 1.6133-4.488 4.84-4.488 7.2159 0 0.85066 0.088 1.5546 0.26399 2.0826 0.352 0.99733 0.87999 1.1147 3.344 1.1147 3.344 0 5.8666-0.20533 8.6239-0.20533 1.2613 0 1.2906-1.7306 1.2906-1.9066zm11.147-8.5066c0-0.85065 0.088-3.1386 0.17599-5.2213 0.088-1.7013 0.14667-3.256 0.14667-3.7546 0-0.61599-1.0853-1.7306-2.2-1.7306-0.58666 0-1.1733 0.38133-1.8186 0.93865-0.55733 0.55733-1.5253 1.3493-2.8453 2.3466-0.85066 0.64533-1.056 1.2027-1.056 1.848 0 0.44 0.264 0.82133 0.64533 1.1733 0.26399 0.23467 0.55732 0.44 0.96798 0.44 0.58666 0 1.32-0.38133 2.9626-1.672-0.20533 4.7226-0.32267 8.0666-0.32267 9.9146 0 1.4373 0.0587 1.6426 0.0587 2.3466v0.44c-2.024-0.0293-3.5493-0.0587-3.872-0.0587-0.70399 0-1.1733 0.352-1.3786 0.76266-0.14666 0.32266-0.17599 0.61599-0.17599 0.82132 0 1.496 1.144 1.6133 1.5253 1.6133 1.4666 0 10.648 0.088 10.765 0.088 0.616 0 1.1733-0.11734 1.4666-0.528 0.20533-0.264 0.32267-0.64532 0.32267-1.056 0-0.38133-0.11734-0.82132-0.49867-1.1146-0.29333-0.20533-0.70399-0.352-1.2613-0.352-0.264 0-3.4906-0.0587-3.52-0.0587-0.0293-0.82133-0.0587-1.6133-0.0587-2.6106 0-0.0293 0-0.0293-0.0293-2.2293z" style="paint-order:markers fill stroke" aria-label="21"/><path d="m1078.2 126.36c-0.1467 3.5493-0.1467 3.5493-0.1467 4.4 0 0.93865 0 0.93865 0.059 2.7866v0.55733h-3.9307c-1.4666 0-1.4959 1.2026-1.4959 1.672 0 1.3493 1.144 1.4373 1.5253 1.4373 0.9973 0 10.178-0.11733 10.296-0.11733 0-0.38133 0.029-0.38133 0.029-0.0293 1.232 0 1.496-0.90932 1.5253-1.496 0-0.70399-0.3226-1.144-0.7333-1.32-0.2933-0.11734-0.5573-0.11734-0.704-0.11734h-3.1386c-0.088-2.288-0.1467-3.872-0.1467-5.1333 0-1.6426 0.088-2.7573 0.176-3.872 0-0.38133-0.2347-1.8186-1.76-1.8186-0.2933-0.0293-0.5866-0.0293-0.8506-0.0293-1.3787 0-2.6107 0.088-3.8133 0.176-1.32 0-1.408 1.232-1.408 1.496 0 0.41067 0.2053 1.4373 1.4373 1.4373 0.264 0.0293 0.4693 0.0293 0.6747 0.0293 0.9386 0 1.4079-0.0587 1.9359-0.0587h0.4694zm1.2906-9.1226c-1.32 0-2.7866 0.82132-2.7866 2.0826 0 0.76266 0.2347 1.4666 0.704 2.0533 0.44 0.58666 1.0853 0.85066 1.7306 0.85066 1.2907 0 2.7573-1.0853 2.7573-2.9333 0-1.056-0.9386-2.0533-2.4053-2.0533zm15.752 2.3466c0 0.55732 0.352 2.728 2.5813 2.728 1.76 0 2.5227-1.4666 2.5227-2.5226 0-1.232-0.88-2.4346-2.4933-2.4346-1.2027 0-2.6107 0.76266-2.6107 2.2293zm4.6933 17.541c0-3.2266-0.1467-6.7466-0.176-9.8266 0-0.90932 0.2347-1.2613 0.2347-2.1413 0-1.0853-0.704-1.7893-1.76-1.7893-0.352-0.0293-0.7333-0.0293-1.144-0.0293-0.792 0-1.4667 0-2.728 0.0587v0c-0.3813 0.0293-0.7333 0.0293-1.408 0.0293h-0.2933c-1.056 0-2.024 0.0293-2.64 0.46933-0.4986 0.32266-0.5279 0.87999-0.5279 0.96799 0 0.79199 0.7333 1.584 1.6719 1.584h0.088c0.029 0 2.464 0.0293 2.728 0.0293h0.2053 1.584 0.704c-0.059 1.056-0.088 2.0826-0.088 3.08 0 1.8186 0.088 3.52 0.176 5.1039 0.029 0.73332 0.059 1.4373 0.088 2.112 0 0.85066-0.176 1.5546-0.4987 2.112-0.9386 1.6426-2.9333 2.4933-5.6319 2.5226h-0.029c-0.792 0-1.5253 0.85065-1.5253 1.7013v0.0587 0.0293c0 1.0267 0.8799 1.408 1.6719 1.4373h0.029v-0.0293c6.8346-0.17599 9.2105-3.3146 9.2692-7.4799z" style="paint-order:markers fill stroke" aria-label="ij"/><path d="m1080.9 267.59c0 0.55733 0.352 2.728 2.5813 2.728 1.7599 0 2.5226-1.4666 2.5226-2.5226 0-1.232-0.88-2.4346-2.4933-2.4346-1.2027 0-2.6106 0.76266-2.6106 2.2293zm4.6932 17.541c0-3.2266-0.1466-6.7466-0.176-9.8266 0-0.90933 0.2347-1.2613 0.2347-2.1413 0-1.0853-0.704-1.7893-1.76-1.7893-0.352-0.0293-0.7333-0.0293-1.144-0.0293-0.792 0-1.4666 0-2.7279 0.0587v0c-0.3814 0.0293-0.7334 0.0293-1.408 0.0293h-0.2933c-1.056 0-2.024 0.0293-2.64 0.46933-0.4987 0.32266-0.528 0.87999-0.528 0.96799 0 0.79199 0.7333 1.584 1.672 1.584h0.088c0.029 0 2.4639 0.0293 2.7279 0.0293h0.2054 1.584 0.7039c-0.059 1.056-0.088 2.0826-0.088 3.08 0 1.8186 0.088 3.52 0.176 5.1039 0.029 0.73333 0.059 1.4373 0.088 2.112 0 0.85065-0.176 1.5546-0.4986 2.112-0.9387 1.6426-2.9333 2.4933-5.632 2.5226h-0.029c-0.792 0-1.5253 0.85066-1.5253 1.7013v0.0587 0.0293c0 1.0267 0.88 1.408 1.672 1.4373h0.029v-0.0293c6.8346-0.176 9.2106-3.3146 9.2692-7.4799zm11.44-17.541c0 0.55733 0.352 2.728 2.5813 2.728 1.76 0 2.5226-1.4666 2.5226-2.5226 0-1.232-0.88-2.4346-2.4933-2.4346-1.2026 0-2.6106 0.76266-2.6106 2.2293zm4.6933 17.541c0-3.2266-0.1467-6.7466-0.176-9.8266 0-0.90933 0.2346-1.2613 0.2346-2.1413 0-1.0853-0.704-1.7893-1.7599-1.7893-0.352-0.0293-0.7334-0.0293-1.144-0.0293-0.792 0-1.4667 0-2.728 0.0587v0c-0.3813 0.0293-0.7333 0.0293-1.408 0.0293h-0.2933c-1.056 0-2.024 0.0293-2.64 0.46933-0.4986 0.32266-0.528 0.87999-0.528 0.96799 0 0.79199 0.7333 1.584 1.672 1.584h0.088c0.029 0 2.464 0.0293 2.728 0.0293h0.2053 1.584 0.704c-0.059 1.056-0.088 2.0826-0.088 3.08 0 1.8186 0.088 3.52 0.176 5.1039 0.029 0.73333 0.059 1.4373 0.088 2.112 0 0.85065-0.176 1.5546-0.4987 2.112-0.9386 1.6426-2.9333 2.4933-5.6319 2.5226h-0.029c-0.792 0-1.5253 0.85066-1.5253 1.7013v0.0587 0.0293c0 1.0267 0.88 1.408 1.672 1.4373h0.029v-0.0293c6.8346-0.176 9.2106-3.3146 9.2693-7.4799z" style="paint-order:markers fill stroke" aria-label="jj"/><path d="m931.32 273.22c0 0.55733 0.35199 2.728 2.5813 2.728 1.76 0 2.5226-1.4666 2.5226-2.5226 0-1.232-0.87999-2.4346-2.4933-2.4346-1.2027 0-2.6106 0.76266-2.6106 2.2293zm4.6933 17.541c0-3.2266-0.14667-6.7466-0.176-9.8266 0-0.90932 0.23466-1.2613 0.23466-2.1413 0-1.0853-0.70399-1.7893-1.76-1.7893-0.35199-0.0293-0.73332-0.0293-1.144-0.0293-0.79199 0-1.4666 0-2.728 0.0587v0c-0.38133 0.0293-0.73333 0.0293-1.408 0.0293h-0.29333c-1.056 0-2.024 0.0293-2.64 0.46933-0.49866 0.32266-0.52799 0.87999-0.52799 0.96799 0 0.79199 0.73333 1.584 1.672 1.584h0.088c0.0293 0 2.464 0.0293 2.728 0.0293h0.20533 1.584 0.70399c-0.0587 1.056-0.088 2.0826-0.088 3.08 0 1.8186 0.088 3.52 0.17599 5.1039 0.0293 0.73333 0.0587 1.4373 0.088 2.112 0 0.85065-0.176 1.5546-0.49866 2.112-0.93865 1.6426-2.9333 2.4933-5.6319 2.5226h-0.0293c-0.79199 0-1.5253 0.85066-1.5253 1.7013v0.0587 0.0293c0 1.0267 0.87999 1.408 1.672 1.4373h0.0293v-0.0293c6.8346-0.176 9.2106-3.3146 9.2692-7.4799zm10.531-10.765c-0.14666 3.5493-0.14666 3.5493-0.14666 4.4 0 0.93866 0 0.93866 0.0587 2.7866v0.55732h-3.9306c-1.4666 0-1.496 1.2027-1.496 1.672 0 1.3493 1.144 1.4373 1.5253 1.4373 0.99733 0 10.179-0.11733 10.296-0.11733 0-0.38133 0.0293-0.38133 0.0293-0.0293 1.232 0 1.496-0.90933 1.5253-1.496 0-0.70399-0.32267-1.144-0.73333-1.32-0.29333-0.11733-0.55732-0.11733-0.70399-0.11733h-3.1386c-0.088-2.288-0.14667-3.872-0.14667-5.1333 0-1.6426 0.088-2.7573 0.176-3.872 0-0.38133-0.23466-1.8186-1.76-1.8186-0.29333-0.0293-0.58666-0.0293-0.85066-0.0293-1.3786 0-2.6106 0.088-3.8133 0.176-1.32 0-1.408 1.232-1.408 1.496 0 0.41066 0.20533 1.4373 1.4373 1.4373 0.26399 0.0293 0.46933 0.0293 0.67466 0.0293 0.93865 0 1.408-0.0587 1.936-0.0587h0.46933zm1.2906-9.1226c-1.32 0-2.7866 0.82132-2.7866 2.0826 0 0.76266 0.23466 1.4666 0.70399 2.0533 0.44 0.58666 1.0853 0.85066 1.7306 0.85066 1.2906 0 2.7573-1.0853 2.7573-2.9333 0-1.056-0.93865-2.0533-2.4053-2.0533z" style="paint-order:markers fill stroke" aria-label="ji"/><path d="m577.83 199.85a5.1632 15.505 0 0 1-4.3748 17.542 5.1632 15.505 0 0 1-5.846-13.12 5.1632 15.505 0 0 1 4.3629-17.569 5.1632 15.505 0 0 1 5.8548 13.084" fill="#73f2e8" style="paint-order:markers fill stroke"/></g><path d="m774.26 156.26c-0.2986-0.94563-1.2277-3.5193-2.0647-5.7193-3.1792-8.3564-1.0891-20.228 3.8984-22.141 3.4738-1.333 6.2732 0.5511 7.8963 5.3146 0.8776 2.5757 1.5957 5.5553 1.5957 6.6213 0 1.6381 0.6197 1.3783 4.0029-1.6781 2.2016-1.989 4.8318-3.6164 5.845-3.6164 2.4822 0 5.1521 3.1189 5.1521 6.0186 0 1.2986 0.5309 4.9312 1.1797 8.0725 1.4543 7.041 0.1243 9.6231-7.0073 13.605-3.8874 2.1704-5.643 4.1724-9.6286 10.98"/><path d="m762.9 178.2c6.0496-7.3552 11.706-18.275 10.857-20.961-0.2986-0.94563-1.2277-3.5193-2.0647-5.7193-3.1792-8.3564-1.0891-20.228 3.8984-22.141 3.4738-1.333 6.2732 0.5511 7.8963 5.3146 0.8776 2.5757 1.5957 5.5553 1.5957 6.6213 0 1.6381 3.5294 26.574-0.4562 33.381-5.9582 10.177-18.139 25.158-22.511 27.686"/><path d="m924.19 133.79c-0.14667 3.5493-0.14667 3.5493-0.14667 4.4 0 0.93865 0 0.93865 0.0587 2.7866v0.55733h-3.9306c-1.4666 0-1.496 1.2026-1.496 1.672 0 1.3493 1.144 1.4373 1.5253 1.4373 0.99732 0 10.179-0.11733 10.296-0.11733 0-0.38133 0.0293-0.38133 0.0293-0.0293 1.232 0 1.496-0.90932 1.5253-1.496v0c0-0.70399-0.32266-1.144-0.73332-1.32-0.29333-0.11734-0.55733-0.11734-0.704-0.11734h-3.1386c-0.088-2.288-0.14666-3.872-0.14666-5.1333 0-1.6426 0.088-2.7573 0.176-3.872v0c0-0.38133-0.23467-1.8186-1.76-1.8186-0.29333-0.0293-0.58666-0.0293-0.85066-0.0293-1.3786 0-2.6106 0.088-3.8133 0.176-1.32 0-1.408 1.232-1.408 1.496 0 0.41067 0.20534 1.4373 1.4373 1.4373 0.264 0.0293 0.46933 0.0293 0.67466 0.0293 0.93866 0 1.408-0.0587 1.936-0.0587h0.46933zm1.2906-9.1226c-1.32 0-2.7866 0.82133-2.7866 2.0826 0 0.76266 0.23467 1.4666 0.704 2.0533 0.43999 0.58666 1.0853 0.85065 1.7306 0.85065 1.2906 0 2.7573-1.0853 2.7573-2.9333 0-1.056-0.93865-2.0533-2.4053-2.0533zm14.842 9.1226c-0.14666 3.5493-0.14666 3.5493-0.14666 4.4 0 0.93865 0 0.93865 0.0587 2.7866v0.55733h-3.9306c-1.4666 0-1.496 1.2026-1.496 1.672 0 1.3493 1.144 1.4373 1.5253 1.4373 0.99732 0 10.179-0.11733 10.296-0.11733 0-0.38133 0.0293-0.38133 0.0293-0.0293 1.232 0 1.496-0.90932 1.5253-1.496v0c0-0.70399-0.32266-1.144-0.73333-1.32-0.29333-0.11734-0.55732-0.11734-0.70399-0.11734h-3.1386c-0.088-2.288-0.14667-3.872-0.14667-5.1333 0-1.6426 0.088-2.7573 0.176-3.872v0c0-0.38133-0.23466-1.8186-1.76-1.8186-0.29333-0.0293-0.58666-0.0293-0.85065-0.0293-1.3787 0-2.6106 0.088-3.8133 0.176-1.32 0-1.408 1.232-1.408 1.496 0 0.41067 0.20533 1.4373 1.4373 1.4373 0.264 0.0293 0.46933 0.0293 0.67466 0.0293 0.93865 0 1.408-0.0587 1.936-0.0587h0.46932zm1.2907-9.1226c-1.32 0-2.7866 0.82133-2.7866 2.0826 0 0.76266 0.23466 1.4666 0.70399 2.0533 0.44 0.58666 1.0853 0.85065 1.7306 0.85065 1.2906 0 2.7573-1.0853 2.7573-2.9333 0-1.056-0.93865-2.0533-2.4053-2.0533z" stroke-linecap="square" stroke-linejoin="bevel" stroke-width="2.2677" style="paint-order:markers fill stroke" aria-label="ii"/></g></svg>
