<svg width="115mm" height="60mm" version="1.1" viewBox="0 0 115 60" xmlns="http://www.w3.org/2000/svg" xmlns:xlink="http://www.w3.org/1999/xlink"><defs><marker id="g" overflow="visible" markerHeight="0.60000002" markerWidth="0.60000002" orient="auto-start-reverse" preserveAspectRatio="xMidYMid" viewBox="0 0 1 1"><path transform="scale(.5)" d="m5.77 0-8.65 5v-10z" fill="context-stroke" fill-rule="evenodd" stroke="context-stroke" stroke-width="1pt"/></marker><marker id="f" overflow="visible" markerHeight="1" markerWidth="1" orient="auto-start-reverse" preserveAspectRatio="xMidYMid" viewBox="0 0 1 1"><path transform="scale(-.5)" d="m0 0 5-5-17.5 5 17.5 5z" fill="context-stroke" fill-rule="evenodd"/></marker><marker id="a" overflow="visible" markerHeight="1" markerWidth="1" orient="auto-start-reverse" preserveAspectRatio="xMidYMid" viewBox="0 0 1 1"><path transform="scale(-.5)" d="m0 0 5-5-17.5 5 17.5 5z" fill="context-stroke" fill-rule="evenodd"/></marker><path id="s" d="m21 287q1 3 2 8t5 22 10 31 15 33 20 30 26 22 33 9q29 0 51-12t31-22 11-20q2-6 3-6t8 7q48 52 111 52h3q48 0 72-41 8-19 8-37 0-30-13-48t-26-23-25-4q-20 0-32 11t-12 29q0 48 56 64-22 13-36 13-56 0-103-74-10-16-15-33t-34-133q-34-140-39-149-13-27-43-27-13 0-21 6t-11 12-2 10q0 13 40 172t40 177q0 39-26 39-21 0-36-28t-24-61-11-36q-2-2-16-2h-14q-6 6-6 9z"/><path id="b" d="m328 0q-21 3-148 3t-148-3h-11v46h22q49 0 63 3t20 11q2 3 2 282 0 278-2 281-4 5-8 7t-22 5-53 2h-22v46h11q21-3 148-3t148 3h11v-46h-22q-49 0-63-3t-20-11q-2-3-2-281 0-279 2-282 4-5 8-7t22-5 53-2h22v-46z"/><path id="r" d="m41 46h14q39 0 47 14v8q0 9 0 23t0 31 1 39 0 42q0 31 0 66t-1 59v23q-3 19-14 25t-45 9h-18v23q0 23 2 23l10 1q10 1 28 2t37 2q17 1 36 2t29 3 11 1h3v-40q0-38 1-38t5 5 12 15 19 18 29 19 38 16 51 5q15 0 28-2t23-6 19-8 15-9 11-11 9-11 7-11 4-10 3-8l2-5 3 4q3 4 6 8t9 11 13 13 15 13 20 12 23 10 26 7 31 3q126 0 137-113 1-7 1-139v-86q0-38 2-45t11-10q21-3 49-3h16v-46h-8l-23 1q-24 1-51 1t-38 1q-103 0-112-3h-8v46h16q61 0 61 16 1 2 1 138-1 135-2 143-6 28-20 42t-24 17-26 2q-45 0-79-34-27-27-34-55t-8-83v-124q0-30 1-40t3-13 9-6q21-3 49-3h16v-46h-8l-24 1q-23 1-50 1t-38 1q-103 0-112-3h-8v46h16q61 0 61 16 1 2 1 138-1 135-2 143-6 28-20 42t-24 17-26 2q-45 0-79-34-27-27-34-55t-8-83v-124q0-30 1-40t3-13 9-6q21-3 49-3h16v-46h-8l-23 1q-24 1-51 1t-38 1q-103 0-112-3h-8v46z"/><path id="e" d="m131 289q0 32 16 65t56 61 97 27q62 0 90-27t29-60q0-32-17-47t-38-16q-13 0-24 8t-12 26q0 16 9 28t17 18 13 6q1 0 1 1 0 3-7 9t-25 11-39 6q-48 0-70-26t-23-53q0-25 19-35t55-17 52-15q66-29 66-96 0-28-11-56t-33-56-63-44-94-17q-77 0-109 29t-33 68q0 39 21 56t44 17q15 0 28-9t14-31q0-26-18-44t-31-18q-2-1-3-1t-1-2q1-3 8-8t31-13 55-7q36 0 62 11t38 28 17 31 5 25q0 28-21 42t-48 17-59 15-47 35q-17 25-17 58z"/><path id="c" d="m130 622q-7 7-11 9t-16 3-43 3h-33v46h273q76 0 117-6t83-29q95-48 109-131 1-5 1-16 0-33-16-62t-38-47-45-31-39-18l-16-5q3-3 11-6 30-16 49-34t29-44 14-43 9-56 10-61q10-48 24-63t38-15h5q15 0 29 16t18 55q0 11 4 14t16 4 16-2 4-13q0-31-16-63t-44-43q-16-6-42-6-149 6-172 112-2 11-2 73t-7 83q-19 58-76 74l-10 2-66 1h-66v-131l1-131q6-10 17-12t52-3h33v-46h-11q-21 3-142 3-122 0-143-3h-11v46h33q42 1 51 3t19 12zm361-123v10q0 18-1 30t-9 31-19 31-38 22-62 13q-2 0-22 0t-36 1h-21q-45 0-49-9-3-4-3-136v-132h58q101 0 145 18t55 78q2 11 2 43z"/><path id="d" d="m28 218q0 55 20 100t50 73 65 42 66 15q53 0 91-18t58-50 28-64 9-71q0-7-7-14h-282v-15q0-148 100-180 20-6 44-6 42 0 72 32 17 17 27 42l10 24q3 3 16 3h3q17 0 17-10 0-4-3-13-19-55-63-87t-99-32q-95 0-158 69t-64 160zm305 57q-11 128-95 136h-2q-8 0-16-1t-25-8-29-21-23-41-16-66v-7h206z"/><path id="u" d="m376 495q0 16 0 40t1 33q0 45-10 56t-51 13h-18v23q0 23 2 23l10 1q10 1 29 2t37 2q17 1 37 2t30 3 11 1h3v-304q0-306 1-309 3-20 14-26t45-9h18v-46q-2 0-76-5t-79-6h-7v55l-8-7q-58-48-130-48-77 0-139 61t-62 165q0 100 63 163t147 64q75 0 132-49v102zm-3-153q-45 63-113 63-49 0-87-36-27-28-34-64t-8-94q0-56 7-91t35-61q30-33 78-33 71 0 122 77v239z"/><path id="t" d="m409 688q4 6 12 6h21q6-6 6-8 0-7-30-123-7-28-14-59t-12-46l-4-16q0-1 9-1t32-6 48-17q44-21 73-61t29-97-31-109-77-86-97-54-95-21h-4l-24-95q-6-23-13-55-8-32-11-38t-12-7h-6q-20 0-20 7 0 5 22 95l23 92q0 1-8 1-5 0-20 2t-45 14-54 30-45 53-19 82q0 60 33 113t81 86 97 52 88 19q5 0 6 4l30 122q31 119 31 121zm-287-538q0-34 12-59t33-38 36-18 34-8h7l93 377q-4 0-11-1t-29-8-42-16-44-29-41-46q-18-28-33-67-15-46-15-87zm378 132q0 38-16 65t-40 38-39 15-24 4h-3l-46-187-48-188q0-2 1-2 8 0 32 6t40 14q43 19 74 53t44 70 19 64 6 48z"/><path id="w" d="m347 338q-10 0-53 11t-63 11q-20 0-34-4t-23-10-12-11-7-11l-2-4q-3-3-15-3-21 0-21 8 0 5 3 14 13 39 43 67t66 34q12 2 17 2 25 0 45-17t38-33 38-17q22 0 44 33t23 33q1 1 15 1h13q6-6 6-8 0-4-5-14t-14-21-17-22-14-19l-7-9q-43-51-136-135t-115-108l-12-12 15-1q22 0 64-11t63-11q38 0 70 19t42 50q4 9 7 11t15 2q19 0 19-10 0-5-1-9-17-62-66-103t-98-42q-26 0-46 17t-39 34-38 17q-44 0-79-60-6-8-17-8h-18q-6 6-6 9 0 15 58 86 39 45 132 130t115 108q12 16 7 16z"/><path id="v" d="m184 600q0 24 19 42t44 19q18 0 30-12t13-30q0-23-20-42t-44-20q-15 0-28 10t-14 33zm-163-313q0 8 9 31t24 51 44 51 60 22q39 0 65-23t27-62q0-17-14-56t-40-105-42-113q-5-22-5-32 0-25 17-25 9 0 19 3t23 14 27 35 25 59q3 12 5 14t17 2q20 0 20-10 0-8-9-31t-25-51-45-50-62-22q-32 0-59 21t-28 64q0 17 5 32t43 114q38 101 44 121t7 39q0 24-17 24h-2q-30 0-55-33t-38-84q-1-1-2-3t-1-3-2-2-3-1-4 0-8 0h-14q-6 6-6 9z"/><path id="x" d="m131 289q0 32 16 65t56 61 97 27q62 0 90-27t29-60q0-32-17-47t-38-16q-13 0-24 8t-12 26q0 16 9 28t17 18 13 6q1 0 1 1 0 3-7 9t-25 11-39 6q-48 0-70-26t-23-53q0-25 19-35t55-17 52-15q66-29 66-96 0-28-11-56t-33-56-63-44-94-17q-77 0-109 29t-33 68q0 39 21 56t44 17q15 0 28-9t14-31q0-26-18-44t-31-18q-2-1-3-1t-1-2q1-3 8-8t31-13 55-7q36 0 62 11t38 28 17 31 5 25q0 28-21 42t-48 17-59 15-47 35q-17 25-17 58z"/><path id="z" d="m36-148h14q39 0 47 14v8q0 7 0 19t0 30 1 39 0 44 0 49 0 51q0 34 0 71t0 66 0 53-1 39 0 16q-3 19-14 25t-45 9h-18v23q0 23 2 23l10 1q10 1 29 2t37 2q17 1 37 2t30 3 11 1h3v-26l1-26 8 7q59 44 138 44 81 0 138-64t58-161q0-101-65-164t-147-63q-68 0-120 44l-8 7v-141q0-27 2-33t11-11q21-3 49-3h16v-46h-8l-24 1q-23 1-50 1t-38 1q-103 0-112-3h-8v46h16zm388 366q0 74-34 129t-85 55q-71 0-123-65v-239q40-72 112-72 51 0 90 54t40 138z"/><path id="y" d="m213 578-13-5q-14-5-40-10t-58-7h-19v46h19q47 2 87 15t56 24 28 22q2 3 12 3 9 0 17-6v-299l1-300q7-7 12-9t24-4 62-2h26v-46h-11q-21 3-159 3-136 0-157-3h-12v46h26q22 0 38 0t25 1 16 3 8 2 6 5 6 4v517z"/><path id="ae" d="m131 289q0 32 16 65t56 61 97 27q62 0 90-27t29-60q0-32-17-47t-38-16q-13 0-24 8t-12 26q0 16 9 28t17 18 13 6q1 0 1 1 0 3-7 9t-25 11-39 6q-48 0-70-26t-23-53q0-25 19-35t55-17 52-15q66-29 66-96 0-28-11-56t-33-56-63-44-94-17q-77 0-109 29t-33 68q0 39 21 56t44 17q15 0 28-9t14-31q0-26-18-44t-31-18q-2-1-3-1t-1-2q1-3 8-8t31-13 55-7q36 0 62 11t38 28 17 31 5 25q0 28-21 42t-48 17-59 15-47 35q-17 25-17 58z"/><path id="ac" d="m36-148h14q39 0 47 14v8q0 7 0 19t0 30 1 39 0 44 0 49 0 51q0 34 0 71t0 66 0 53-1 39 0 16q-3 19-14 25t-45 9h-18v23q0 23 2 23l10 1q10 1 29 2t37 2q17 1 37 2t30 3 11 1h3v-26l1-26 8 7q59 44 138 44 81 0 138-64t58-161q0-101-65-164t-147-63q-68 0-120 44l-8 7v-141q0-27 2-33t11-11q21-3 49-3h16v-46h-8l-24 1q-23 1-50 1t-38 1q-103 0-112-3h-8v46h16zm388 366q0 74-34 129t-85 55q-71 0-123-65v-239q40-72 112-72 51 0 90 54t40 138z"/><path id="ad" d="m109 429q-27 0-43 18t-16 44q0 71 53 123t132 52q91 0 152-56t62-145q0-43-20-82t-48-68-80-74q-36-31-100-92l-59-56 76-1q157 0 167 5 7 2 24 89v3h40v-3q-1-3-13-91t-15-92v-3h-371v31q0 7 6 15t30 35q29 32 50 56 9 10 34 37t34 37 29 33 28 34 23 30 21 32 15 29 13 32 7 30 3 33q0 63-34 109t-97 46q-33 0-58-17t-35-33-10-19q0-1 5-1 18 0 37-14t19-46q0-25-16-42t-45-18z"/><path id="m" d="m31 249q-20 0-20 9 0 17 15 46t40 61 63 53 77 23q27 0 33-1 48-11 79-54t53-131q14-60 14-85 0-4 1-4l12 27q20 51 45 107t43 91 22 39q2 1 16 1h13q6-6 6-9 0-4-21-44t-59-127-72-180q-6-16-13-65t-21-106q-16-65-27-90t-27-26q-17 0-17 28 0 50 54 220l6 19 1 18q1 10 1 31 0 157-57 217-40 38-95 38-48 0-88-26t-57-69q-2-9-4-9-2-2-16-2z"/><path id="i" d="m56 347q0 13 14 20h637q15-8 15-20 0-11-14-19l-318-1h-318q-16 5-16 20zm0-194q0 15 16 20h636q14-10 14-20 0-13-15-20h-637q-14 7-14 20z"/><path id="n" d="m131 289q0 32 16 65t56 61 97 27q62 0 90-27t29-60q0-32-17-47t-38-16q-13 0-24 8t-12 26q0 16 9 28t17 18 13 6q1 0 1 1 0 3-7 9t-25 11-39 6q-48 0-70-26t-23-53q0-25 19-35t55-17 52-15q66-29 66-96 0-28-11-56t-33-56-63-44-94-17q-77 0-109 29t-33 68q0 39 21 56t44 17q15 0 28-9t14-31q0-26-18-44t-31-18q-2-1-3-1t-1-2q1-3 8-8t31-13 55-7q36 0 62 11t38 28 17 31 5 25q0 28-21 42t-48 17-59 15-47 35q-17 25-17 58z"/><path id="h" d="m36-148h14q39 0 47 14v8q0 7 0 19t0 30 1 39 0 44 0 49 0 51q0 34 0 71t0 66 0 53-1 39 0 16q-3 19-14 25t-45 9h-18v23q0 23 2 23l10 1q10 1 29 2t37 2q17 1 37 2t30 3 11 1h3v-26l1-26 8 7q59 44 138 44 81 0 138-64t58-161q0-101-65-164t-147-63q-68 0-120 44l-8 7v-141q0-27 2-33t11-11q21-3 49-3h16v-46h-8l-24 1q-23 1-50 1t-38 1q-103 0-112-3h-8v46h16zm388 366q0 74-34 129t-85 55q-71 0-123-65v-239q40-72 112-72 51 0 90 54t40 138z"/><path id="j" d="m213 578-13-5q-14-5-40-10t-58-7h-19v46h19q47 2 87 15t56 24 28 22q2 3 12 3 9 0 17-6v-299l1-300q7-7 12-9t24-4 62-2h26v-46h-11q-21 3-159 3-136 0-157-3h-12v46h26q22 0 38 0t25 1 16 3 8 2 6 5 6 4v517z"/><path id="k" d="m56 237t0 13 14 20h299v150l1 150q10 13 19 13 13 0 20-15v-298h298q15-8 15-20t-15-20h-298v-298q-8-14-18-14h-4q-12 0-18 14v298h-299q-14 7-14 20z"/><path id="o" d="m21 287q1 3 2 8t5 22 10 31 15 33 20 30 26 22 33 9q29 0 51-12t31-22 11-20q2-6 3-6t8 7q48 52 111 52h3q48 0 72-41 8-19 8-37 0-30-13-48t-26-23-25-4q-20 0-32 11t-12 29q0 48 56 64-22 13-36 13-56 0-103-74-10-16-15-33t-34-133q-34-140-39-149-13-27-43-27-13 0-21 6t-11 12-2 10q0 13 40 172t40 177q0 39-26 39-21 0-36-28t-24-61-11-36q-2-2-16-2h-14q-6 6-6 9z"/><path id="q" d="m39 168q0 57 19 104t49 78 67 52 70 31 63 9h3q45 0 78-22t33-65q0-90-111-118-49-13-134-14-37 0-38-2 0-2-6-35t-7-58q0-47 21-74t63-28 93 19 92 66q9 10 12 10 4 0 13-9t10-14-9-16-30-27-46-31-63-25-76-10q-79 0-122 53t-44 126zm334 185q-6 52-68 52-33 0-61-14t-45-34-29-41-16-36-5-19q0-1 20-1 113 0 158 24t46 69z"/><path id="p" d="m184 600q0 24 19 42t44 19q18 0 30-12t13-30q0-23-20-42t-44-20q-15 0-28 10t-14 33zm-163-313q0 8 9 31t24 51 44 51 60 22q39 0 65-23t27-62q0-17-14-56t-40-105-42-113q-5-22-5-32 0-25 17-25 9 0 19 3t23 14 27 35 25 59q3 12 5 14t17 2q20 0 20-10 0-8-9-31t-25-51-45-50-62-22q-32 0-59 21t-28 64q0 17 5 32t43 114q38 101 44 121t7 39q0 24-17 24h-2q-30 0-55-33t-38-84q-1-1-2-3t-1-3-2-2-3-1-4 0-8 0h-14q-6 6-6 9z"/><path id="l" d="m409 688q4 6 12 6h21q6-6 6-8 0-7-30-123-7-28-14-59t-12-46l-4-16q0-1 9-1t32-6 48-17q44-21 73-61t29-97-31-109-77-86-97-54-95-21h-4l-24-95q-6-23-13-55-8-32-11-38t-12-7h-6q-20 0-20 7 0 5 22 95l23 92q0 1-8 1-5 0-20 2t-45 14-54 30-45 53-19 82q0 60 33 113t81 86 97 52 88 19q5 0 6 4l30 122q31 119 31 121zm-287-538q0-34 12-59t33-38 36-18 34-8h7l93 377q-4 0-11-1t-29-8-42-16-44-29-41-46q-18-28-33-67-15-46-15-87zm378 132q0 38-16 65t-40 38-39 15-24 4h-3l-46-187-48-188q0-2 1-2 8 0 32 6t40 14q43 19 74 53t44 70 19 64 6 48z"/></defs><g transform="translate(-29.079 -81.952)"><g transform="translate(1.0699 .63084)"><rect x="37.036" y="89.52" width="102.54" height="48.796" rx="0" ry="0" fill="#e7e7e7" opacity=".5"/><g fill="none" stroke-linecap="round" stroke-linejoin="round" stroke-miterlimit="6"><path d="m73.152 115.83a9.5418 9.5418 0 0 1-7.7324 9.7671 9.5418 9.5418 0 0 1-10.803-6.2042 9.5418 9.5418 0 0 1 4.5398-11.601 9.5418 9.5418 0 0 1 12.144 2.7758" marker-start="url(#g)" stroke="#8dae10" stroke-width="1.1277"/><path d="m57.806 123.79a9.5418 9.5418 0 0 1-2.5704-3.0102l8.3836-4.5564z" stroke="#999" stroke-width="1.1277"/><path d="m37.033 133.47v-43.951h97.692" marker-end="url(#a)" marker-start="url(#f)" stroke="#666" stroke-width=".8"/></g><use transform="matrix(.0053999 0 0 -.0053999 61.491 123.03)" fill="#999999" stroke-width="0" data-c="1D45F" xlink:href="#s"/><g fill="#17365c" stroke-width="0"><use transform="matrix(.005401 0 0 -.005401 58.13 112.43)" data-c="1D460" xlink:href="#x"/><g transform="matrix(.0038185 0 0 -.0038185 60.842 113.24)" data-mjx-texclass="ORD" data-mml-node="TeXAtom"><g fill="#17365c" data-mml-node="mi"><use fill="#17365c" data-c="70" xlink:href="#z"/></g></g><g transform="matrix(.0026997 0 0 -.0026997 63.091 113.82)" data-mml-node="mn"><use fill="#17365c" data-c="31" xlink:href="#y"/></g></g><g fill="#666666" stroke-width="0"><use transform="matrix(0 -.0053635 -.0053635 0 34.957 117.41)" data-c="49" xlink:href="#b"/><use transform="matrix(0 -.0053635 -.0053635 0 34.957 115.48)" data-c="6D" xlink:href="#r"/><use transform="matrix(0 -.0053635 -.0053635 0 34.957 110.11)" data-c="1D460" xlink:href="#e"/><use transform="matrix(.0053635 0 0 -.0053635 79.493 87.836)" data-c="52" xlink:href="#c"/><use transform="matrix(.0053635 0 0 -.0053635 83.44 87.836)" data-c="65" xlink:href="#d"/><use transform="matrix(.0053635 0 0 -.0053635 86.717 87.836)" data-c="1D460" xlink:href="#e"/></g><circle cx="37.033" cy="89.517" r="1.2486" fill="#17365c"/><circle cx="122.13" cy="126.15" r="1.408" fill="#17365c" stroke-width="1.1277"/><g fill="#999" stroke-linecap="round" stroke-linejoin="round" stroke-miterlimit="6"><path d="m97.019 103.01q0.34548 0 0.42471-0.0444 0.08239-0.0412 0.08239-0.24722v-3.0396q0-0.21552-0.08239-0.26941-0.07922-0.05387-0.42471-0.05387v-0.20285l0.93501-0.06972v0.42788q0.38984-0.42788 0.90964-0.42788 0.5515 0 0.95402 0.42788 0.40254 0.42788 0.40254 1.0396 0 0.61805-0.4279 1.0459-0.42789 0.42789-1.0206 0.42788-0.32329 0-0.54199-0.16481-0.21552-0.16799-0.25673-0.29159v1.1505q0 0.20919 0.0824 0.25039 0.0824 0.0413 0.4247 0.0413v0.19968q-0.68143-0.019-0.73214-0.019-0.06338 0-0.72899 0.019zm0.95402-1.7971q0 0.0982 0.0127 0.13312 0.0159 0.0348 0.0792 0.13945 0.25673 0.39302 0.6751 0.39302 3e-3 0 6e-3 0 0.37084 0 0.65291-0.37717 0.2821-0.38034 0.2821-0.95084 0-0.54516-0.25673-0.92549-0.25673-0.38034-0.61171-0.38034-0.25356 0-0.47543 0.13628-0.22186 0.1363-0.36449 0.38351zm3.2551 0.38984q-0.42789-0.4247-0.42789-1.0396 0-0.61804 0.41838-1.0681 0.42154-0.45323 1.0238-0.45323 0.58953 0 1.0111 0.45007 0.42472 0.4469 0.42472 1.0713 0 0.61171-0.42789 1.0364-0.42471 0.42472-1.0142 0.42472-0.57684 0-1.0079-0.42155zm0.11093-1.0935q0 0.63073 0.1648 0.91599 0.25357 0.43421 0.7385 0.43421 0.24088 0 0.44056-0.12994 0.20285-0.12996 0.31378-0.34865 0.14264-0.28525 0.14264-0.87161 0-0.62438-0.17117-0.90013-0.25355-0.42154-0.73214-0.42154-0.20919 0-0.41521 0.11093-0.20285 0.10776-0.32646 0.32329-0.1553 0.28525-0.1553 0.88745zm2.7416 1.4422v-0.19968q0.34547 0 0.42471-0.0412 0.0792-0.0443 0.0792-0.25356v-3.3755q0-0.24088-0.0856-0.3011-0.0824-0.06021-0.41838-0.06021v-0.20285l0.93183-0.06972v4.0094q0 0.20919 0.0824 0.25355 0.0824 0.0412 0.42472 0.0412v0.19968q-0.0792 0-0.24406-6e-3 -0.16481-6e-3 -0.28525-9e-3t-0.19017-3e-3q-0.076 0-0.71947 0.019zm1.7622-1.4295q0-0.61171 0.39302-1.0459 0.39301-0.43423 0.95719-0.43422 0.5705 0 0.86527 0.37083 0.29793 0.37083 0.29793 0.9033 0 0.0983-0.0254 0.11727-0.0254 0.019-0.13628 0.019h-1.8129q0 0.66242 0.19651 0.97304 0.27257 0.43421 0.73215 0.43421 0.0634 0 0.13945-0.0127 0.076-0.0127 0.23138-0.0665 0.1553-0.057 0.29159-0.20602 0.13628-0.14896 0.21553-0.3835 0.019-0.0919 0.0824-0.0887 0.0856 0 0.0856 0.0761 0 0.057-0.0634 0.18699-0.0602 0.12678-0.17748 0.27892-0.11728 0.15213-0.34548 0.26624-0.22503 0.11409-0.49761 0.11409-0.57051 0-1.0016-0.43105-0.42787-0.43421-0.42787-1.0713zm0.54516-0.20601h1.5404q0-0.13629-0.0254-0.28844-0.0222-0.15213-0.0919-0.3613-0.0665-0.21236-0.22503-0.34548-0.15848-0.13311-0.39302-0.13311-0.10459 0-0.21869 0.04436-0.11095 0.04436-0.24723 0.15213-0.13629 0.10777-0.23137 0.35182-0.0951 0.24404-0.10776 0.58001zm2.3707 1.5499v-0.85577q0-0.0729 3e-3 -0.0982 3e-3 -0.0254 0.0222-0.0443 0.019-0.019 0.057-0.019 0.0443 0 0.0602 0.019 0.019 0.019 0.0317 0.0919 0.0982 0.4469 0.30744 0.6846 0.21236 0.23454 0.59587 0.23454 0.36449 0 0.54831-0.16164 0.18384-0.16165 0.18384-0.42787 0-0.47543-0.67511-0.59586-0.38984-0.0792-0.55148-0.12996-0.16165-0.0539-0.30427-0.17115-0.27893-0.22821-0.27893-0.55149 0-0.32329 0.24406-0.56101 0.24722-0.23771 0.79238-0.23771 0.36448 0 0.61171 0.18383 0.0729-0.05703 0.11093-0.10459 0.0856-0.07923 0.12994-0.07923 0.0507 0 0.0602 0.03485 9e-3 0.03169 9e-3 0.12361v0.65291q0 0.07288-3e-3 0.09823-3e-3 0.0254-0.0222 0.0443-0.019 0.0159-0.0602 0.0159-0.0729 0-0.0761-0.0602-0.0507-0.78603-0.76067-0.78603-0.38353 0-0.55468 0.14897-0.17115 0.1458-0.17115 0.34546 0 0.11093 0.0507 0.19651 0.0538 0.0824 0.12044 0.13312 0.0697 0.0475 0.19651 0.0951 0.12678 0.0443 0.20285 0.0602 0.0792 0.0159 0.2282 0.0475 0.51981 0.0982 0.7385 0.31061 0.27257 0.27259 0.27257 0.61805 0 0.38352-0.2599 0.64341-0.2599 0.2599-0.78287 0.2599-0.42153 0-0.7163-0.28208-0.038 0.038-0.0665 0.0729-0.0285 0.0317-0.0412 0.0444-9e-3 0.0127-0.0127 0.0222-3e-3 6e-3 -9e-3 0.0127-0.12995 0.12994-0.16164 0.12994-0.0507 0-0.0602-0.0348-9e-3 -0.0317-9e-3 -0.12362z" stroke-width=".51111" aria-label="poles"/><path d="m120.51 123.23c-3.135-6.3977-6.2699-12.795-9.4049-19.192" stroke="#999" stroke-width=".33831"/><path d="m65.456 115.4c9.8852-4.0264 19.771-8.0528 29.655-12.079" stroke="#999" stroke-width=".33831"/></g><circle cx="63.62" cy="116.23" r="1.408" fill="#17365c" stroke-width="1.1277"/><g transform="translate(.7276 .33073)" fill="#999999" stroke-width="0"><use transform="matrix(.0043411 0 0 -.0043411 49.643 127.03)" data-c="64" xlink:href="#u"/><use transform="matrix(.0043411 0 0 -.0043411 52.057 127.03)" data-c="1D719" xlink:href="#t"/></g><g fill="#5a6f0b" stroke-width="1.1277"><circle cx="54.118" cy="117.1" r=".573"/><circle cx="54.638" cy="113.01" r=".573"/><circle cx="56.655" cy="109.7" r=".573"/><circle cx="60.5" cy="107.21" r=".573"/><circle cx="64.849" cy="106.77" r=".573"/><circle cx="68.661" cy="108.13" r=".573"/><circle cx="71.303" cy="110.57" r=".573"/><circle cx="55.237" cy="120.79" r=".573"/><circle cx="57.807" cy="123.8" r=".573"/><circle cx="61.72" cy="125.58" r=".573"/><circle cx="66.09" cy="125.45" r=".573"/><circle cx="69.637" cy="123.63" r=".573"/><circle cx="72.009" cy="120.78" r=".573"/><circle cx="73.108" cy="117.24" r=".573"/></g><g transform="matrix(1.21 0 0 1.21 -10.793 -25.776)" fill="#5a6f0b" stroke-width="0"><use transform="matrix(.0042642 0 0 -.0042642 50.249 122.2)" data-c="1D467" xlink:href="#w"/><use transform="matrix(.0030148 0 0 -.0030148 52.372 122.84)" data-c="1D456" xlink:href="#v"/></g><g fill="#8dae10" stroke-width="0"><use transform="matrix(.0066497 0 0 -.0066497 60.008 131.87)" data-c="1D6FE" xlink:href="#m"/><use transform="matrix(.0066497 0 0 -.0066497 65.466 131.87)" data-c="3D" xlink:href="#i"/><use transform="matrix(.0066497 0 0 -.0066497 72.487 131.87)" data-c="1D460" xlink:href="#n"/><g transform="matrix(.0047014 0 0 -.0047014 75.825 132.87)" stroke="#000" data-mjx-texclass="ORD" data-mml-node="TeXAtom"><g fill="#8dae10" data-mml-node="mi"><use fill="#8dae10" data-c="70" xlink:href="#h"/></g></g><g transform="matrix(.0033238 0 0 -.0033238 78.594 133.58)" stroke="#000" data-mml-node="mn"><use fill="#8dae10" data-c="31" xlink:href="#j"/></g><use transform="matrix(.0066497 0 0 -.0066497 82.302 131.87)" data-c="2B" xlink:href="#k"/><use transform="matrix(.0066497 0 0 -.0066497 88.953 131.87)" data-c="1D45F" xlink:href="#o"/><use transform="matrix(.0066497 0 0 -.0066497 91.952 131.87)" data-c="1D452" xlink:href="#q"/><use transform="matrix(.0047014 0 0 -.0047014 95.27 129.13)" data-c="1D456" xlink:href="#p"/><use transform="matrix(.0047014 0 0 -.0047014 96.892 129.13)" data-c="1D719" xlink:href="#l"/></g></g><g transform="matrix(.005401 0 0 -.005401 126.07 125.67)" fill="#17365c" stroke-width="0" data-mml-node="msub"><g data-mml-node="mi"><use fill="#17365c" data-c="1D460" xlink:href="#ae"/></g><g transform="matrix(.707 0 0 .707 502 -150)" data-mjx-texclass="ORD" data-mml-node="TeXAtom"><g fill="#17365c" data-mml-node="msub"><g data-mjx-texclass="ORD" data-mml-node="TeXAtom"><g fill="#17365c" data-mml-node="mi"><use fill="#17365c" data-c="70" xlink:href="#ac"/></g></g><g transform="matrix(.707 0 0 .707 589 -150)" data-mml-node="mn"><use fill="#17365c" data-c="32" xlink:href="#ad"/></g></g></g></g></g></svg>
