<svg width="115mm" height="60mm" version="1.1" viewBox="0 0 115 60" xmlns="http://www.w3.org/2000/svg" xmlns:xlink="http://www.w3.org/1999/xlink"><defs><marker id="g" overflow="visible" markerHeight="0.60000002" markerWidth="0.60000002" orient="auto-start-reverse" preserveAspectRatio="xMidYMid" viewBox="0 0 1 1"><path transform="scale(.5)" d="m5.77 0-8.65 5v-10z" fill="context-stroke" fill-rule="evenodd" stroke="context-stroke" stroke-width="1pt"/></marker><marker id="f" overflow="visible" markerHeight="1" markerWidth="1" orient="auto-start-reverse" preserveAspectRatio="xMidYMid" viewBox="0 0 1 1"><path transform="scale(-.5)" d="m0 0 5-5-17.5 5 17.5 5z" fill="context-stroke" fill-rule="evenodd"/></marker><marker id="ar" overflow="visible" markerHeight="1" markerWidth="1" orient="auto-start-reverse" preserveAspectRatio="xMidYMid" viewBox="0 0 1 1"><path transform="scale(-.5)" d="m0 0 5-5-17.5 5 17.5 5z" fill="context-stroke" fill-rule="evenodd"/></marker><path id="am" d="m21 287q1 3 2 8t5 22 10 31 15 33 20 30 26 22 33 9q29 0 51-12t31-22 11-20q2-6 3-6t8 7q48 52 111 52h3q48 0 72-41 8-19 8-37 0-30-13-48t-26-23-25-4q-20 0-32 11t-12 29q0 48 56 64-22 13-36 13-56 0-103-74-10-16-15-33t-34-133q-34-140-39-149-13-27-43-27-13 0-21 6t-11 12-2 10q0 13 40 172t40 177q0 39-26 39-21 0-36-28t-24-61-11-36q-2-2-16-2h-14q-6 6-6 9z"/><path id="aq" d="m328 0q-21 3-148 3t-148-3h-11v46h22q49 0 63 3t20 11q2 3 2 282 0 278-2 281-4 5-8 7t-22 5-53 2h-22v46h11q21-3 148-3t148 3h11v-46h-22q-49 0-63-3t-20-11q-2-3-2-281 0-279 2-282 4-5 8-7t22-5 53-2h22v-46z"/><path id="an" d="m41 46h14q39 0 47 14v8q0 9 0 23t0 31 1 39 0 42q0 31 0 66t-1 59v23q-3 19-14 25t-45 9h-18v23q0 23 2 23l10 1q10 1 28 2t37 2q17 1 36 2t29 3 11 1h3v-40q0-38 1-38t5 5 12 15 19 18 29 19 38 16 51 5q15 0 28-2t23-6 19-8 15-9 11-11 9-11 7-11 4-10 3-8l2-5 3 4q3 4 6 8t9 11 13 13 15 13 20 12 23 10 26 7 31 3q126 0 137-113 1-7 1-139v-86q0-38 2-45t11-10q21-3 49-3h16v-46h-8l-23 1q-24 1-51 1t-38 1q-103 0-112-3h-8v46h16q61 0 61 16 1 2 1 138-1 135-2 143-6 28-20 42t-24 17-26 2q-45 0-79-34-27-27-34-55t-8-83v-124q0-30 1-40t3-13 9-6q21-3 49-3h16v-46h-8l-24 1q-23 1-50 1t-38 1q-103 0-112-3h-8v46h16q61 0 61 16 1 2 1 138-1 135-2 143-6 28-20 42t-24 17-26 2q-45 0-79-34-27-27-34-55t-8-83v-124q0-30 1-40t3-13 9-6q21-3 49-3h16v-46h-8l-23 1q-24 1-51 1t-38 1q-103 0-112-3h-8v46z"/><path id="e" d="m131 289q0 32 16 65t56 61 97 27q62 0 90-27t29-60q0-32-17-47t-38-16q-13 0-24 8t-12 26q0 16 9 28t17 18 13 6q1 0 1 1 0 3-7 9t-25 11-39 6q-48 0-70-26t-23-53q0-25 19-35t55-17 52-15q66-29 66-96 0-28-11-56t-33-56-63-44-94-17q-77 0-109 29t-33 68q0 39 21 56t44 17q15 0 28-9t14-31q0-26-18-44t-31-18q-2-1-3-1t-1-2q1-3 8-8t31-13 55-7q36 0 62 11t38 28 17 31 5 25q0 28-21 42t-48 17-59 15-47 35q-17 25-17 58z"/><path id="ap" d="m130 622q-7 7-11 9t-16 3-43 3h-33v46h273q76 0 117-6t83-29q95-48 109-131 1-5 1-16 0-33-16-62t-38-47-45-31-39-18l-16-5q3-3 11-6 30-16 49-34t29-44 14-43 9-56 10-61q10-48 24-63t38-15h5q15 0 29 16t18 55q0 11 4 14t16 4 16-2 4-13q0-31-16-63t-44-43q-16-6-42-6-149 6-172 112-2 11-2 73t-7 83q-19 58-76 74l-10 2-66 1h-66v-131l1-131q6-10 17-12t52-3h33v-46h-11q-21 3-142 3-122 0-143-3h-11v46h33q42 1 51 3t19 12zm361-123v10q0 18-1 30t-9 31-19 31-38 22-62 13q-2 0-22 0t-36 1h-21q-45 0-49-9-3-4-3-136v-132h58q101 0 145 18t55 78q2 11 2 43z"/><path id="ao" d="m28 218q0 55 20 100t50 73 65 42 66 15q53 0 91-18t58-50 28-64 9-71q0-7-7-14h-282v-15q0-148 100-180 20-6 44-6 42 0 72 32 17 17 27 42l10 24q3 3 16 3h3q17 0 17-10 0-4-3-13-19-55-63-87t-99-32q-95 0-158 69t-64 160zm305 57q-11 128-95 136h-2q-8 0-16-1t-25-8-29-21-23-41-16-66v-7h206z"/><path id="ak" d="m376 495q0 16 0 40t1 33q0 45-10 56t-51 13h-18v23q0 23 2 23l10 1q10 1 29 2t37 2q17 1 37 2t30 3 11 1h3v-304q0-306 1-309 3-20 14-26t45-9h18v-46q-2 0-76-5t-79-6h-7v55l-8-7q-58-48-130-48-77 0-139 61t-62 165q0 100 63 163t147 64q75 0 132-49v102zm-3-153q-45 63-113 63-49 0-87-36-27-28-34-64t-8-94q0-56 7-91t35-61q30-33 78-33 71 0 122 77v239z"/><path id="al" d="m409 688q4 6 12 6h21q6-6 6-8 0-7-30-123-7-28-14-59t-12-46l-4-16q0-1 9-1t32-6 48-17q44-21 73-61t29-97-31-109-77-86-97-54-95-21h-4l-24-95q-6-23-13-55-8-32-11-38t-12-7h-6q-20 0-20 7 0 5 22 95l23 92q0 1-8 1-5 0-20 2t-45 14-54 30-45 53-19 82q0 60 33 113t81 86 97 52 88 19q5 0 6 4l30 122q31 119 31 121zm-287-538q0-34 12-59t33-38 36-18 34-8h7l93 377q-4 0-11-1t-29-8-42-16-44-29-41-46q-18-28-33-67-15-46-15-87zm378 132q0 38-16 65t-40 38-39 15-24 4h-3l-46-187-48-188q0-2 1-2 8 0 32 6t40 14q43 19 74 53t44 70 19 64 6 48z"/><path id="ai" d="m347 338q-10 0-53 11t-63 11q-20 0-34-4t-23-10-12-11-7-11l-2-4q-3-3-15-3-21 0-21 8 0 5 3 14 13 39 43 67t66 34q12 2 17 2 25 0 45-17t38-33 38-17q22 0 44 33t23 33q1 1 15 1h13q6-6 6-8 0-4-5-14t-14-21-17-22-14-19l-7-9q-43-51-136-135t-115-108l-12-12 15-1q22 0 64-11t63-11q38 0 70 19t42 50q4 9 7 11t15 2q19 0 19-10 0-5-1-9-17-62-66-103t-98-42q-26 0-46 17t-39 34-38 17q-44 0-79-60-6-8-17-8h-18q-6 6-6 9 0 15 58 86 39 45 132 130t115 108q12 16 7 16z"/><path id="aj" d="m184 600q0 24 19 42t44 19q18 0 30-12t13-30q0-23-20-42t-44-20q-15 0-28 10t-14 33zm-163-313q0 8 9 31t24 51 44 51 60 22q39 0 65-23t27-62q0-17-14-56t-40-105-42-113q-5-22-5-32 0-25 17-25 9 0 19 3t23 14 27 35 25 59q3 12 5 14t17 2q20 0 20-10 0-8-9-31t-25-51-45-50-62-22q-32 0-59 21t-28 64q0 17 5 32t43 114q38 101 44 121t7 39q0 24-17 24h-2q-30 0-55-33t-38-84q-1-1-2-3t-1-3-2-2-3-1-4 0-8 0h-14q-6 6-6 9z"/><path id="ah" d="m131 289q0 32 16 65t56 61 97 27q62 0 90-27t29-60q0-32-17-47t-38-16q-13 0-24 8t-12 26q0 16 9 28t17 18 13 6q1 0 1 1 0 3-7 9t-25 11-39 6q-48 0-70-26t-23-53q0-25 19-35t55-17 52-15q66-29 66-96 0-28-11-56t-33-56-63-44-94-17q-77 0-109 29t-33 68q0 39 21 56t44 17q15 0 28-9t14-31q0-26-18-44t-31-18q-2-1-3-1t-1-2q1-3 8-8t31-13 55-7q36 0 62 11t38 28 17 31 5 25q0 28-21 42t-48 17-59 15-47 35q-17 25-17 58z"/><path id="af" d="m36-148h14q39 0 47 14v8q0 7 0 19t0 30 1 39 0 44 0 49 0 51q0 34 0 71t0 66 0 53-1 39 0 16q-3 19-14 25t-45 9h-18v23q0 23 2 23l10 1q10 1 29 2t37 2q17 1 37 2t30 3 11 1h3v-26l1-26 8 7q59 44 138 44 81 0 138-64t58-161q0-101-65-164t-147-63q-68 0-120 44l-8 7v-141q0-27 2-33t11-11q21-3 49-3h16v-46h-8l-24 1q-23 1-50 1t-38 1q-103 0-112-3h-8v46h16zm388 366q0 74-34 129t-85 55q-71 0-123-65v-239q40-72 112-72 51 0 90 54t40 138z"/><path id="ag" d="m213 578-13-5q-14-5-40-10t-58-7h-19v46h19q47 2 87 15t56 24 28 22q2 3 12 3 9 0 17-6v-299l1-300q7-7 12-9t24-4 62-2h26v-46h-11q-21 3-159 3-136 0-157-3h-12v46h26q22 0 38 0t25 1 16 3 8 2 6 5 6 4v517z"/><path id="ae" d="m131 289q0 32 16 65t56 61 97 27q62 0 90-27t29-60q0-32-17-47t-38-16q-13 0-24 8t-12 26q0 16 9 28t17 18 13 6q1 0 1 1 0 3-7 9t-25 11-39 6q-48 0-70-26t-23-53q0-25 19-35t55-17 52-15q66-29 66-96 0-28-11-56t-33-56-63-44-94-17q-77 0-109 29t-33 68q0 39 21 56t44 17q15 0 28-9t14-31q0-26-18-44t-31-18q-2-1-3-1t-1-2q1-3 8-8t31-13 55-7q36 0 62 11t38 28 17 31 5 25q0 28-21 42t-48 17-59 15-47 35q-17 25-17 58z"/><path id="ac" d="m36-148h14q39 0 47 14v8q0 7 0 19t0 30 1 39 0 44 0 49 0 51q0 34 0 71t0 66 0 53-1 39 0 16q-3 19-14 25t-45 9h-18v23q0 23 2 23l10 1q10 1 29 2t37 2q17 1 37 2t30 3 11 1h3v-26l1-26 8 7q59 44 138 44 81 0 138-64t58-161q0-101-65-164t-147-63q-68 0-120 44l-8 7v-141q0-27 2-33t11-11q21-3 49-3h16v-46h-8l-24 1q-23 1-50 1t-38 1q-103 0-112-3h-8v46h16zm388 366q0 74-34 129t-85 55q-71 0-123-65v-239q40-72 112-72 51 0 90 54t40 138z"/><path id="ad" d="m109 429q-27 0-43 18t-16 44q0 71 53 123t132 52q91 0 152-56t62-145q0-43-20-82t-48-68-80-74q-36-31-100-92l-59-56 76-1q157 0 167 5 7 2 24 89v3h40v-3q-1-3-13-91t-15-92v-3h-371v31q0 7 6 15t30 35q29 32 50 56 9 10 34 37t34 37 29 33 28 34 23 30 21 32 15 29 13 32 7 30 3 33q0 63-34 109t-97 46q-33 0-58-17t-35-33-10-19q0-1 5-1 18 0 37-14t19-46q0-25-16-42t-45-18z"/><path id="v" d="m130 622q-7 7-11 9t-16 3-43 3h-33v46h273q76 0 117-6t83-29q95-48 109-131 1-5 1-16 0-33-16-62t-38-47-45-31-39-18l-16-5q3-3 11-6 30-16 49-34t29-44 14-43 9-56 10-61q10-48 24-63t38-15h5q15 0 29 16t18 55q0 11 4 14t16 4 16-2 4-13q0-31-16-63t-44-43q-16-6-42-6-149 6-172 112-2 11-2 73t-7 83q-19 58-76 74l-10 2-66 1h-66v-131l1-131q6-10 17-12t52-3h33v-46h-11q-21 3-142 3-122 0-143-3h-11v46h33q42 1 51 3t19 12v561zm361-123v10q0 18-1 30t-9 31-19 31-38 22-62 13q-2 0-22 0t-36 1h-21q-45 0-49-9-3-4-3-136v-132h58q101 0 145 18t55 78q2 11 2 43z"/><path id="t" d="m28 218q0 55 20 100t50 73 65 42 66 15q53 0 91-18t58-50 28-64 9-71q0-7-7-14h-282v-15q0-148 100-180 20-6 44-6 42 0 72 32 17 17 27 42l10 24q3 3 16 3h3q17 0 17-10 0-4-3-13-19-55-63-87t-99-32q-95 0-158 69t-64 160zm305 57q-11 128-95 136h-2q-8 0-16-1t-25-8-29-21-23-41-16-66v-7h206v8z"/><path id="r" d="m295 316q0 40-27 69t-78 29q-36 0-62-13-30-19-30-52-1-5 0-13t16-24 43-25q18-5 44-9t44-9 32-13q17-8 33-20t32-41 17-62q0-62-38-102t-123-41h-8q-52 0-96 36l-8-7-9-9q-6-6-12-11l-11-10h-12q-3 0-9 6v137q0 21 2 25t10 5h9q12 0 16-4t5-12 7-27 19-42q35-51 97-51 97 0 97 78 0 29-18 47-20 24-83 36t-83 23q-36 17-57 46t-21 62q0 39 17 66t43 40 50 18 44 5h11q40 0 70-15l15-8 9 7q10 9 22 17h12q3 0 9-6v-132l-6-6h-28q-6 6-6 12z"/><path id="b" d="m94 250q0 69 10 131t23 107 37 88 38 67 42 52 33 34 25 21h17q14 0 14-9 0-3-17-21t-41-53-49-86-42-138-17-193 17-192 41-139 49-86 42-53 17-21q0-9-15-9h-16l-28 24q-94 85-137 212t-43 264z"/><path id="d" d="m40 437q-19 0-19 8 0 5 16 56t34 101l17 49q5 18 13 26h558q32 0 38-1t7-9q0-6-17-114t-19-109q0-7-19-7-9 0-12 0t-6 5l-2 3q0 6 6 45t6 61q0 35-13 53t-55 25q-5 1-58 2-46 0-58-1t-18-8q-1-1-71-279t-70-283q0-12 88-14 32 0 41-1t9-9q0-5-3-14-4-18-9-21l-2-1q-3 0-7 0-5 0-52 1t-135 1q-129 0-164-2h-15q-6 6-6 9t2 18q4 13 10 19h39q80 0 95 9 1 1 2 1 5 3 10 20t40 157q17 68 28 111 70 275 70 281 0 5-29 5h-31q-67 0-88-6-45-10-70-41t-54-116q-7-22-10-26t-14-4h-3z"/><path id="y" d="m78 35t0 25 16 43 43 18q28 0 50-25t23-88q0-35-9-68t-21-57-26-41-24-27-13-9q-4 0-13 9t-9 13q0 4 11 16t25 30 26 50 16 73v12l-1-1q-2-1-5-2t-6-3-9-2-12-1q-27 0-44 17z"/><path id="ab" d="m131 289q0 32 16 65t56 61 97 27q62 0 90-27t29-60q0-32-17-47t-38-16q-13 0-24 8t-12 26q0 16 9 28t17 18 13 6q1 0 1 1 0 3-7 9t-25 11-39 6q-48 0-70-26t-23-53q0-25 19-35t55-17 52-15q66-29 66-96 0-28-11-56t-33-56-63-44-94-17q-77 0-109 29t-33 68q0 39 21 56t44 17q15 0 28-9t14-31q0-26-18-44t-31-18q-2-1-3-1t-1-2q1-3 8-8t31-13 55-7q36 0 62 11t38 28 17 31 5 25q0 28-21 42t-48 17-59 15-47 35q-17 25-17 58z"/><path id="s" d="m36-148h14q39 0 47 14v8q0 7 0 19t0 30 1 39 0 44 0 49 0 51q0 34 0 71t0 66 0 53-1 39 0 16q-3 19-14 25t-45 9h-18v23q0 23 2 23l10 1q10 1 29 2t37 2q17 1 37 2t30 3 11 1h3v-26l1-26 8 7q59 44 138 44 81 0 138-64t58-161q0-101-65-164t-147-63q-68 0-120 44l-8 7v-141q0-27 2-33t11-11q21-3 49-3h16v-46h-8l-24 1q-23 1-50 1t-38 1q-103 0-112-3h-8v46h16zm388 366q0 74-34 129t-85 55q-71 0-123-65v-239q40-72 112-72 51 0 90 54t40 138z"/><path id="x" d="m213 578-13-5q-14-5-40-10t-58-7h-19v46h19q47 2 87 15t56 24 28 22q2 3 12 3 9 0 17-6v-299l1-300q7-7 12-9t24-4 62-2h26v-46h-11q-21 3-159 3-136 0-157-3h-12v46h26q22 0 38 0t25 1 16 3 8 2 6 5 6 4v517z"/><path id="a" d="m60 749 4 1q5 0 10 0h12l28-24q94-85 137-212t43-264q0-68-10-131t-23-107-37-88-38-67-41-51-32-33-23-19q-3-3-4-4h-12q-8 0-11 0t-5 3-3 9q1 1 11 13 155 161 155 475t-155 475q-10 12-11 13 0 8 5 11z"/><path id="w" d="m56 347q0 13 14 20h637q15-8 15-20 0-11-14-19l-318-1h-318q-16 5-16 20zm0-194q0 15 16 20h636q14-10 14-20 0-13-15-20h-637q-14 7-14 20z"/><path id="z" d="m114-798q18-26 51-26h2q28 0 56 60t52 164 45 209 42 227q3 21 5 31 15 81 23 135-76 38-114 97-46 68-46 150 0 114 75 187t179 83h10l9 44q84 376 129 524t95 211q47 62 101 62 56 0 84-35t32-80q0-25-12-40t-23-19-22-3q-21 0-38 15t-17 41q0 48 53 57l-3 4q-3 3-8 7t-8 6q-15 10-33 10-67 0-145-394-26-118-78-433 160-80 160-247 0-102-69-181t-185-89h-10l-9-44q-90-399-140-558t-120-214q-34-25-72-25-40 0-73 31t-37 85q0 35 19 48t38 13q21 0 38-15t17-41q0-48-53-57zm366 1276q-20 0-45-8t-55-26-53-43-40-66-16-86q0-125 104-193l22-13 34 180 54 255h-5zm39-458q26 0 59 13t69 39 59 72 24 105q0 134-127 206 0-1-6-34t-15-78-13-67q-53-254-54-256h4z"/><path id="aa" d="m31 249q-20 0-20 9 0 17 15 46t40 61 63 53 77 23q27 0 33-1 48-11 79-54t53-131q14-60 14-85 0-4 1-4l12 27q20 51 45 107t43 91 22 39q2 1 16 1h13q6-6 6-9 0-4-21-44t-59-127-72-180q-6-16-13-65t-21-106q-16-65-27-90t-27-26q-17 0-17 28 0 50 54 220l6 19 1 18q1 10 1 31 0 157-57 217-40 38-95 38-48 0-88-26t-57-69q-2-9-4-9-2-2-16-2z"/><path id="c" d="m347 338q-10 0-53 11t-63 11q-20 0-34-4t-23-10-12-11-7-11l-2-4q-3-3-15-3-21 0-21 8 0 5 3 14 13 39 43 67t66 34q12 2 17 2 25 0 45-17t38-33 38-17q22 0 44 33t23 33q1 1 15 1h13q6-6 6-8 0-4-5-14t-14-21-17-22-14-19l-7-9q-43-51-136-135t-115-108l-12-12 15-1q22 0 64-11t63-11q38 0 70 19t42 50q4 9 7 11t15 2q19 0 19-10 0-5-1-9-17-62-66-103t-98-42q-26 0-46 17t-39 34-38 17q-44 0-79-60-6-8-17-8h-18q-6 6-6 9 0 15 58 86 39 45 132 130t115 108q12 16 7 16z"/><path id="u" d="m376 495q0 16 0 40t1 33q0 45-10 56t-51 13h-18v23q0 23 2 23l10 1q10 1 29 2t37 2q17 1 37 2t30 3 11 1h3v-304q0-306 1-309 3-20 14-26t45-9h18v-46q-2 0-76-5t-79-6h-7v55l-8-7q-58-48-130-48-77 0-139 61t-62 165q0 100 63 163t147 64q75 0 132-49v102zm-3-153q-45 63-113 63-49 0-87-36-27-28-34-64t-8-94q0-56 7-91t35-61q30-33 78-33 71 0 122 77v239z"/><path id="m" d="m31 249q-20 0-20 9 0 17 15 46t40 61 63 53 77 23q27 0 33-1 48-11 79-54t53-131q14-60 14-85 0-4 1-4l12 27q20 51 45 107t43 91 22 39q2 1 16 1h13q6-6 6-9 0-4-21-44t-59-127-72-180q-6-16-13-65t-21-106q-16-65-27-90t-27-26q-17 0-17 28 0 50 54 220l6 19 1 18q1 10 1 31 0 157-57 217-40 38-95 38-48 0-88-26t-57-69q-2-9-4-9-2-2-16-2z"/><path id="i" d="m56 347q0 13 14 20h637q15-8 15-20 0-11-14-19l-318-1h-318q-16 5-16 20zm0-194q0 15 16 20h636q14-10 14-20 0-13-15-20h-637q-14 7-14 20z"/><path id="n" d="m131 289q0 32 16 65t56 61 97 27q62 0 90-27t29-60q0-32-17-47t-38-16q-13 0-24 8t-12 26q0 16 9 28t17 18 13 6q1 0 1 1 0 3-7 9t-25 11-39 6q-48 0-70-26t-23-53q0-25 19-35t55-17 52-15q66-29 66-96 0-28-11-56t-33-56-63-44-94-17q-77 0-109 29t-33 68q0 39 21 56t44 17q15 0 28-9t14-31q0-26-18-44t-31-18q-2-1-3-1t-1-2q1-3 8-8t31-13 55-7q36 0 62 11t38 28 17 31 5 25q0 28-21 42t-48 17-59 15-47 35q-17 25-17 58z"/><path id="h" d="m36-148h14q39 0 47 14v8q0 7 0 19t0 30 1 39 0 44 0 49 0 51q0 34 0 71t0 66 0 53-1 39 0 16q-3 19-14 25t-45 9h-18v23q0 23 2 23l10 1q10 1 29 2t37 2q17 1 37 2t30 3 11 1h3v-26l1-26 8 7q59 44 138 44 81 0 138-64t58-161q0-101-65-164t-147-63q-68 0-120 44l-8 7v-141q0-27 2-33t11-11q21-3 49-3h16v-46h-8l-24 1q-23 1-50 1t-38 1q-103 0-112-3h-8v46h16zm388 366q0 74-34 129t-85 55q-71 0-123-65v-239q40-72 112-72 51 0 90 54t40 138z"/><path id="j" d="m213 578-13-5q-14-5-40-10t-58-7h-19v46h19q47 2 87 15t56 24 28 22q2 3 12 3 9 0 17-6v-299l1-300q7-7 12-9t24-4 62-2h26v-46h-11q-21 3-159 3-136 0-157-3h-12v46h26q22 0 38 0t25 1 16 3 8 2 6 5 6 4v517z"/><path id="k" d="m56 237t0 13 14 20h299v150l1 150q10 13 19 13 13 0 20-15v-298h298q15-8 15-20t-15-20h-298v-298q-8-14-18-14h-4q-12 0-18 14v298h-299q-14 7-14 20z"/><path id="o" d="m21 287q1 3 2 8t5 22 10 31 15 33 20 30 26 22 33 9q29 0 51-12t31-22 11-20q2-6 3-6t8 7q48 52 111 52h3q48 0 72-41 8-19 8-37 0-30-13-48t-26-23-25-4q-20 0-32 11t-12 29q0 48 56 64-22 13-36 13-56 0-103-74-10-16-15-33t-34-133q-34-140-39-149-13-27-43-27-13 0-21 6t-11 12-2 10q0 13 40 172t40 177q0 39-26 39-21 0-36-28t-24-61-11-36q-2-2-16-2h-14q-6 6-6 9z"/><path id="q" d="m39 168q0 57 19 104t49 78 67 52 70 31 63 9h3q45 0 78-22t33-65q0-90-111-118-49-13-134-14-37 0-38-2 0-2-6-35t-7-58q0-47 21-74t63-28 93 19 92 66q9 10 12 10 4 0 13-9t10-14-9-16-30-27-46-31-63-25-76-10q-79 0-122 53t-44 126zm334 185q-6 52-68 52-33 0-61-14t-45-34-29-41-16-36-5-19q0-1 20-1 113 0 158 24t46 69z"/><path id="p" d="m184 600q0 24 19 42t44 19q18 0 30-12t13-30q0-23-20-42t-44-20q-15 0-28 10t-14 33zm-163-313q0 8 9 31t24 51 44 51 60 22q39 0 65-23t27-62q0-17-14-56t-40-105-42-113q-5-22-5-32 0-25 17-25 9 0 19 3t23 14 27 35 25 59q3 12 5 14t17 2q20 0 20-10 0-8-9-31t-25-51-45-50-62-22q-32 0-59 21t-28 64q0 17 5 32t43 114q38 101 44 121t7 39q0 24-17 24h-2q-30 0-55-33t-38-84q-1-1-2-3t-1-3-2-2-3-1-4 0-8 0h-14q-6 6-6 9z"/><path id="l" d="m409 688q4 6 12 6h21q6-6 6-8 0-7-30-123-7-28-14-59t-12-46l-4-16q0-1 9-1t32-6 48-17q44-21 73-61t29-97-31-109-77-86-97-54-95-21h-4l-24-95q-6-23-13-55-8-32-11-38t-12-7h-6q-20 0-20 7 0 5 22 95l23 92q0 1-8 1-5 0-20 2t-45 14-54 30-45 53-19 82q0 60 33 113t81 86 97 52 88 19q5 0 6 4l30 122q31 119 31 121zm-287-538q0-34 12-59t33-38 36-18 34-8h7l93 377q-4 0-11-1t-29-8-42-16-44-29-41-46q-18-28-33-67-15-46-15-87zm378 132q0 38-16 65t-40 38-39 15-24 4h-3l-46-187-48-188q0-2 1-2 8 0 32 6t40 14q43 19 74 53t44 70 19 64 6 48z"/></defs><g transform="translate(-29.079 -81.952)"><g transform="translate(1.0699 .63084)"><rect x="37.036" y="89.52" width="102.54" height="48.796" rx="0" ry="0" fill="#e7e7e7" opacity=".5"/><g fill="none" stroke-linecap="round" stroke-linejoin="round" stroke-miterlimit="6"><path transform="rotate(-15)" d="m44.83 134.58a8.4613 8.4613 0 0 1-8.8648 6.5913 8.4613 8.4613 0 0 1-7.8289-7.7935 8.4613 8.4613 0 0 1 6.551-8.8946 8.4613 8.4613 0 0 1 9.765 5.1648" marker-start="url(#g)" stroke="#8dae10"/><path transform="rotate(-15)" d="m29.858 137.88a8.4613 8.4613 0 0 1-1.5108-3.1683l8.2267-1.9786z" stroke="#999"/><path d="m37.033 133.47v-43.951h97.692" marker-end="url(#ar)" marker-start="url(#f)" stroke="#666" stroke-width=".8"/></g><g stroke-width="0"><g transform="matrix(.0047884 0 0 -.0047884 67.794 124.78)" fill="#999" stroke="#000" data-mml-node="mi"><use fill="#999999" data-c="1D45F" xlink:href="#am"/></g><g transform="matrix(.0047894 0 0 -.0047894 64.814 115.38)" fill="#17365c" data-mml-node="msub"><g data-mml-node="mi"><use fill="#17365c" data-c="1D460" xlink:href="#ah"/></g><g transform="matrix(.707 0 0 .707 502 -150)" data-mjx-texclass="ORD" data-mml-node="TeXAtom"><g fill="#17365c" data-mml-node="msub"><g data-mjx-texclass="ORD" data-mml-node="TeXAtom"><g fill="#17365c" data-mml-node="mi"><use fill="#17365c" data-c="70" xlink:href="#af"/></g></g><g transform="matrix(.707 0 0 .707 589 -150)" data-mml-node="mn"><use fill="#17365c" data-c="31" xlink:href="#ag"/></g></g></g></g><g transform="matrix(0 -1.12 1.12 0 -95.624 183.49)" fill="#666"><g transform="matrix(.0047888 0 0 -.0047888 58.998 116.59)" stroke="#000" data-mml-node="mi"><use data-c="49" xlink:href="#aq"/><use transform="translate(361)" data-c="6D" xlink:href="#an"/></g><use transform="matrix(.0047888 0 0 -.0047888 65.516 116.59)" data-c="1D460" xlink:href="#e"/></g><g transform="matrix(1.12 0 0 1.12 3.5994 -42.745)" fill="#666"><g transform="matrix(.0047888 0 0 -.0047888 67.762 116.59)" stroke="#000" data-mml-node="mi"><use data-c="52" xlink:href="#ap"/><use transform="translate(736)" data-c="65" xlink:href="#ao"/></g><use transform="matrix(.0047888 0 0 -.0047888 74.212 116.59)" data-c="1D460" xlink:href="#e"/></g></g><circle cx="37.033" cy="89.517" r="1.2486" fill="#17365c"/><circle cx="121.57" cy="127.54" r="1.2486" fill="#17365c"/><g fill="#999" stroke-linecap="round" stroke-linejoin="round" stroke-miterlimit="6"><path d="m100.51 107.36q0.33797 0 0.41548-0.0434 0.0806-0.0403 0.0806-0.24185v-2.9735q0-0.21084-0.0806-0.26355-0.0775-0.0527-0.41548-0.0527v-0.19844l0.91468-0.0682v0.41858q0.38137-0.41858 0.88987-0.41858 0.5395 0 0.93327 0.41858 0.39378 0.41858 0.39378 1.017 0 0.60461-0.41858 1.0232t-0.99839 0.41858q-0.31626 0-0.5302-0.16123-0.21084-0.16433-0.25115-0.28525v1.1255q0 0.20464 0.0806 0.24495 0.0806 0.0403 0.41547 0.0403v0.19534q-0.66662-0.0186-0.71623-0.0186-0.062 0-0.71314 0.0186zm0.93328-1.758q0 0.0961 0.0124 0.13023 0.0155 0.0341 0.0775 0.13642 0.25115 0.38447 0.66042 0.38447 3e-3 0 6e-3 0 0.36277 0 0.63872-0.36897 0.27596-0.37207 0.27596-0.93017 0-0.5333-0.25115-0.90537t-0.59841-0.37207q-0.24805 0-0.46509 0.13332-0.21704 0.13333-0.35657 0.37517zm3.1843 0.38137q-0.41858-0.41547-0.41858-1.017 0-0.60461 0.40928-1.0449 0.41238-0.44338 1.0015-0.44338 0.57671 0 0.98909 0.44028 0.41548 0.43719 0.41548 1.048 0 0.59841-0.41858 1.0139-0.41548 0.41548-0.99219 0.41548-0.56431 0-0.98599-0.41238zm0.10852-1.0697q0 0.61702 0.16123 0.89607 0.24805 0.42478 0.72244 0.42478 0.23564 0 0.43098-0.12712 0.19844-0.12713 0.30696-0.34107 0.13953-0.27905 0.13953-0.85266 0-0.61081-0.16744-0.88056-0.24804-0.41238-0.71623-0.41238-0.20464 0-0.40618 0.10852-0.19844 0.10542-0.31936 0.31626-0.15193 0.27905-0.15193 0.86816zm2.682 1.4108v-0.19534q0.33796 0 0.41548-0.0403 0.0775-0.0434 0.0775-0.24804v-3.3021q0-0.23564-0.0837-0.29455-0.0806-0.0589-0.40928-0.0589v-0.19844l0.91157-0.0682v3.9222q0 0.20464 0.0806 0.24804 0.0806 0.0403 0.41548 0.0403v0.19534q-0.0775 0-0.23875-6e-3 -0.16123-6e-3 -0.27905-9e-3t-0.18604-3e-3q-0.0744 0-0.70383 0.0186zm1.7239-1.3984q0-0.59841 0.38447-1.0232t0.93638-0.42478q0.5581 0 0.84646 0.36277 0.29145 0.36277 0.29145 0.88367 0 0.0961-0.0248 0.11472-0.0248 0.0186-0.13333 0.0186h-1.7735q0 0.64802 0.19223 0.95188 0.26665 0.42478 0.71624 0.42478 0.062 0 0.13642-0.0124 0.0744-0.0124 0.22635-0.0651 0.15192-0.0558 0.28525-0.20154 0.13332-0.14573 0.21084-0.37517 0.0186-0.0899 0.0806-0.0868 0.0837 0 0.0837 0.0744 0 0.0558-0.062 0.18293-0.0589 0.12402-0.17363 0.27285t-0.33797 0.26045q-0.22014 0.11162-0.48679 0.11162-0.55811 0-0.97979-0.42168-0.41857-0.42478-0.41857-1.048zm0.5333-0.20153h1.5069q0-0.13333-0.0248-0.28216-0.0217-0.14883-0.0899-0.35346-0.0651-0.20774-0.22014-0.33797-0.15503-0.13022-0.38447-0.13022-0.10232 0-0.21394 0.0434-0.10853 0.0434-0.24185 0.14882-0.13333 0.10542-0.22634 0.34417-0.093 0.23874-0.10542 0.56741zm2.3192 1.5162v-0.83716q0-0.0713 3e-3 -0.0961t0.0217-0.0434q0.0186-0.0186 0.0558-0.0186 0.0434 0 0.0589 0.0186 0.0186 0.0186 0.031 0.0899 0.0961 0.43719 0.30075 0.66973 0.20774 0.22944 0.58291 0.22944 0.35657 0 0.5364-0.15813 0.17984-0.15813 0.17984-0.41857 0-0.46509-0.66043-0.58291-0.38137-0.0775-0.5395-0.12713-0.15813-0.0527-0.29765-0.16743-0.27286-0.22324-0.27286-0.5395t0.23875-0.54881q0.24184-0.23254 0.77515-0.23254 0.35656 0 0.59841 0.17983 0.0713-0.0558 0.10852-0.10232 0.0837-0.0775 0.12712-0.0775 0.0496 0 0.0589 0.0341 9e-3 0.031 9e-3 0.12092v0.63872q0 0.0713-3e-3 0.0961t-0.0217 0.0434q-0.0186 0.0155-0.0589 0.0155-0.0713 0-0.0744-0.0589-0.0496-0.76895-0.74414-0.76895-0.37518 0-0.54261 0.14573-0.16743 0.14263-0.16743 0.33796 0 0.10852 0.0496 0.19224 0.0527 0.0806 0.11782 0.13023 0.0682 0.0465 0.19224 0.093 0.12402 0.0434 0.19844 0.0589 0.0775 0.0155 0.22324 0.0465 0.5085 0.0961 0.72244 0.30386 0.26665 0.26665 0.26665 0.60461 0 0.37518-0.25425 0.62942-0.25425 0.25425-0.76585 0.25425-0.41237 0-0.70073-0.27595-0.0372 0.0372-0.0651 0.0713-0.0279 0.031-0.0403 0.0434-9e-3 0.0124-0.0124 0.0217-3e-3 6e-3 -9e-3 0.0124-0.12713 0.12712-0.15813 0.12712-0.0496 0-0.0589-0.0341-9e-3 -0.031-9e-3 -0.12093z" stroke-width=".5" aria-label="poles"/><path d="m120.13 124.95c-2.78-5.6732-5.5599-11.346-8.3399-17.019" stroke="#999" stroke-width=".3"/><path d="m71.31 118.01c8.7658-3.5705 17.532-7.1409 26.297-10.711" stroke="#999" stroke-width=".3"/></g><circle cx="69.682" cy="118.75" r="1.2486" fill="#17365c"/><g transform="matrix(.0038495 0 0 -.0038495 57.288 128.32)" fill="#999" stroke="#000" stroke-width="0" data-mml-node="math"><g data-mjx-texclass="ORD" data-mml-node="TeXAtom"><g fill="#999" data-mml-node="mi"><use fill="#999999" data-c="64" xlink:href="#ak"/></g></g><g transform="translate(556)" data-mml-node="mi"><use fill="#999999" data-c="1D719" xlink:href="#al"/></g></g><g fill="#5a6f0b"><circle cx="61.256" cy="119.52" r=".50811"/><circle cx="61.717" cy="115.89" r=".50811"/><circle cx="63.506" cy="112.96" r=".50811"/><circle cx="66.915" cy="110.75" r=".50811"/><circle cx="70.772" cy="110.36" r=".50811"/><circle cx="74.152" cy="111.56" r=".50811"/><circle cx="76.495" cy="113.73" r=".50811"/><circle cx="62.248" cy="122.79" r=".50811"/><circle cx="64.527" cy="125.46" r=".50811"/><circle cx="67.997" cy="127.04" r=".50811"/><circle cx="71.872" cy="126.92" r=".50811"/><circle cx="75.018" cy="125.31" r=".50811"/><circle cx="77.121" cy="122.78" r=".50811"/><circle cx="78.096" cy="119.64" r=".50811"/><g transform="matrix(.0037813 0 0 -.0037813 57.825 124.04)" stroke-width="0" data-mml-node="msub"><g data-mml-node="mi"><use fill="#5a6f0b" data-c="1D467" xlink:href="#ai"/></g><g transform="matrix(.707 0 0 .707 498 -150)" data-mml-node="mi"><use fill="#5a6f0b" data-c="1D456" xlink:href="#aj"/></g></g></g><g transform="matrix(.0047888 0 0 -.0047888 41.561 100.5)" fill="#999" stroke-width="0" data-mml-node="math"><g data-mjx-texclass="ORD" data-mml-node="TeXAtom"><g fill="#999" data-mml-node="mi"><use data-c="52" xlink:href="#v"/><use transform="translate(736)" data-c="65" xlink:href="#t"/><use transform="translate(1180)" data-c="73" xlink:href="#r"/></g></g><g transform="translate(1740.7)" data-mml-node="mrow"><g fill="#999"><g data-mml-node="mo"><use fill="#999999" data-c="28" xlink:href="#b"/></g><g transform="translate(389)" data-mml-node="mi"><use fill="#999999" data-c="1D447" xlink:href="#d"/></g><g transform="translate(1093)" data-mml-node="mo"><use fill="#999999" data-c="2C" xlink:href="#y"/></g></g><g transform="translate(1537.7)" fill="#17365c" data-mml-node="msub"><g data-mml-node="mi"><use fill="#17365c" data-c="1D460" xlink:href="#ab"/></g><g transform="matrix(.707 0 0 .707 502 -150)" data-mjx-texclass="ORD" data-mml-node="TeXAtom"><g fill="#17365c" data-mml-node="msub"><g data-mjx-texclass="ORD" data-mml-node="TeXAtom"><g fill="#17365c" data-mml-node="mi"><use fill="#17365c" data-c="70" xlink:href="#s"/></g></g><g transform="matrix(.707 0 0 .707 589 -150)" data-mml-node="mn"><use fill="#17365c" data-c="31" xlink:href="#x"/></g></g></g></g><g transform="translate(2791.5)" fill="#999" data-mml-node="mo"><use fill="#999999" data-c="29" xlink:href="#a"/></g></g><g transform="translate(5199)" data-mml-node="mo"><use fill="#999999" data-c="3D" xlink:href="#w"/></g><g transform="translate(6254.7)" data-mml-node="msub"><g transform="translate(0,1)" fill="#999" data-mml-node="mo"><use fill="#999999" data-c="222E" xlink:href="#z"/></g><g transform="matrix(.707 0 0 .707 589 -896.4)" fill="#8dae10" data-mml-node="mi"><use fill="#8dae10" data-c="1D6FE" xlink:href="#aa"/></g></g><g transform="translate(7444.4)" data-mml-node="mi"><use fill="#999999" data-c="1D447" xlink:href="#d"/></g><g transform="translate(8148.4)" data-mml-node="mo"><use fill="#999999" data-c="28" xlink:href="#b"/></g><g transform="translate(8537.4)" data-mml-node="mi"><use fill="#999999" data-c="1D467" xlink:href="#c"/></g><g transform="translate(9002.4)" data-mml-node="mo"><use fill="#999999" data-c="29" xlink:href="#a"/></g><g transform="translate(9558.4)" data-mjx-texclass="ORD" data-mml-node="TeXAtom"><g fill="#999" data-mml-node="mi"><use fill="#999999" data-c="64" xlink:href="#u"/></g></g><g transform="translate(10114)" data-mml-node="mi"><use fill="#999999" data-c="1D467" xlink:href="#c"/></g></g><g transform="matrix(.0058967 0 0 -.0058967 66.479 132.62)" fill="#8dae10" stroke="#000" stroke-width="0" data-mml-node="math"><g data-mml-node="mi"><use fill="#8dae10" data-c="1D6FE" xlink:href="#m"/></g><g transform="translate(820.8)" data-mml-node="mo"><use fill="#8dae10" data-c="3D" xlink:href="#i"/></g><g transform="translate(1876.6)" data-mml-node="msub"><g data-mml-node="mi"><use fill="#8dae10" data-c="1D460" xlink:href="#n"/></g><g transform="matrix(.707 0 0 .707 502 -150)" data-mjx-texclass="ORD" data-mml-node="TeXAtom"><g fill="#8dae10" data-mml-node="msub"><g data-mjx-texclass="ORD" data-mml-node="TeXAtom"><g fill="#8dae10" data-mml-node="mi"><use fill="#8dae10" data-c="70" xlink:href="#h"/></g></g><g transform="matrix(.707 0 0 .707 589 -150)" data-mml-node="mn"><use fill="#8dae10" data-c="31" xlink:href="#j"/></g></g></g></g><g transform="translate(3352.6)" data-mml-node="mo"><use fill="#8dae10" data-c="2B" xlink:href="#k"/></g><g transform="translate(4352.8)" data-mml-node="mi"><use fill="#8dae10" data-c="1D45F" xlink:href="#o"/></g><g transform="translate(4803.8)" data-mml-node="msup"><g data-mml-node="mi"><use fill="#8dae10" data-c="1D452" xlink:href="#q"/></g><g transform="matrix(.707 0 0 .707 499 413)" data-mjx-texclass="ORD" data-mml-node="TeXAtom"><g data-mml-node="mi"><use fill="#8dae10" data-c="1D456" xlink:href="#p"/></g><g transform="translate(345)" data-mml-node="mi"><use fill="#8dae10" data-c="1D719" xlink:href="#l"/></g></g></g></g></g><g transform="matrix(.0047894 0 0 -.0047894 125.18 127.19)" fill="#17365c" stroke-width="0" data-mml-node="msub"><g data-mml-node="mi"><use fill="#17365c" data-c="1D460" xlink:href="#ae"/></g><g transform="matrix(.707 0 0 .707 502 -150)" data-mjx-texclass="ORD" data-mml-node="TeXAtom"><g fill="#17365c" data-mml-node="msub"><g data-mjx-texclass="ORD" data-mml-node="TeXAtom"><g fill="#17365c" data-mml-node="mi"><use fill="#17365c" data-c="70" xlink:href="#ac"/></g></g><g transform="matrix(.707 0 0 .707 589 -150)" data-mml-node="mn"><use fill="#17365c" data-c="32" xlink:href="#ad"/></g></g></g></g></g></svg>
